<svg width="100" height="100" viewBox="0 0 100 100" fill="none" xmlns="http://www.w3.org/2000/svg">
<circle cx="50" cy="50" r="50" fill="#9F34ED"/>
<path d="M95 45.5C95 70.629 74.8528 91 50 91C25.1472 91 5 70.629 5 45.5C5 20.371 25.1472 0 50 0C74.8528 0 95 20.371 95 45.5Z" fill="url(#paint0_linear_721_32)"/>
<path d="M64.3949 43.5285C68.4055 44.7248 69.2592 50.0248 65.8272 52.42L41.461 69.4249C38.4713 71.5114 34.3256 69.7997 33.6788 66.2117L29.0546 40.5592C28.3934 36.8913 31.833 33.8154 35.4045 34.8808L64.3949 43.5285Z" fill="black"/>
<path d="M63.3949 40.5285C67.4055 41.7248 68.2592 47.0248 64.8272 49.42L40.461 66.4249C37.4713 68.5114 33.3256 66.7997 32.6788 63.2117L28.0546 37.5592C27.3934 33.8913 30.833 30.8154 34.4045 31.8808L63.3949 40.5285Z" fill="white"/>
<defs>
<linearGradient id="paint0_linear_721_32" x1="50" y1="0" x2="50" y2="91" gradientUnits="userSpaceOnUse">
<stop stop-color="#F573FF"/>
<stop offset="1" stop-color="#A18CFE"/>
</linearGradient>
</defs>
</svg>
