<svg width="344" height="149" viewBox="0 0 344 149" fill="none" xmlns="http://www.w3.org/2000/svg">
<g filter="url(#filter0_d_730_2)">
<mask id="path-1-outside-1_730_2" maskUnits="userSpaceOnUse" x="83" y="52" width="172" height="72" fill="black">
<rect fill="white" x="83" y="52" width="172" height="72"/>
<path d="M102.742 101.203C100.867 93.4688 99.2135 86.9974 97.7812 81.7891C96.349 76.5547 95.2031 73.2995 94.3438 72.0234L90.4375 71.75C89.6823 69.7708 89.1484 67.3359 88.8359 64.4453C89.2786 63.013 90.112 61.776 91.3359 60.7344C92.5599 59.6667 93.9922 58.8594 95.6328 58.3125C97.2734 57.7656 98.9271 57.4922 100.594 57.4922C104.396 57.4922 107.234 59.237 109.109 62.7266C109.969 64.3151 110.698 66.2292 111.297 68.4688C111.896 70.6823 112.456 73.3125 112.977 76.3594C113.836 81.4896 114.435 86.099 114.773 90.1875C115.112 94.25 115.385 98.5729 115.594 103.156L115.75 106.672H116.336C116.987 105.24 117.703 102.154 118.484 97.4141C119.266 92.6745 119.943 87.6615 120.516 82.375C121.089 77.0625 121.401 73.1172 121.453 70.5391L116.531 69.7969C116.167 68.4167 115.932 67.1797 115.828 66.0859C115.724 64.9922 115.672 63.6641 115.672 62.1016C116.219 61.4245 117.13 60.7214 118.406 59.9922C119.682 59.263 121.167 58.651 122.859 58.1562C124.552 57.6615 126.232 57.4141 127.898 57.4141C130.138 57.4141 132.156 57.7917 133.953 58.5469C135.776 59.276 137.221 60.3698 138.289 61.8281C139.383 63.2865 139.943 65.0703 139.969 67.1797V73.1953C141.141 77.7526 142.156 83.1042 143.016 89.25C143.901 95.3698 144.552 101.164 144.969 106.633H145.398C146.023 105.174 146.727 102.076 147.508 97.3359C148.315 92.5703 149.018 87.5573 149.617 82.2969C150.216 77.0104 150.529 73.0911 150.555 70.5391L145.945 69.7969C145.581 68.4167 145.346 67.1797 145.242 66.0859C145.138 64.9922 145.086 63.6641 145.086 62.1016C145.607 61.4245 146.518 60.7214 147.82 59.9922C149.122 59.263 150.62 58.651 152.312 58.1562C154.031 57.6615 155.724 57.4141 157.391 57.4141C160.802 57.4141 163.354 58.2995 165.047 60.0703C166.74 61.8411 167.586 64.5365 167.586 68.1562C167.586 71.5938 167.013 76.0208 165.867 81.4375C164.721 86.8542 163.289 91.9453 161.57 96.7109C160.086 100.878 158.628 104.484 157.195 107.531C155.763 110.552 153.992 113.521 151.883 116.438C151.023 117.323 149.891 117.935 148.484 118.273C147.104 118.612 145.672 118.781 144.188 118.781C139.057 118.781 135.268 117.792 132.82 115.812L133.875 107.805L131.336 94.6406C130.737 91.1771 130.346 88.4167 130.164 86.3594L129.656 86.3203L129.539 91.2812C128.68 96.3854 127.625 101.125 126.375 105.5C125.151 109.849 123.745 113.495 122.156 116.438C121.401 117.297 120.359 117.896 119.031 118.234C117.703 118.599 116.349 118.781 114.969 118.781C109.63 118.781 105.867 117.805 103.68 115.852L104.539 108.508L102.742 101.203ZM176.062 116.086C176.062 114.966 176.01 111.646 175.906 106.125C175.698 98.0521 175.594 91.0729 175.594 85.1875C175.594 79.4323 175.698 74.5625 175.906 70.5781L169.539 69.7578C169.148 68.1693 168.888 66.8542 168.758 65.8125C168.628 64.7448 168.576 63.5208 168.602 62.1406C169.122 61.4896 170.086 60.7995 171.492 60.0703C172.924 59.3151 174.539 58.6901 176.336 58.1953C178.159 57.7005 179.917 57.4531 181.609 57.4531C184.63 57.4531 187.091 58.1302 188.992 59.4844C190.919 60.8385 191.935 62.7917 192.039 65.3438C192.091 66.8542 192.117 68.1432 192.117 69.2109C192.117 74.1328 191.909 80.0703 191.492 87.0234C191.076 93.9505 190.516 102.141 189.812 111.594L189.422 117.102C187.365 118.247 185.021 118.82 182.391 118.82C180.151 118.82 178.042 118.417 176.062 117.609V116.086ZM199.695 105.461C199.93 105.539 200.424 105.721 201.18 106.008C201.961 106.268 202.82 106.49 203.758 106.672V69.875L197.625 67.8047C197.026 66.3984 196.727 64.7839 196.727 62.9609C196.727 61.4766 196.961 60.1484 197.43 58.9766C199.305 58.4818 201.557 58.1042 204.188 57.8438C206.844 57.5573 209.409 57.4141 211.883 57.4141C215.555 57.4141 218.797 57.6875 221.609 58.2344C222.911 60.7604 224.839 65.513 227.391 72.4922C229.969 79.4714 233.068 88.625 236.688 99.9531L237.352 99.875C236.596 93.4427 235.841 85.9036 235.086 77.2578C234.357 68.5859 233.992 62.6484 233.992 59.4453C235.346 58.8203 236.857 58.3385 238.523 58C240.19 57.6354 241.727 57.4531 243.133 57.4531C245.424 57.4531 247.625 57.9219 249.734 58.8594L245.945 108.234C247.299 110.188 248.146 112.479 248.484 115.109C247.417 116.281 245.789 117.193 243.602 117.844C241.44 118.469 239.135 118.781 236.688 118.781C234.786 118.781 233.055 118.586 231.492 118.195C229.956 117.805 228.758 117.206 227.898 116.398C227.924 114.445 228.094 112.661 228.406 111.047C226.453 107.141 224.565 102.844 222.742 98.1562C220.945 93.4427 218.654 87.1927 215.867 79.4062L214.148 74.6406L213.914 74.6797C214.461 78.7422 215.047 84.7318 215.672 92.6484C216.297 100.539 216.609 106.307 216.609 109.953C216.609 112.87 215.737 115.07 213.992 116.555C212.273 118.039 209.578 118.781 205.906 118.781C204.76 118.781 203.536 118.56 202.234 118.117C200.932 117.674 199.747 117.115 198.68 116.438C197.638 115.734 196.909 115.057 196.492 114.406C196.492 112.531 196.779 110.747 197.352 109.055C197.924 107.362 198.706 106.164 199.695 105.461Z"/>
</mask>
<path d="M102.742 101.203C100.867 93.4688 99.2135 86.9974 97.7812 81.7891C96.349 76.5547 95.2031 73.2995 94.3438 72.0234L90.4375 71.75C89.6823 69.7708 89.1484 67.3359 88.8359 64.4453C89.2786 63.013 90.112 61.776 91.3359 60.7344C92.5599 59.6667 93.9922 58.8594 95.6328 58.3125C97.2734 57.7656 98.9271 57.4922 100.594 57.4922C104.396 57.4922 107.234 59.237 109.109 62.7266C109.969 64.3151 110.698 66.2292 111.297 68.4688C111.896 70.6823 112.456 73.3125 112.977 76.3594C113.836 81.4896 114.435 86.099 114.773 90.1875C115.112 94.25 115.385 98.5729 115.594 103.156L115.75 106.672H116.336C116.987 105.24 117.703 102.154 118.484 97.4141C119.266 92.6745 119.943 87.6615 120.516 82.375C121.089 77.0625 121.401 73.1172 121.453 70.5391L116.531 69.7969C116.167 68.4167 115.932 67.1797 115.828 66.0859C115.724 64.9922 115.672 63.6641 115.672 62.1016C116.219 61.4245 117.13 60.7214 118.406 59.9922C119.682 59.263 121.167 58.651 122.859 58.1562C124.552 57.6615 126.232 57.4141 127.898 57.4141C130.138 57.4141 132.156 57.7917 133.953 58.5469C135.776 59.276 137.221 60.3698 138.289 61.8281C139.383 63.2865 139.943 65.0703 139.969 67.1797V73.1953C141.141 77.7526 142.156 83.1042 143.016 89.25C143.901 95.3698 144.552 101.164 144.969 106.633H145.398C146.023 105.174 146.727 102.076 147.508 97.3359C148.315 92.5703 149.018 87.5573 149.617 82.2969C150.216 77.0104 150.529 73.0911 150.555 70.5391L145.945 69.7969C145.581 68.4167 145.346 67.1797 145.242 66.0859C145.138 64.9922 145.086 63.6641 145.086 62.1016C145.607 61.4245 146.518 60.7214 147.82 59.9922C149.122 59.263 150.62 58.651 152.312 58.1562C154.031 57.6615 155.724 57.4141 157.391 57.4141C160.802 57.4141 163.354 58.2995 165.047 60.0703C166.74 61.8411 167.586 64.5365 167.586 68.1562C167.586 71.5938 167.013 76.0208 165.867 81.4375C164.721 86.8542 163.289 91.9453 161.57 96.7109C160.086 100.878 158.628 104.484 157.195 107.531C155.763 110.552 153.992 113.521 151.883 116.438C151.023 117.323 149.891 117.935 148.484 118.273C147.104 118.612 145.672 118.781 144.188 118.781C139.057 118.781 135.268 117.792 132.82 115.812L133.875 107.805L131.336 94.6406C130.737 91.1771 130.346 88.4167 130.164 86.3594L129.656 86.3203L129.539 91.2812C128.68 96.3854 127.625 101.125 126.375 105.5C125.151 109.849 123.745 113.495 122.156 116.438C121.401 117.297 120.359 117.896 119.031 118.234C117.703 118.599 116.349 118.781 114.969 118.781C109.63 118.781 105.867 117.805 103.68 115.852L104.539 108.508L102.742 101.203ZM176.062 116.086C176.062 114.966 176.01 111.646 175.906 106.125C175.698 98.0521 175.594 91.0729 175.594 85.1875C175.594 79.4323 175.698 74.5625 175.906 70.5781L169.539 69.7578C169.148 68.1693 168.888 66.8542 168.758 65.8125C168.628 64.7448 168.576 63.5208 168.602 62.1406C169.122 61.4896 170.086 60.7995 171.492 60.0703C172.924 59.3151 174.539 58.6901 176.336 58.1953C178.159 57.7005 179.917 57.4531 181.609 57.4531C184.63 57.4531 187.091 58.1302 188.992 59.4844C190.919 60.8385 191.935 62.7917 192.039 65.3438C192.091 66.8542 192.117 68.1432 192.117 69.2109C192.117 74.1328 191.909 80.0703 191.492 87.0234C191.076 93.9505 190.516 102.141 189.812 111.594L189.422 117.102C187.365 118.247 185.021 118.82 182.391 118.82C180.151 118.82 178.042 118.417 176.062 117.609V116.086ZM199.695 105.461C199.93 105.539 200.424 105.721 201.18 106.008C201.961 106.268 202.82 106.49 203.758 106.672V69.875L197.625 67.8047C197.026 66.3984 196.727 64.7839 196.727 62.9609C196.727 61.4766 196.961 60.1484 197.43 58.9766C199.305 58.4818 201.557 58.1042 204.188 57.8438C206.844 57.5573 209.409 57.4141 211.883 57.4141C215.555 57.4141 218.797 57.6875 221.609 58.2344C222.911 60.7604 224.839 65.513 227.391 72.4922C229.969 79.4714 233.068 88.625 236.688 99.9531L237.352 99.875C236.596 93.4427 235.841 85.9036 235.086 77.2578C234.357 68.5859 233.992 62.6484 233.992 59.4453C235.346 58.8203 236.857 58.3385 238.523 58C240.19 57.6354 241.727 57.4531 243.133 57.4531C245.424 57.4531 247.625 57.9219 249.734 58.8594L245.945 108.234C247.299 110.188 248.146 112.479 248.484 115.109C247.417 116.281 245.789 117.193 243.602 117.844C241.44 118.469 239.135 118.781 236.688 118.781C234.786 118.781 233.055 118.586 231.492 118.195C229.956 117.805 228.758 117.206 227.898 116.398C227.924 114.445 228.094 112.661 228.406 111.047C226.453 107.141 224.565 102.844 222.742 98.1562C220.945 93.4427 218.654 87.1927 215.867 79.4062L214.148 74.6406L213.914 74.6797C214.461 78.7422 215.047 84.7318 215.672 92.6484C216.297 100.539 216.609 106.307 216.609 109.953C216.609 112.87 215.737 115.07 213.992 116.555C212.273 118.039 209.578 118.781 205.906 118.781C204.76 118.781 203.536 118.56 202.234 118.117C200.932 117.674 199.747 117.115 198.68 116.438C197.638 115.734 196.909 115.057 196.492 114.406C196.492 112.531 196.779 110.747 197.352 109.055C197.924 107.362 198.706 106.164 199.695 105.461Z" fill="white"/>
<path d="M102.742 101.203L97.8829 102.381L97.8849 102.389L97.8869 102.397L102.742 101.203ZM97.7812 81.7891L92.9585 83.1087L92.9602 83.1148L97.7812 81.7891ZM94.3438 72.0234L98.4909 69.2304L97.1276 67.2061L94.6929 67.0356L94.3438 72.0234ZM90.4375 71.75L85.766 73.5325L86.904 76.5149L90.0884 76.7378L90.4375 71.75ZM88.8359 64.4453L84.0589 62.9688L83.7539 63.9557L83.8649 64.9827L88.8359 64.4453ZM91.3359 60.7344L94.5765 64.5421L94.5998 64.5223L94.6228 64.5022L91.3359 60.7344ZM109.109 62.7266L104.705 65.0931L104.708 65.0994L104.712 65.1057L109.109 62.7266ZM111.297 68.4688L106.467 69.7606L106.469 69.7676L106.47 69.7747L111.297 68.4688ZM112.977 76.3594L117.908 75.5333L117.906 75.5251L117.905 75.5169L112.977 76.3594ZM114.773 90.1875L109.79 90.6001L109.791 90.6027L114.773 90.1875ZM115.594 103.156L120.589 102.934L120.589 102.929L115.594 103.156ZM115.75 106.672L110.755 106.894L110.967 111.672H115.75V106.672ZM116.336 106.672V111.672H119.556L120.888 108.741L116.336 106.672ZM120.516 82.375L125.487 82.9137L125.487 82.9111L120.516 82.375ZM121.453 70.5391L126.452 70.6401L126.541 66.2497L122.199 65.595L121.453 70.5391ZM116.531 69.7969L111.697 71.0738L112.536 74.251L115.786 74.741L116.531 69.7969ZM115.672 62.1016L111.782 58.9599L110.672 60.3345V62.1016H115.672ZM133.953 58.5469L132.016 63.1563L132.056 63.1731L132.096 63.1893L133.953 58.5469ZM138.289 61.8281L134.255 64.7818L134.272 64.8051L134.289 64.8281L138.289 61.8281ZM139.969 67.1797H144.969V67.1488L144.968 67.118L139.969 67.1797ZM139.969 73.1953H134.969V73.8279L135.126 74.4405L139.969 73.1953ZM143.016 89.25L138.064 89.9424L138.065 89.9542L138.067 89.9659L143.016 89.25ZM144.969 106.633L139.983 107.013L140.335 111.633H144.969V106.633ZM145.398 106.633V111.633H148.695L149.994 108.602L145.398 106.633ZM147.508 97.3359L142.578 96.5008L142.576 96.5118L142.574 96.5227L147.508 97.3359ZM149.617 82.2969L154.585 82.8625L154.585 82.8598L149.617 82.2969ZM150.555 70.5391L155.554 70.5901L155.598 66.2868L151.35 65.6026L150.555 70.5391ZM145.945 69.7969L141.111 71.0738L141.941 74.2166L145.15 74.7333L145.945 69.7969ZM145.086 62.1016L141.123 59.053L140.086 60.401V62.1016H145.086ZM152.312 58.1562L150.929 53.3514L150.919 53.3542L150.91 53.3571L152.312 58.1562ZM161.57 96.7109L156.867 95.0146L156.864 95.0238L156.86 95.033L161.57 96.7109ZM157.195 107.531L161.713 109.673L161.717 109.666L161.72 109.658L157.195 107.531ZM151.883 116.438L155.471 119.92L155.722 119.66L155.934 119.368L151.883 116.438ZM148.484 118.273L147.314 113.412L147.304 113.415L147.293 113.417L148.484 118.273ZM132.82 115.812L127.863 115.16L127.497 117.938L129.677 119.701L132.82 115.812ZM133.875 107.805L138.832 108.458L138.938 107.654L138.785 106.858L133.875 107.805ZM131.336 94.6406L126.409 95.4926L126.417 95.5402L126.426 95.5876L131.336 94.6406ZM130.164 86.3594L135.145 85.9181L134.771 81.699L130.548 81.3741L130.164 86.3594ZM129.656 86.3203L130.04 81.335L124.782 80.9306L124.658 86.2022L129.656 86.3203ZM129.539 91.2812L134.47 92.1114L134.529 91.7578L134.538 91.3993L129.539 91.2812ZM126.375 105.5L121.567 104.126L121.565 104.136L121.562 104.145L126.375 105.5ZM122.156 116.438L125.912 119.738L126.287 119.312L126.556 118.813L122.156 116.438ZM119.031 118.234L117.796 113.389L117.752 113.401L117.708 113.413L119.031 118.234ZM103.68 115.852L98.7136 115.27L98.4116 117.851L100.35 119.581L103.68 115.852ZM104.539 108.508L109.505 109.089L109.61 108.191L109.394 107.313L104.539 108.508ZM107.601 100.025C105.719 92.262 104.053 85.7377 102.602 80.4633L92.9602 83.1148C94.3744 88.2571 96.0149 94.6755 97.8829 102.381L107.601 100.025ZM102.604 80.4694C101.872 77.7943 101.192 75.546 100.564 73.7617C99.9803 72.1035 99.3062 70.4409 98.4909 69.2304L90.1966 74.8164C90.1793 74.7907 90.2754 74.936 90.4697 75.3749C90.6517 75.7862 90.8727 76.3474 91.1313 77.082C91.6491 78.553 92.2582 80.5494 92.9585 83.1087L102.604 80.4694ZM94.6929 67.0356L90.7866 66.7622L90.0884 76.7378L93.9946 77.0112L94.6929 67.0356ZM95.109 69.9675C94.5513 68.5061 94.0892 66.5185 93.807 63.9079L83.8649 64.9827C84.2077 68.1534 84.8132 71.0356 85.766 73.5325L95.109 69.9675ZM93.613 65.9218C93.7549 65.4627 94.0213 65.0146 94.5765 64.5421L88.0953 56.9267C86.2027 58.5374 84.8024 60.5634 84.0589 62.9688L93.613 65.9218ZM94.6228 64.5022C95.3166 63.897 96.1597 63.4073 97.214 63.0559L94.0517 53.5691C91.8247 54.3114 89.8032 55.4364 88.0491 56.9665L94.6228 64.5022ZM97.214 63.0559C98.3641 62.6725 99.4845 62.4922 100.594 62.4922V52.4922C98.3696 52.4922 96.1828 52.8587 94.0517 53.5691L97.214 63.0559ZM100.594 62.4922C101.704 62.4922 102.431 62.7375 102.956 63.0604C103.492 63.3901 104.106 63.9784 104.705 65.0931L113.514 60.36C112.238 57.9851 110.495 55.9563 108.193 54.5411C105.879 53.1193 103.286 52.4922 100.594 52.4922V62.4922ZM104.712 65.1057C105.341 66.2689 105.942 67.7983 106.467 69.7606L116.127 67.1769C115.454 64.66 114.597 62.3613 113.507 60.3475L104.712 65.1057ZM106.47 69.7747C107.017 71.7935 107.545 74.2613 108.048 77.2019L117.905 75.5169C117.366 72.3637 116.775 69.5711 116.123 67.1628L106.47 69.7747ZM108.045 77.1854C108.887 82.2129 109.466 86.6809 109.79 90.6001L119.756 89.7749C119.404 85.5171 118.784 80.7662 117.908 75.5333L108.045 77.1854ZM109.791 90.6027C110.123 94.5954 110.393 98.8551 110.599 103.383L120.589 102.929C120.378 98.2907 120.101 93.9046 119.756 89.7723L109.791 90.6027ZM110.599 103.378L110.755 106.894L120.745 106.45L120.589 102.934L110.599 103.378ZM115.75 111.672H116.336V101.672H115.75V111.672ZM120.888 108.741C121.86 106.603 122.657 102.844 123.418 98.2273L113.551 96.6009C112.749 101.463 112.114 103.877 111.784 104.603L120.888 108.741ZM123.418 98.2273C124.216 93.3875 124.905 88.2824 125.487 82.9137L115.545 81.8363C114.981 87.0405 114.316 91.9614 113.551 96.6009L123.418 98.2273ZM125.487 82.9111C126.063 77.5727 126.395 73.4474 126.452 70.6401L116.454 70.4381C116.407 72.787 116.115 76.5523 115.544 81.8389L125.487 82.9111ZM122.199 65.595L117.277 64.8528L115.786 74.741L120.708 75.4832L122.199 65.595ZM121.365 68.5199C121.051 67.3296 120.878 66.3682 120.806 65.6119L110.851 66.56C110.987 67.9911 111.282 69.5037 111.697 71.0738L121.365 68.5199ZM120.806 65.6119C120.721 64.7259 120.672 63.5659 120.672 62.1016H110.672C110.672 63.7623 110.727 65.2584 110.851 66.56L120.806 65.6119ZM119.562 65.2432C119.525 65.2883 119.581 65.2098 119.82 65.0253C120.052 64.8464 120.397 64.6134 120.887 64.3334L115.926 55.651C114.429 56.506 112.899 57.5771 111.782 58.9599L119.562 65.2432ZM120.887 64.3334C121.763 63.8327 122.873 63.3614 124.262 62.9554L121.457 53.3571C119.46 53.9407 117.601 54.6934 115.926 55.651L120.887 64.3334ZM124.262 62.9554C125.526 62.5861 126.733 62.4141 127.898 62.4141V52.4141C125.73 52.4141 123.578 52.7368 121.457 53.3571L124.262 62.9554ZM127.898 62.4141C129.571 62.4141 130.917 62.6944 132.016 63.1563L135.89 53.9374C133.396 52.8889 130.705 52.4141 127.898 52.4141V62.4141ZM132.096 63.1893C133.127 63.6017 133.788 64.1442 134.255 64.7818L142.323 58.8744C140.655 56.5954 138.425 54.9503 135.81 53.9045L132.096 63.1893ZM134.289 64.8281C134.65 65.3093 134.954 66.0198 134.969 67.2414L144.968 67.118C144.931 64.1208 144.116 61.2637 142.289 58.8281L134.289 64.8281ZM134.969 67.1797V73.1953H144.969V67.1797H134.969ZM135.126 74.4405C136.239 78.769 137.223 83.9279 138.064 89.9424L147.967 88.5576C147.09 82.2804 146.042 76.7362 144.811 71.9501L135.126 74.4405ZM138.067 89.9659C138.938 95.9879 139.576 101.669 139.983 107.013L149.954 106.253C149.528 100.659 148.864 94.7516 147.964 88.5341L138.067 89.9659ZM144.969 111.633H145.398V101.633H144.969V111.633ZM149.994 108.602C150.899 106.492 151.678 102.781 152.441 98.1491L142.574 96.5227C141.775 101.37 141.148 103.857 140.803 104.663L149.994 108.602ZM152.438 98.171C153.261 93.308 153.977 88.2047 154.585 82.8625L144.649 81.7312C144.06 86.9099 143.369 91.8326 142.578 96.5008L152.438 98.171ZM154.585 82.8598C155.188 77.5441 155.526 73.4125 155.554 70.5901L145.555 70.488C145.532 72.7697 145.245 76.4767 144.649 81.734L154.585 82.8598ZM151.35 65.6026L146.74 64.8605L145.15 74.7333L149.76 75.4755L151.35 65.6026ZM150.78 68.5199C150.465 67.3296 150.292 66.3682 150.22 65.6119L140.265 66.56C140.401 67.9911 140.696 69.5037 141.111 71.0738L150.78 68.5199ZM150.22 65.6119C150.135 64.7259 150.086 63.5659 150.086 62.1016H140.086C140.086 63.7623 140.141 65.2584 140.265 66.56L150.22 65.6119ZM149.049 65.1501C148.974 65.2477 148.99 65.1985 149.214 65.0253C149.429 64.8592 149.767 64.6328 150.263 64.3547L145.377 55.6297C143.86 56.4791 142.256 57.58 141.123 59.053L149.049 65.1501ZM150.263 64.3547C151.183 63.8396 152.321 63.3629 153.715 62.9554L150.91 53.3571C148.918 53.9392 147.062 54.6865 145.377 55.6297L150.263 64.3547ZM153.696 62.9611C154.998 62.5863 156.225 62.4141 157.391 62.4141V52.4141C155.223 52.4141 153.065 52.7366 150.929 53.3514L153.696 62.9611ZM157.391 62.4141C159.986 62.4141 161.005 63.0779 161.433 63.5252L168.661 56.6154C165.703 53.521 161.618 52.4141 157.391 52.4141V62.4141ZM161.433 63.5252C161.89 64.0039 162.586 65.2165 162.586 68.1562H172.586C172.586 63.8564 171.589 59.6783 168.661 56.6154L161.433 63.5252ZM162.586 68.1562C162.586 71.1012 162.087 75.1471 160.975 80.4027L170.759 82.4723C171.939 76.8946 172.586 72.0863 172.586 68.1562H162.586ZM160.975 80.4027C159.873 85.6152 158.501 90.4837 156.867 95.0146L166.274 98.4073C168.077 93.4069 169.57 88.0931 170.759 82.4723L160.975 80.4027ZM156.86 95.033C155.414 99.0913 154.016 102.541 152.67 105.404L161.72 109.658C163.239 106.428 164.757 102.664 166.28 98.3889L156.86 95.033ZM152.677 105.389C151.386 108.113 149.775 110.82 147.831 113.507L155.934 119.368C158.209 116.222 160.14 112.991 161.713 109.673L152.677 105.389ZM148.295 112.955C148.201 113.052 147.961 113.256 147.314 113.412L149.655 123.135C151.82 122.613 153.846 121.594 155.471 119.92L148.295 112.955ZM147.293 113.417C146.32 113.656 145.288 113.781 144.188 113.781V123.781C146.055 123.781 147.888 123.568 149.675 123.129L147.293 113.417ZM144.188 113.781C139.533 113.781 137.113 112.854 135.964 111.924L129.677 119.701C133.423 122.73 138.581 123.781 144.188 123.781V113.781ZM137.778 116.465L138.832 108.458L128.918 107.152L127.863 115.16L137.778 116.465ZM138.785 106.858L136.245 93.6937L126.426 95.5876L128.965 108.752L138.785 106.858ZM136.263 93.7886C135.674 90.3812 135.309 87.7755 135.145 85.9181L125.184 86.8007C125.384 89.0578 125.8 91.973 126.409 95.4926L136.263 93.7886ZM130.548 81.3741L130.04 81.335L129.273 91.3056L129.781 91.3446L130.548 81.3741ZM124.658 86.2022L124.54 91.1632L134.538 91.3993L134.655 86.4384L124.658 86.2022ZM124.608 90.4511C123.776 95.3964 122.76 99.9524 121.567 104.126L131.183 106.874C132.49 102.298 133.584 97.3745 134.47 92.1114L124.608 90.4511ZM121.562 104.145C120.405 108.255 119.121 111.534 117.756 114.062L126.556 118.813C128.368 115.456 129.897 111.443 131.188 106.855L121.562 104.145ZM118.4 113.137C118.399 113.139 118.395 113.143 118.385 113.151C118.376 113.159 118.354 113.175 118.316 113.197C118.24 113.24 118.081 113.317 117.796 113.389L120.266 123.079C122.374 122.542 124.369 121.494 125.912 119.738L118.4 113.137ZM117.708 113.413C116.812 113.659 115.903 113.781 114.969 113.781V123.781C116.795 123.781 118.595 123.539 120.355 123.056L117.708 113.413ZM114.969 113.781C109.958 113.781 107.779 112.809 107.01 112.122L100.35 119.581C103.955 122.801 109.303 123.781 114.969 123.781V113.781ZM108.646 116.433L109.505 109.089L99.5729 107.927L98.7136 115.27L108.646 116.433ZM109.394 107.313L107.597 100.009L97.8869 102.397L99.6838 109.702L109.394 107.313ZM175.906 106.125L180.905 106.031L180.905 106.013L180.905 105.996L175.906 106.125ZM175.906 70.5781L180.899 70.8392L181.141 66.2113L176.545 65.6191L175.906 70.5781ZM169.539 69.7578L164.684 70.9518L165.502 74.279L168.9 74.7168L169.539 69.7578ZM168.758 65.8125L163.795 66.4178L163.795 66.4252L163.796 66.4327L168.758 65.8125ZM168.602 62.1406L164.697 59.0171L163.635 60.3455L163.602 62.0463L168.602 62.1406ZM171.492 60.0703L173.794 64.5091L173.809 64.5012L173.824 64.4932L171.492 60.0703ZM176.336 58.1953L175.026 53.3699L175.017 53.3723L175.009 53.3747L176.336 58.1953ZM188.992 59.4844L186.091 63.5568L186.104 63.5661L186.117 63.5753L188.992 59.4844ZM192.039 65.3438L197.036 65.1714L197.036 65.1556L197.035 65.1398L192.039 65.3438ZM191.492 87.0234L196.483 87.3236L196.483 87.3225L191.492 87.0234ZM189.812 111.594L184.826 111.223L184.826 111.231L184.825 111.24L189.812 111.594ZM189.422 117.102L191.855 121.47L194.218 120.154L194.409 117.455L189.422 117.102ZM176.062 117.609H171.062V120.97L174.174 122.239L176.062 117.609ZM181.062 116.086C181.062 114.907 181.009 111.527 180.905 106.031L170.907 106.219C171.012 111.764 171.062 115.025 171.062 116.086H181.062ZM180.905 105.996C180.697 97.9515 180.594 91.0175 180.594 85.1875H170.594C170.594 91.1284 170.699 98.1526 170.908 106.254L180.905 105.996ZM180.594 85.1875C180.594 79.4849 180.697 74.708 180.899 70.8392L170.913 70.317C170.699 74.417 170.594 79.3796 170.594 85.1875H180.594ZM176.545 65.6191L170.178 64.7988L168.9 74.7168L175.267 75.5371L176.545 65.6191ZM174.394 68.5639C174.028 67.0726 173.816 65.9655 173.719 65.1923L163.796 66.4327C163.96 67.7428 164.269 69.2659 164.684 70.9518L174.394 68.5639ZM173.721 65.2072C173.626 64.4258 173.578 63.4433 173.601 62.2349L163.602 62.0463C163.573 63.5984 163.629 65.0638 163.795 66.4178L173.721 65.2072ZM172.506 65.2641C172.388 65.4118 172.374 65.3803 172.626 65.1997C172.862 65.031 173.237 64.7978 173.794 64.5091L169.191 55.6315C167.623 56.4445 165.891 57.5254 164.697 59.0171L172.506 65.2641ZM173.824 64.4932C174.893 63.9295 176.164 63.4288 177.663 63.0159L175.009 53.3747C172.914 53.9514 170.956 54.7007 169.16 55.6475L173.824 64.4932ZM177.646 63.0207C179.09 62.6286 180.407 62.4531 181.609 62.4531V52.4531C179.427 52.4531 177.227 52.7724 175.026 53.3699L177.646 63.0207ZM181.609 62.4531C183.895 62.4531 185.256 62.9617 186.091 63.5568L191.893 55.4119C188.926 53.2987 185.365 52.4531 181.609 52.4531V62.4531ZM186.117 63.5753C186.652 63.9508 186.996 64.3991 187.043 65.5477L197.035 65.1398C196.873 61.1842 195.187 57.7263 191.867 55.3934L186.117 63.5753ZM187.042 65.5161C187.093 66.9905 187.117 68.2187 187.117 69.2109H197.117C197.117 68.0677 197.089 66.7178 197.036 65.1714L187.042 65.5161ZM187.117 69.2109C187.117 74.0017 186.914 79.8336 186.501 86.7243L196.483 87.3225C196.904 80.307 197.117 74.264 197.117 69.2109H187.117ZM186.501 86.7232C186.086 93.62 185.528 101.785 184.826 111.223L194.799 111.965C195.503 102.496 196.065 94.281 196.483 87.3236L186.501 86.7232ZM184.825 111.24L184.434 116.748L194.409 117.455L194.8 111.947L184.825 111.24ZM186.989 112.733C185.76 113.418 184.271 113.82 182.391 113.82V123.82C185.771 123.82 188.97 123.077 191.855 121.47L186.989 112.733ZM182.391 113.82C180.767 113.82 179.302 113.531 177.951 112.98L174.174 122.239C176.781 123.302 179.535 123.82 182.391 123.82V113.82ZM181.062 117.609V116.086H171.062V117.609H181.062ZM199.695 105.461L201.276 100.718L198.868 99.9148L196.799 101.385L199.695 105.461ZM201.18 106.008L199.406 110.683L199.502 110.719L199.599 110.751L201.18 106.008ZM203.758 106.672L202.803 111.58L208.758 112.738V106.672H203.758ZM203.758 69.875H208.758V66.2857L205.357 65.1377L203.758 69.875ZM197.625 67.8047L193.025 69.764L193.903 71.8254L196.026 72.542L197.625 67.8047ZM197.43 58.9766L196.154 54.1421L193.722 54.7839L192.787 57.1196L197.43 58.9766ZM204.188 57.8438L204.68 62.8194L204.702 62.8173L204.724 62.8149L204.188 57.8438ZM221.609 58.2344L226.054 55.9435L224.943 53.789L222.564 53.3263L221.609 58.2344ZM227.391 72.4922L222.695 74.2093L222.698 74.2171L222.7 74.2248L227.391 72.4922ZM236.688 99.9531L231.925 101.475L233.179 105.4L237.272 104.919L236.688 99.9531ZM237.352 99.875L237.936 104.841L242.9 104.257L242.317 99.292L237.352 99.875ZM235.086 77.2578L230.104 77.6768L230.104 77.6848L230.105 77.6929L235.086 77.2578ZM233.992 59.4453L231.897 54.9055L228.992 56.2462V59.4453H233.992ZM238.523 58L239.519 62.8999L239.555 62.8925L239.592 62.8845L238.523 58ZM249.734 58.8594L254.72 59.242L254.99 55.7235L251.765 54.2903L249.734 58.8594ZM245.945 108.234L240.96 107.852L240.824 109.623L241.836 111.083L245.945 108.234ZM248.484 115.109L252.18 118.477L253.739 116.766L253.443 114.471L248.484 115.109ZM243.602 117.844L244.99 122.647L245.009 122.642L245.028 122.636L243.602 117.844ZM231.492 118.195L230.26 123.041L230.27 123.044L230.28 123.046L231.492 118.195ZM227.898 116.398L222.899 116.332L222.87 118.534L224.475 120.043L227.898 116.398ZM228.406 111.047L233.315 111.997L233.638 110.33L232.878 108.811L228.406 111.047ZM222.742 98.1562L218.07 99.9373L218.076 99.9529L218.082 99.9685L222.742 98.1562ZM215.867 79.4062L220.575 77.7216L220.571 77.7099L215.867 79.4062ZM214.148 74.6406L218.852 72.9443L217.438 69.0234L213.326 69.7087L214.148 74.6406ZM213.914 74.6797L213.092 69.7477L208.312 70.5443L208.959 75.3467L213.914 74.6797ZM215.672 92.6484L210.687 93.0419L210.687 93.0432L215.672 92.6484ZM213.992 116.555L210.752 112.746L210.738 112.758L210.724 112.771L213.992 116.555ZM202.234 118.117L200.625 122.851L202.234 118.117ZM198.68 116.438L195.882 120.582L195.942 120.622L196.002 120.66L198.68 116.438ZM196.492 114.406H191.492V115.869L192.281 117.102L196.492 114.406ZM198.114 110.204C198.234 110.244 198.629 110.388 199.406 110.683L202.953 101.333C202.22 101.055 201.626 100.834 201.276 100.718L198.114 110.204ZM199.599 110.751C200.614 111.09 201.686 111.363 202.803 111.58L204.712 101.764C203.954 101.616 203.308 101.447 202.761 101.264L199.599 110.751ZM208.758 106.672V69.875H198.758V106.672H208.758ZM205.357 65.1377L199.224 63.0673L196.026 72.542L202.159 74.6123L205.357 65.1377ZM202.225 65.8454C201.936 65.1659 201.727 64.2378 201.727 62.9609H191.727C191.727 65.3299 192.116 67.6309 193.025 69.764L202.225 65.8454ZM201.727 62.9609C201.727 62.0026 201.877 61.3206 202.072 60.8335L192.787 57.1196C192.045 58.9763 191.727 60.9505 191.727 62.9609H201.727ZM198.705 63.8111C200.25 63.4034 202.226 63.0624 204.68 62.8194L203.695 52.8681C200.888 53.146 198.359 53.5602 196.154 54.1421L198.705 63.8111ZM204.724 62.8149C207.216 62.5462 209.601 62.4141 211.883 62.4141V52.4141C209.216 52.4141 206.472 52.5684 203.651 52.8726L204.724 62.8149ZM211.883 62.4141C215.319 62.4141 218.23 62.671 220.655 63.1425L222.564 53.3263C219.363 52.704 215.79 52.4141 211.883 52.4141V62.4141ZM217.165 60.5253C218.305 62.7362 220.136 67.2114 222.695 74.2093L232.087 70.775C229.541 63.8147 227.518 58.7846 226.054 55.9435L217.165 60.5253ZM222.7 74.2248C225.242 81.1058 228.316 90.1813 231.925 101.475L241.45 98.4312C237.819 87.0687 234.695 77.8369 232.081 70.7596L222.7 74.2248ZM237.272 104.919L237.936 104.841L236.767 94.9092L236.103 94.9874L237.272 104.919ZM242.317 99.292C241.57 92.9222 240.819 85.4346 240.067 76.8227L230.105 77.6929C230.863 86.3727 231.623 93.9632 232.386 100.458L242.317 99.292ZM240.068 76.8389C239.338 68.1477 238.992 62.4091 238.992 59.4453H228.992C228.992 62.8877 229.376 69.0242 230.104 77.6768L240.068 76.8389ZM236.087 63.9851C237.045 63.5431 238.18 63.172 239.519 62.8999L237.528 53.1001C235.534 53.5051 233.648 54.0975 231.897 54.9055L236.087 63.9851ZM239.592 62.8845C240.979 62.5811 242.152 62.4531 243.133 62.4531V52.4531C241.301 52.4531 239.401 52.6898 237.455 53.1155L239.592 62.8845ZM243.133 62.4531C244.72 62.4531 246.229 62.7729 247.704 63.4284L251.765 54.2903C249.021 53.0708 246.129 52.4531 243.133 52.4531V62.4531ZM244.749 58.4768L240.96 107.852L250.931 108.617L254.72 59.242L244.749 58.4768ZM241.836 111.083C242.683 112.305 243.277 113.818 243.525 115.748L253.443 114.471C253.015 111.14 251.916 108.07 250.054 105.385L241.836 111.083ZM244.788 111.742C244.546 112.008 243.853 112.552 242.175 113.051L245.028 122.636C247.726 121.833 250.288 120.554 252.18 118.477L244.788 111.742ZM242.213 113.041C240.54 113.524 238.707 113.781 236.688 113.781V123.781C239.564 123.781 242.34 123.413 244.99 122.647L242.213 113.041ZM236.688 113.781C235.124 113.781 233.807 113.62 232.705 113.345L230.28 123.046C232.302 123.552 234.449 123.781 236.688 123.781V113.781ZM232.724 113.349C231.737 113.098 231.388 112.816 231.322 112.754L224.475 120.043C226.128 121.595 228.175 122.511 230.26 123.041L232.724 113.349ZM232.898 116.465C232.921 114.755 233.068 113.272 233.315 111.997L223.497 110.097C223.119 112.051 222.928 114.135 222.899 116.332L232.898 116.465ZM232.878 108.811C231.004 105.062 229.177 100.908 227.402 96.344L218.082 99.9685C219.953 104.779 221.902 109.22 223.934 113.283L232.878 108.811ZM227.414 96.3752C225.635 91.7073 223.356 85.4933 220.575 77.7216L211.16 81.0909C213.951 88.8921 216.256 95.1781 218.07 99.9373L227.414 96.3752ZM220.571 77.7099L218.852 72.9443L209.445 76.337L211.164 81.1026L220.571 77.7099ZM213.326 69.7087L213.092 69.7477L214.736 79.6117L214.97 79.5726L213.326 69.7087ZM208.959 75.3467C209.487 79.2696 210.064 85.149 210.687 93.0419L220.656 92.2549C220.029 84.3145 219.435 78.2148 218.869 74.0126L208.959 75.3467ZM210.687 93.0432C211.311 100.918 211.609 106.518 211.609 109.953H221.609C221.609 106.096 221.283 100.161 220.656 92.2536L210.687 93.0432ZM211.609 109.953C211.609 111.836 211.089 112.46 210.752 112.746L217.232 120.363C220.385 117.681 221.609 113.904 221.609 109.953H211.609ZM210.724 112.771C210.328 113.112 209.073 113.781 205.906 113.781V123.781C210.084 123.781 214.218 122.966 217.26 120.339L210.724 112.771ZM205.906 113.781C205.405 113.781 204.728 113.684 203.844 113.383L200.625 122.851C202.345 123.436 204.116 123.781 205.906 123.781V113.781ZM203.844 113.383C202.884 113.057 202.063 112.662 201.357 112.215L196.002 120.66C197.432 121.567 198.98 122.292 200.625 122.851L203.844 113.383ZM201.477 112.293C201.117 112.05 200.888 111.863 200.754 111.738C200.615 111.61 200.63 111.596 200.704 111.711L192.281 117.102C193.224 118.576 194.586 119.707 195.882 120.582L201.477 112.293ZM201.492 114.406C201.492 113.049 201.698 111.809 202.088 110.658L192.615 107.452C191.859 109.686 191.492 112.013 191.492 114.406H201.492ZM202.088 110.658C202.271 110.115 202.443 109.791 202.555 109.618C202.663 109.453 202.69 109.467 202.591 109.537L196.799 101.385C194.632 102.925 193.374 105.211 192.615 107.452L202.088 110.658Z" fill="black" mask="url(#path-1-outside-1_730_2)"/>
<mask id="path-3-outside-2_730_2" maskUnits="userSpaceOnUse" x="15" y="3" width="86" height="42" fill="black">
<rect fill="white" x="15" y="3" width="86" height="42"/>
<path d="M30.9297 29.7812C30.2917 28.7917 29.5234 27.4635 28.625 25.7969C27.7396 24.1302 26.8672 22.3529 26.0078 20.4648C25.1615 18.5768 24.4974 16.8516 24.0156 15.2891L21.0469 14.8789C20.8516 14.0846 20.7214 13.4271 20.6562 12.9062C20.5911 12.3724 20.5651 11.7604 20.5781 11.0703C20.8385 10.7448 21.3073 10.3997 21.9844 10.0352C22.6484 9.65755 23.4167 9.34505 24.2891 9.09766C25.1615 8.85026 26.0208 8.72656 26.8672 8.72656C29.2891 8.72656 30.806 9.63802 31.418 11.4609C31.6654 12.0339 32.043 13.082 32.5508 14.6055C33.0716 16.1159 33.599 17.8216 34.1328 19.7227C34.6667 21.6237 35.0833 23.4141 35.3828 25.0938C36.1771 23.5052 36.9648 21.7474 37.7461 19.8203C38.5273 17.8932 39.0482 16.3698 39.3086 15.25H39.2695L36.8867 14.8398C36.6914 14.0456 36.5612 13.388 36.4961 12.8672C36.431 12.3333 36.4049 11.7214 36.418 11.0312C36.6784 10.7057 37.1406 10.3607 37.8047 9.99609C38.4818 9.61849 39.2565 9.30599 40.1289 9.05859C41.0013 8.8112 41.8607 8.6875 42.707 8.6875C45.207 8.6875 46.737 9.65104 47.2969 11.5781C47.4401 12.0599 47.5117 12.5352 47.5117 13.0039C47.5117 14.3971 46.9323 16.1615 45.7734 18.2969C44.6146 20.4323 43.2799 22.5091 41.7695 24.5273C40.2591 26.5456 38.9635 28.1406 37.8828 29.3125C37.6094 30.9922 37.362 32.3073 37.1406 33.2578L37.1797 33.2969L40.0703 32.0859C41.0859 32.9583 41.6784 34.1172 41.8477 35.5625C41.8477 35.6406 41.5352 36.0117 40.9102 36.6758C40.2982 37.3398 39.4974 37.9583 38.5078 38.5312C37.5182 39.0911 36.4049 39.3711 35.168 39.3711C33.8919 39.3711 32.8568 39.013 32.0625 38.2969C31.2682 37.5807 30.8776 36.3568 30.8906 34.625L30.9297 29.7812ZM48.4883 27.457C48.4883 25.1003 48.8659 23.056 49.6211 21.3242C50.3763 19.5924 51.5352 18.2513 53.0977 17.3008C54.6602 16.3372 56.6198 15.8555 58.9766 15.8555C61.5807 15.8555 63.625 16.3438 65.1094 17.3203C66.5938 18.2839 67.6289 19.625 68.2148 21.3438C68.8138 23.0625 69.1133 25.1654 69.1133 27.6523C69.1133 29.9049 68.7161 31.9167 67.9219 33.6875C67.1406 35.4453 65.9557 36.8385 64.3672 37.8672C62.7917 38.8828 60.8581 39.3906 58.5664 39.3906C55.0247 39.3906 52.4596 38.3034 50.8711 36.1289C49.2826 33.9414 48.4883 31.0508 48.4883 27.457ZM59.3672 33.668C60.0312 33.668 60.4349 33.6159 60.5781 33.5117C60.8776 32.9909 61.1055 32.2552 61.2617 31.3047C61.418 30.3542 61.4961 29.3255 61.4961 28.2188C61.4961 27.2031 61.431 26.2526 61.3008 25.3672C61.1706 24.4688 60.9883 23.7656 60.7539 23.2578C60.6107 23.0885 60.3242 22.9648 59.8945 22.8867C59.4648 22.7956 58.9961 22.75 58.4883 22.75C57.8242 22.75 57.3685 22.8216 57.1211 22.9648C56.4701 24.0846 56.1445 25.6406 56.1445 27.6328C56.1445 28.5703 56.2161 29.5273 56.3594 30.5039C56.5026 31.4805 56.6849 32.3659 56.9062 33.1602C57.0625 33.3294 57.3815 33.4596 57.8633 33.5508C58.3451 33.6289 58.8464 33.668 59.3672 33.668ZM71.5547 22.1641C71.3333 21.2135 71.1901 20.5169 71.125 20.0742C71.0599 19.6315 71.0273 18.9609 71.0273 18.0625C71.7956 17.3333 72.6224 16.7865 73.5078 16.4219C74.3932 16.0443 75.3893 15.8555 76.4961 15.8555C79.8555 15.8555 81.5352 17.5417 81.5352 20.9141C81.5352 21.8125 81.4505 22.8542 81.2812 24.0391C81.125 25.224 80.8971 26.7148 80.5977 28.5117C80.5586 28.7461 80.4544 29.3776 80.2852 30.4062C80.1159 31.4349 79.9987 32.2943 79.9336 32.9844C80.1549 33.2188 80.4284 33.3815 80.7539 33.4727C80.9102 33.4727 81.2682 33.1536 81.8281 32.5156C82.401 31.8646 83.013 31.0768 83.6641 30.1523C84.3151 29.2279 84.849 28.375 85.2656 27.5938C85.3698 25.7318 85.513 24.0195 85.6953 22.457L83.6445 22.0469C83.4753 21.3958 83.3581 20.8229 83.293 20.3281C83.2279 19.8333 83.1953 19.306 83.1953 18.7461L83.2148 18.1992C83.6836 17.6003 84.3867 17.0599 85.3242 16.5781C86.2617 16.0964 87.3359 15.8555 88.5469 15.8555C91.9062 15.8555 93.5859 17.5417 93.5859 20.9141C93.5859 22.2812 93.3581 24.0846 92.9023 26.3242C92.4466 28.5508 91.9128 30.8034 91.3008 33.082L93.5469 32.1055C93.9245 32.5091 94.2565 33.0039 94.543 33.5898C94.8424 34.1628 95.0312 34.8268 95.1094 35.582C94.9271 35.9727 94.5299 36.474 93.918 37.0859C93.306 37.6849 92.5573 38.2188 91.6719 38.6875C90.7865 39.1562 89.862 39.3906 88.8984 39.3906C87.8177 39.3906 86.9844 39.0716 86.3984 38.4336C85.8255 37.7826 85.5391 36.9557 85.5391 35.9531C85.5391 35.6927 85.6042 35.1589 85.7344 34.3516C85.8776 33.5443 85.9948 32.9844 86.0859 32.6719L85.5391 32.4961C84.888 34.7747 83.9896 36.4935 82.8438 37.6523C81.7109 38.8112 80.4154 39.3906 78.957 39.3906C76.8607 39.3906 75.3828 38.7005 74.5234 37.3203C73.6641 35.9271 73.2344 34.2018 73.2344 32.1445C73.2344 28.2773 73.3646 25.0482 73.625 22.457L71.5547 22.1641Z"/>
</mask>
<path d="M30.9297 29.7812C30.2917 28.7917 29.5234 27.4635 28.625 25.7969C27.7396 24.1302 26.8672 22.3529 26.0078 20.4648C25.1615 18.5768 24.4974 16.8516 24.0156 15.2891L21.0469 14.8789C20.8516 14.0846 20.7214 13.4271 20.6562 12.9062C20.5911 12.3724 20.5651 11.7604 20.5781 11.0703C20.8385 10.7448 21.3073 10.3997 21.9844 10.0352C22.6484 9.65755 23.4167 9.34505 24.2891 9.09766C25.1615 8.85026 26.0208 8.72656 26.8672 8.72656C29.2891 8.72656 30.806 9.63802 31.418 11.4609C31.6654 12.0339 32.043 13.082 32.5508 14.6055C33.0716 16.1159 33.599 17.8216 34.1328 19.7227C34.6667 21.6237 35.0833 23.4141 35.3828 25.0938C36.1771 23.5052 36.9648 21.7474 37.7461 19.8203C38.5273 17.8932 39.0482 16.3698 39.3086 15.25H39.2695L36.8867 14.8398C36.6914 14.0456 36.5612 13.388 36.4961 12.8672C36.431 12.3333 36.4049 11.7214 36.418 11.0312C36.6784 10.7057 37.1406 10.3607 37.8047 9.99609C38.4818 9.61849 39.2565 9.30599 40.1289 9.05859C41.0013 8.8112 41.8607 8.6875 42.707 8.6875C45.207 8.6875 46.737 9.65104 47.2969 11.5781C47.4401 12.0599 47.5117 12.5352 47.5117 13.0039C47.5117 14.3971 46.9323 16.1615 45.7734 18.2969C44.6146 20.4323 43.2799 22.5091 41.7695 24.5273C40.2591 26.5456 38.9635 28.1406 37.8828 29.3125C37.6094 30.9922 37.362 32.3073 37.1406 33.2578L37.1797 33.2969L40.0703 32.0859C41.0859 32.9583 41.6784 34.1172 41.8477 35.5625C41.8477 35.6406 41.5352 36.0117 40.9102 36.6758C40.2982 37.3398 39.4974 37.9583 38.5078 38.5312C37.5182 39.0911 36.4049 39.3711 35.168 39.3711C33.8919 39.3711 32.8568 39.013 32.0625 38.2969C31.2682 37.5807 30.8776 36.3568 30.8906 34.625L30.9297 29.7812ZM48.4883 27.457C48.4883 25.1003 48.8659 23.056 49.6211 21.3242C50.3763 19.5924 51.5352 18.2513 53.0977 17.3008C54.6602 16.3372 56.6198 15.8555 58.9766 15.8555C61.5807 15.8555 63.625 16.3438 65.1094 17.3203C66.5938 18.2839 67.6289 19.625 68.2148 21.3438C68.8138 23.0625 69.1133 25.1654 69.1133 27.6523C69.1133 29.9049 68.7161 31.9167 67.9219 33.6875C67.1406 35.4453 65.9557 36.8385 64.3672 37.8672C62.7917 38.8828 60.8581 39.3906 58.5664 39.3906C55.0247 39.3906 52.4596 38.3034 50.8711 36.1289C49.2826 33.9414 48.4883 31.0508 48.4883 27.457ZM59.3672 33.668C60.0312 33.668 60.4349 33.6159 60.5781 33.5117C60.8776 32.9909 61.1055 32.2552 61.2617 31.3047C61.418 30.3542 61.4961 29.3255 61.4961 28.2188C61.4961 27.2031 61.431 26.2526 61.3008 25.3672C61.1706 24.4688 60.9883 23.7656 60.7539 23.2578C60.6107 23.0885 60.3242 22.9648 59.8945 22.8867C59.4648 22.7956 58.9961 22.75 58.4883 22.75C57.8242 22.75 57.3685 22.8216 57.1211 22.9648C56.4701 24.0846 56.1445 25.6406 56.1445 27.6328C56.1445 28.5703 56.2161 29.5273 56.3594 30.5039C56.5026 31.4805 56.6849 32.3659 56.9062 33.1602C57.0625 33.3294 57.3815 33.4596 57.8633 33.5508C58.3451 33.6289 58.8464 33.668 59.3672 33.668ZM71.5547 22.1641C71.3333 21.2135 71.1901 20.5169 71.125 20.0742C71.0599 19.6315 71.0273 18.9609 71.0273 18.0625C71.7956 17.3333 72.6224 16.7865 73.5078 16.4219C74.3932 16.0443 75.3893 15.8555 76.4961 15.8555C79.8555 15.8555 81.5352 17.5417 81.5352 20.9141C81.5352 21.8125 81.4505 22.8542 81.2812 24.0391C81.125 25.224 80.8971 26.7148 80.5977 28.5117C80.5586 28.7461 80.4544 29.3776 80.2852 30.4062C80.1159 31.4349 79.9987 32.2943 79.9336 32.9844C80.1549 33.2188 80.4284 33.3815 80.7539 33.4727C80.9102 33.4727 81.2682 33.1536 81.8281 32.5156C82.401 31.8646 83.013 31.0768 83.6641 30.1523C84.3151 29.2279 84.849 28.375 85.2656 27.5938C85.3698 25.7318 85.513 24.0195 85.6953 22.457L83.6445 22.0469C83.4753 21.3958 83.3581 20.8229 83.293 20.3281C83.2279 19.8333 83.1953 19.306 83.1953 18.7461L83.2148 18.1992C83.6836 17.6003 84.3867 17.0599 85.3242 16.5781C86.2617 16.0964 87.3359 15.8555 88.5469 15.8555C91.9062 15.8555 93.5859 17.5417 93.5859 20.9141C93.5859 22.2812 93.3581 24.0846 92.9023 26.3242C92.4466 28.5508 91.9128 30.8034 91.3008 33.082L93.5469 32.1055C93.9245 32.5091 94.2565 33.0039 94.543 33.5898C94.8424 34.1628 95.0312 34.8268 95.1094 35.582C94.9271 35.9727 94.5299 36.474 93.918 37.0859C93.306 37.6849 92.5573 38.2188 91.6719 38.6875C90.7865 39.1562 89.862 39.3906 88.8984 39.3906C87.8177 39.3906 86.9844 39.0716 86.3984 38.4336C85.8255 37.7826 85.5391 36.9557 85.5391 35.9531C85.5391 35.6927 85.6042 35.1589 85.7344 34.3516C85.8776 33.5443 85.9948 32.9844 86.0859 32.6719L85.5391 32.4961C84.888 34.7747 83.9896 36.4935 82.8438 37.6523C81.7109 38.8112 80.4154 39.3906 78.957 39.3906C76.8607 39.3906 75.3828 38.7005 74.5234 37.3203C73.6641 35.9271 73.2344 34.2018 73.2344 32.1445C73.2344 28.2773 73.3646 25.0482 73.625 22.457L71.5547 22.1641Z" fill="white"/>
<path d="M30.9297 29.7812L35.9295 29.8216L35.9416 28.3276L35.132 27.0719L30.9297 29.7812ZM28.625 25.7969L24.2094 28.1427L24.2165 28.1561L24.2237 28.1694L28.625 25.7969ZM26.0078 20.4648L21.4453 22.5101L21.4511 22.5232L21.4571 22.5362L26.0078 20.4648ZM24.0156 15.2891L28.7937 13.8158L27.8552 10.772L24.6999 10.3361L24.0156 15.2891ZM21.0469 14.8789L16.1915 16.0728L17.0017 19.3675L20.3626 19.8319L21.0469 14.8789ZM20.6562 12.9062L15.693 13.5115L15.6939 13.519L15.6949 13.5264L20.6562 12.9062ZM20.5781 11.0703L16.6738 7.94684L15.6111 9.27518L15.579 10.976L20.5781 11.0703ZM21.9844 10.0352L24.3549 14.4375L24.4057 14.4101L24.4559 14.3816L21.9844 10.0352ZM31.418 11.4609L26.6779 13.0522L26.7446 13.2508L26.8277 13.4431L31.418 11.4609ZM32.5508 14.6055L27.8074 16.1866L27.8155 16.2111L27.8239 16.2354L32.5508 14.6055ZM35.3828 25.0938L30.4604 25.9714L33.1084 40.8229L39.8549 27.3298L35.3828 25.0938ZM39.3086 15.25L44.1786 16.3826L45.6048 10.25H39.3086V15.25ZM39.2695 15.25L38.4213 20.1775L38.8423 20.25H39.2695V15.25ZM36.8867 14.8398L32.0314 16.0338L32.8129 19.2121L36.0385 19.7674L36.8867 14.8398ZM36.4961 12.8672L31.5329 13.4725L31.5338 13.4799L31.5347 13.4874L36.4961 12.8672ZM36.418 11.0312L32.5136 7.90777L31.4509 9.23612L31.4189 10.9369L36.418 11.0312ZM37.8047 9.99609L40.211 14.379L40.2255 14.371L40.24 14.3629L37.8047 9.99609ZM47.2969 11.5781L42.4954 12.9731L42.4998 12.9881L42.5042 13.003L47.2969 11.5781ZM45.7734 18.2969L41.3788 15.912L45.7734 18.2969ZM41.7695 24.5273L45.7726 27.5232L41.7695 24.5273ZM37.8828 29.3125L34.2072 25.9228L33.1891 27.0268L32.9478 28.5091L37.8828 29.3125ZM37.1406 33.2578L32.2709 32.1238L31.6409 34.8292L33.6051 36.7933L37.1406 33.2578ZM37.1797 33.2969L33.6442 36.8324L36.0168 39.205L39.1116 37.9086L37.1797 33.2969ZM40.0703 32.0859L43.3283 28.2931L40.9862 26.2813L38.1384 27.4742L40.0703 32.0859ZM41.8477 35.5625H46.8477V35.2707L46.8137 34.9809L41.8477 35.5625ZM40.9102 36.6758L37.2692 33.249L37.2512 33.2681L37.2334 33.2874L40.9102 36.6758ZM38.5078 38.5312L40.97 42.883L40.9916 42.8708L41.013 42.8584L38.5078 38.5312ZM30.8906 34.625L25.8908 34.5847L25.8908 34.5874L30.8906 34.625ZM35.132 27.0719C34.5938 26.2371 33.8951 25.036 33.0263 23.4243L24.2237 28.1694C25.1518 29.8911 25.9895 31.3462 26.7274 32.4906L35.132 27.0719ZM33.0406 23.4511C32.2074 21.8828 31.3798 20.1976 30.5586 18.3935L21.4571 22.5362C22.3546 24.5081 23.2717 26.3776 24.2094 28.1427L33.0406 23.4511ZM30.5704 18.4196C29.7867 16.6714 29.202 15.1403 28.7937 13.8158L19.2376 16.7623C19.7927 18.5628 20.5362 20.4823 21.4453 22.5101L30.5704 18.4196ZM24.6999 10.3361L21.7312 9.92595L20.3626 19.8319L23.3313 20.242L24.6999 10.3361ZM25.9022 13.685C25.7308 12.988 25.6492 12.5385 25.6176 12.2861L15.6949 13.5264C15.7935 14.3157 15.9723 15.1813 16.1915 16.0728L25.9022 13.685ZM25.6195 12.301C25.5893 12.0534 25.5675 11.6828 25.5772 11.1646L15.579 10.976C15.5628 11.838 15.593 12.6914 15.693 13.5115L25.6195 12.301ZM24.4825 14.1938C24.3625 14.3438 24.2594 14.4455 24.1971 14.5028C24.1337 14.5611 24.0937 14.5907 24.0891 14.5941C24.0837 14.5981 24.1012 14.5849 24.1482 14.5557C24.1947 14.527 24.2624 14.4873 24.3549 14.4375L19.6139 5.6328C18.7603 6.09243 17.5729 6.82288 16.6738 7.94684L24.4825 14.1938ZM24.4559 14.3816C24.713 14.2354 25.0975 14.0655 25.6532 13.908L22.9249 4.28734C21.7358 4.62456 20.5839 5.0797 19.5129 5.68871L24.4559 14.3816ZM25.6532 13.908C26.1134 13.7775 26.5138 13.7266 26.8672 13.7266V3.72656C25.5278 3.72656 24.2095 3.92305 22.9249 4.28734L25.6532 13.908ZM26.8672 13.7266C27.4923 13.7266 27.5011 13.8492 27.2461 13.696C27.1093 13.6138 26.9642 13.4906 26.8441 13.3363C26.7278 13.1869 26.6849 13.0729 26.6779 13.0522L36.158 9.86965C35.5089 7.93626 34.2651 6.24707 32.3965 5.12432C30.6245 4.05964 28.664 3.72656 26.8672 3.72656V13.7266ZM26.8277 13.4431C26.9793 13.7942 27.2961 14.6529 27.8074 16.1866L37.2942 13.0243C36.7898 11.5112 36.3515 10.2735 36.0083 9.47876L26.8277 13.4431ZM27.8239 16.2354C28.3067 17.6356 28.8056 19.2462 29.319 21.0745L38.9466 18.3708C38.3923 16.3971 37.8365 14.5961 37.2776 12.9755L27.8239 16.2354ZM29.319 21.0745C29.8157 22.843 30.1934 24.4739 30.4604 25.9714L40.3052 24.2161C39.9732 22.3542 39.5177 20.4044 38.9466 18.3708L29.319 21.0745ZM39.8549 27.3298C40.7166 25.6065 41.5574 23.7273 42.3798 21.6988L33.1124 17.9418C32.3723 19.7675 31.6376 21.4039 30.9107 22.8577L39.8549 27.3298ZM42.3798 21.6988C43.1943 19.6898 43.8297 17.8828 44.1786 16.3826L34.4386 14.1174C34.2666 14.8568 33.8604 16.0966 33.1124 17.9418L42.3798 21.6988ZM39.3086 10.25H39.2695V20.25H39.3086V10.25ZM40.1177 10.3225L37.7349 9.91231L36.0385 19.7674L38.4213 20.1775L40.1177 10.3225ZM41.7421 13.6459C41.5707 12.9489 41.489 12.4994 41.4575 12.247L31.5347 13.4874C31.6334 14.2766 31.8121 15.1422 32.0314 16.0338L41.7421 13.6459ZM41.4593 12.2619C41.4291 12.0144 41.4073 11.6438 41.4171 11.1256L31.4189 10.9369C31.4026 11.7989 31.4328 12.6523 31.5329 13.4725L41.4593 12.2619ZM40.3223 14.1547C40.2084 14.2971 40.1111 14.3939 40.0521 14.4486C39.9922 14.5041 39.9547 14.5322 39.9509 14.5351C39.9464 14.5385 39.964 14.5251 40.0098 14.4962C40.0552 14.4676 40.1211 14.4283 40.211 14.379L35.3984 5.6132C34.5512 6.07831 33.3954 6.80552 32.5136 7.90777L40.3223 14.1547ZM40.24 14.3629C40.527 14.2029 40.9324 14.0279 41.493 13.8689L38.7648 4.24827C37.5806 4.5841 36.4365 5.03412 35.3693 5.62927L40.24 14.3629ZM41.493 13.8689C41.9532 13.7384 42.3537 13.6875 42.707 13.6875V3.6875C41.3677 3.6875 40.0494 3.88398 38.7648 4.24827L41.493 13.8689ZM42.707 13.6875C43.3612 13.6875 43.348 13.8193 43.0649 13.641C42.9136 13.5457 42.7621 13.4075 42.6431 13.2429C42.5879 13.1666 42.5505 13.0994 42.5266 13.0491C42.503 12.9996 42.495 12.9717 42.4954 12.9731L52.0983 10.1831C51.5174 8.18366 50.3105 6.38628 48.394 5.17929C46.5811 4.03752 44.5528 3.6875 42.707 3.6875V13.6875ZM42.5042 13.003C42.5126 13.0312 42.5142 13.0433 42.5138 13.0409C42.5137 13.0399 42.5131 13.0359 42.5126 13.0293C42.5121 13.0227 42.5117 13.0142 42.5117 13.0039H52.5117C52.5117 12.0191 52.3604 11.0642 52.0896 10.1533L42.5042 13.003ZM42.5117 13.0039C42.5117 13.1559 42.3961 14.0375 41.3788 15.912L50.168 20.6817C51.4684 18.2855 52.5117 15.6384 52.5117 13.0039H42.5117ZM41.3788 15.912C40.3398 17.8267 39.1371 19.6999 37.7664 21.5315L45.7726 27.5232C47.4227 25.3183 48.8894 23.0378 50.168 20.6817L41.3788 15.912ZM37.7664 21.5315C36.307 23.4816 35.1257 24.9268 34.2072 25.9228L41.5584 32.7022C42.8013 31.3544 44.2112 29.6095 45.7726 27.5232L37.7664 21.5315ZM32.9478 28.5091C32.6813 30.1462 32.4548 31.334 32.2709 32.1238L42.0103 34.3919C42.2691 33.2805 42.5375 31.8381 42.8178 30.1159L32.9478 28.5091ZM33.6051 36.7933L33.6442 36.8324L40.7152 29.7613L40.6762 29.7223L33.6051 36.7933ZM39.1116 37.9086L42.0022 36.6976L38.1384 27.4742L35.2478 28.6852L39.1116 37.9086ZM36.8124 35.8788C36.8321 35.8958 36.8362 35.9022 36.8325 35.8975C36.831 35.8957 36.8291 35.8931 36.8272 35.8901C36.8253 35.8872 36.8244 35.8853 36.8244 35.8854C36.8244 35.8854 36.8262 35.8888 36.8291 35.8963C36.8321 35.9038 36.8368 35.9167 36.8424 35.9359C36.8536 35.974 36.8695 36.0411 36.8816 36.1441L46.8137 34.9809C46.5122 32.4066 45.3826 30.0577 43.3283 28.2931L36.8124 35.8788ZM36.8477 35.5625C36.8477 34.8037 37.0228 34.2275 37.1107 33.9693C37.2127 33.6697 37.323 33.442 37.3899 33.3123C37.522 33.0564 37.6442 32.8787 37.6845 32.8207C37.7753 32.6903 37.8309 32.6287 37.7887 32.6787C37.7225 32.7574 37.563 32.9367 37.2692 33.249L44.5512 40.1026C44.8823 39.7508 45.1916 39.4125 45.4378 39.1201C45.5519 38.9846 45.7247 38.7741 45.8936 38.5313C45.973 38.4172 46.1245 38.1925 46.2761 37.8987C46.3171 37.8194 46.8477 36.8719 46.8477 35.5625H36.8477ZM37.2334 33.2874C37.0392 33.4981 36.6669 33.8196 36.0026 34.2041L41.013 42.8584C42.3279 42.0971 43.5572 41.1816 44.5869 40.0642L37.2334 33.2874ZM36.0456 34.1795C35.8722 34.2776 35.6201 34.3711 35.168 34.3711V44.3711C37.1898 44.3711 39.1642 43.9047 40.97 42.883L36.0456 34.1795ZM35.168 34.3711C34.9964 34.3711 34.9822 34.3472 35.0691 34.3773C35.1121 34.3921 35.17 34.417 35.2351 34.4552C35.3005 34.4936 35.3601 34.5378 35.4107 34.5834L28.7143 42.0103C30.5986 43.7093 32.9074 44.3711 35.168 44.3711V34.3711ZM35.4107 34.5834C35.592 34.747 35.7222 34.9153 35.8096 35.0585C35.8946 35.1977 35.9288 35.2956 35.9371 35.3216C35.9449 35.346 35.9309 35.31 35.9162 35.195C35.9016 35.0804 35.8887 34.9062 35.8905 34.6626L25.8908 34.5874C25.8735 36.8849 26.3529 39.8812 28.7143 42.0103L35.4107 34.5834ZM35.8905 34.6653L35.9295 29.8216L25.9299 29.7409L25.8908 34.5847L35.8905 34.6653ZM53.0977 17.3008L55.6963 21.5725L55.7092 21.5646L55.7221 21.5566L53.0977 17.3008ZM65.1094 17.3203L62.3613 21.4974L62.3741 21.5058L62.387 21.5142L65.1094 17.3203ZM68.2148 21.3438L63.4823 22.9571L63.4878 22.9731L63.4933 22.9891L68.2148 21.3438ZM67.9219 33.6875L63.3598 31.6413L63.3563 31.649L63.3528 31.6568L67.9219 33.6875ZM64.3672 37.8672L67.0762 42.0697L67.0849 42.0641L64.3672 37.8672ZM50.8711 36.1289L46.8253 39.0669L46.8295 39.0726L46.8337 39.0784L50.8711 36.1289ZM60.5781 33.5117L63.519 37.5554L64.3812 36.9283L64.9127 36.0041L60.5781 33.5117ZM61.3008 25.3672L56.3525 26.0843L56.354 26.0947L61.3008 25.3672ZM60.7539 23.2578L65.2937 21.1625L65.0093 20.5462L64.5708 20.0281L60.7539 23.2578ZM59.8945 22.8867L58.857 27.7779L58.9284 27.793L59.0001 27.8061L59.8945 22.8867ZM57.1211 22.9648L54.6159 18.6377L53.4663 19.3033L52.7986 20.4517L57.1211 22.9648ZM56.9062 33.1602L52.0898 34.5024L52.4137 35.6649L53.2322 36.5516L56.9062 33.1602ZM57.8633 33.5508L56.9338 38.4636L56.9982 38.4758L57.0629 38.4863L57.8633 33.5508ZM53.4883 27.457C53.4883 25.6231 53.783 24.2888 54.2042 23.3229L45.0379 19.3255C43.9487 21.8232 43.4883 24.5774 43.4883 27.457H53.4883ZM54.2042 23.3229C54.5623 22.5019 55.044 21.9692 55.6963 21.5725L50.4991 13.0291C48.0263 14.5334 46.1903 16.683 45.0379 19.3255L54.2042 23.3229ZM55.7221 21.5566C56.3008 21.1997 57.2875 20.8555 58.9766 20.8555V10.8555C55.9521 10.8555 53.0195 11.4747 50.4732 13.0449L55.7221 21.5566ZM58.9766 20.8555C61.034 20.8555 61.9902 21.2533 62.3613 21.4974L67.8575 13.1432C65.2598 11.4342 62.1275 10.8555 58.9766 10.8555V20.8555ZM62.387 21.5142C62.9047 21.8503 63.2479 22.2696 63.4823 22.9571L72.9474 19.7304C72.0099 16.9804 70.2828 14.7174 67.8317 13.1264L62.387 21.5142ZM63.4933 22.9891C63.8542 24.0246 64.1133 25.5347 64.1133 27.6523H74.1133C74.1133 24.796 73.7734 22.1004 72.9364 19.6984L63.4933 22.9891ZM64.1133 27.6523C64.1133 29.3121 63.8226 30.6093 63.3598 31.6413L72.484 35.7337C73.6097 33.2241 74.1133 30.4978 74.1133 27.6523H64.1133ZM63.3528 31.6568C62.9586 32.5437 62.4098 33.178 61.6495 33.6703L67.0849 42.0641C69.5017 40.4991 71.3226 38.3469 72.4909 35.7182L63.3528 31.6568ZM61.6581 33.6647C61.0537 34.0543 60.1122 34.3906 58.5664 34.3906V44.3906C61.604 44.3906 64.5296 43.7113 67.0762 42.0697L61.6581 33.6647ZM58.5664 34.3906C56.0699 34.3906 55.2721 33.6771 54.9085 33.1794L46.8337 39.0784C49.6472 42.9297 53.9796 44.3906 58.5664 44.3906V34.3906ZM54.9169 33.1909C54.1241 32.0993 53.4883 30.3395 53.4883 27.457H43.4883C43.4883 31.762 44.441 35.7836 46.8253 39.0669L54.9169 33.1909ZM59.3672 38.668C59.7978 38.668 60.3039 38.6528 60.8078 38.5878C61.0241 38.5599 62.3216 38.4262 63.519 37.5554L57.6373 29.468C57.98 29.2188 58.2916 29.0623 58.5081 28.9676C58.7301 28.8704 58.9182 28.8096 59.0483 28.7725C59.2984 28.701 59.4772 28.6766 59.5281 28.67C59.6284 28.6571 59.6006 28.668 59.3672 28.668V38.668ZM64.9127 36.0041C65.6365 34.7451 65.9935 33.3447 66.1955 32.1157L56.3279 30.4937C56.2782 30.7962 56.2293 30.9873 56.1975 31.09C56.1639 31.1983 56.1661 31.1542 56.2436 31.0194L64.9127 36.0041ZM66.1955 32.1157C66.4018 30.861 66.4961 29.558 66.4961 28.2188H56.4961C56.4961 29.093 56.4342 29.8473 56.3279 30.4937L66.1955 32.1157ZM66.4961 28.2188C66.4961 26.9915 66.4176 25.7956 66.2476 24.6397L56.354 26.0947C56.4444 26.7096 56.4961 27.4147 56.4961 28.2188H66.4961ZM66.2491 24.65C66.0871 23.5322 65.8157 22.2935 65.2937 21.1625L56.2141 25.3531C56.1758 25.2702 56.1893 25.2775 56.2264 25.4208C56.262 25.5581 56.3075 25.7736 56.3525 26.0843L66.2491 24.65ZM64.5708 20.0281C63.2333 18.4474 61.417 18.0816 60.789 17.9674L59.0001 27.8061C58.9773 27.8019 58.7627 27.7637 58.4495 27.6284C58.1547 27.5011 57.5243 27.1817 56.937 26.4875L64.5708 20.0281ZM60.9321 17.9955C60.1133 17.8219 59.292 17.75 58.4883 17.75V27.75C58.7002 27.75 58.8164 27.7693 58.857 27.7779L60.9321 17.9955ZM58.4883 17.75C57.9989 17.75 57.4414 17.7749 56.8722 17.8643C56.3629 17.9444 55.5 18.1259 54.6159 18.6377L59.6263 27.292C59.2805 27.4922 58.9854 27.598 58.8068 27.6526C58.6223 27.709 58.4869 27.7333 58.4246 27.7431C58.3112 27.7609 58.3136 27.75 58.4883 27.75V17.75ZM52.7986 20.4517C51.5268 22.6392 51.1445 25.1934 51.1445 27.6328H61.1445C61.1445 26.0878 61.4133 25.5301 61.4436 25.4779L52.7986 20.4517ZM51.1445 27.6328C51.1445 28.8255 51.2357 30.0252 51.4123 31.2295L61.3064 29.7783C61.1966 29.0295 61.1445 28.3151 61.1445 27.6328H51.1445ZM51.4123 31.2295C51.5803 32.375 51.8023 33.4707 52.0898 34.5024L61.7227 31.8179C61.5675 31.261 61.4249 30.5859 61.3064 29.7783L51.4123 31.2295ZM53.2322 36.5516C54.5788 38.0103 56.3611 38.3553 56.9338 38.4636L58.7927 28.6379C58.7548 28.6308 58.9025 28.6536 59.1522 28.7555C59.3641 28.842 59.9772 29.1154 60.5803 29.7688L53.2322 36.5516ZM57.0629 38.4863C57.8263 38.6101 58.5961 38.668 59.3672 38.668V28.668C59.0967 28.668 58.8638 28.6477 58.6636 28.6153L57.0629 38.4863ZM71.5547 22.1641L66.685 23.2981L67.462 26.6347L70.8541 27.1147L71.5547 22.1641ZM71.0273 18.0625L67.5852 14.436L66.0273 15.9146V18.0625H71.0273ZM73.5078 16.4219L75.4116 21.0453L75.4405 21.0334L75.4692 21.0211L73.5078 16.4219ZM81.2812 24.0391L76.3315 23.332L76.3277 23.3586L76.3242 23.3854L81.2812 24.0391ZM80.5977 28.5117L75.6657 27.6897L75.6657 27.6897L80.5977 28.5117ZM80.2852 30.4062L85.2188 31.2181L80.2852 30.4062ZM79.9336 32.9844L74.9557 32.5148L74.7429 34.7704L76.2985 36.4175L79.9336 32.9844ZM80.7539 33.4727L79.4058 38.2875L80.0671 38.4727H80.7539V33.4727ZM81.8281 32.5156L78.0746 29.2125L78.07 29.2177L81.8281 32.5156ZM85.2656 27.5938L89.6774 29.9467L90.1962 28.9739L90.2578 27.873L85.2656 27.5938ZM85.6953 22.457L90.6616 23.0364L91.1958 18.4581L86.6759 17.5541L85.6953 22.457ZM83.6445 22.0469L78.8054 23.305L79.5934 26.3357L82.664 26.9498L83.6445 22.0469ZM83.1953 18.7461L78.1985 18.5676L78.1953 18.6568V18.7461H83.1953ZM83.2148 18.1992L79.2773 15.1177L78.276 16.3971L78.218 18.0208L83.2148 18.1992ZM92.9023 26.3242L97.8008 27.3268L97.8019 27.3212L92.9023 26.3242ZM91.3008 33.082L86.4719 31.7851L83.7812 41.8035L93.2944 37.6674L91.3008 33.082ZM93.5469 32.1055L97.1982 28.6897L94.7883 26.1136L91.5532 27.5201L93.5469 32.1055ZM94.543 33.5898L90.051 35.7859L90.0806 35.8464L90.1118 35.9061L94.543 33.5898ZM95.1094 35.582L99.6403 37.6965L100.225 36.4432L100.083 35.0675L95.1094 35.582ZM93.918 37.0859L97.4153 40.6593L97.4345 40.6405L97.4535 40.6215L93.918 37.0859ZM86.3984 38.4336L82.6449 41.7367L82.6799 41.7766L82.7158 41.8156L86.3984 38.4336ZM85.7344 34.3516L80.8113 33.4781L80.8044 33.5167L80.7982 33.5554L85.7344 34.3516ZM86.0859 32.6719L90.8859 34.0719L92.2484 29.4007L87.616 27.9117L86.0859 32.6719ZM85.5391 32.4961L87.0691 27.736L82.1507 26.155L80.7314 31.1225L85.5391 32.4961ZM82.8438 37.6523L79.2883 34.1368L79.2783 34.147L79.2683 34.1572L82.8438 37.6523ZM74.5234 37.3203L70.2679 39.9452L70.2734 39.9542L70.279 39.9631L74.5234 37.3203ZM73.625 22.457L78.5999 22.957L79.0801 18.1792L74.3256 17.5064L73.625 22.457ZM76.4244 21.03C76.2067 20.0954 76.1047 19.5703 76.0718 19.3467L66.1782 20.8017C66.2755 21.4636 66.4599 22.3316 66.685 23.2981L76.4244 21.03ZM76.0718 19.3467C76.0727 19.3527 76.0688 19.3272 76.0631 19.2625C76.0576 19.1994 76.0515 19.112 76.0459 18.9968C76.0346 18.764 76.0273 18.456 76.0273 18.0625H66.0273C66.0273 19.0132 66.0578 19.9832 66.1782 20.8017L76.0718 19.3467ZM74.4695 21.689C74.8381 21.3391 75.1534 21.1516 75.4116 21.0453L71.6041 11.7985C70.0914 12.4214 68.753 13.3275 67.5852 14.436L74.4695 21.689ZM75.4692 21.0211C75.6485 20.9446 75.9632 20.8555 76.4961 20.8555V10.8555C74.8154 10.8555 73.1379 11.1439 71.5464 11.8227L75.4692 21.0211ZM76.4961 20.8555C76.7088 20.8555 76.8632 20.8689 76.9673 20.8839C77.0711 20.8987 77.1156 20.9137 77.114 20.9132C77.1109 20.9122 77.0628 20.8955 76.987 20.8499C76.9495 20.8274 76.9078 20.7992 76.8637 20.7647C76.8195 20.7302 76.7755 20.6914 76.733 20.6488C76.6906 20.6062 76.6522 20.5622 76.6181 20.5183C76.5842 20.4745 76.5566 20.4333 76.5347 20.3966C76.5129 20.3601 76.4979 20.3301 76.4882 20.3088C76.4786 20.2877 76.4749 20.2762 76.475 20.2766C76.4755 20.278 76.491 20.3258 76.5063 20.4329C76.5216 20.5404 76.5352 20.6981 76.5352 20.9141H86.5352C86.5352 18.462 85.9218 15.7036 83.8178 13.5914C81.7102 11.4757 78.9514 10.8555 76.4961 10.8555V20.8555ZM76.5352 20.9141C76.5352 21.5131 76.4776 22.3095 76.3315 23.332L86.231 24.7462C86.4235 23.3988 86.5352 22.1119 86.5352 20.9141H76.5352ZM76.3242 23.3854C76.1781 24.4931 75.9601 25.9231 75.6657 27.6897L85.5296 29.3337C85.8342 27.5065 86.0719 25.9548 86.2383 24.6927L76.3242 23.3854ZM75.6657 27.6897C75.6256 27.9304 75.5204 28.5679 75.3515 29.5944L85.2188 31.2181C85.3884 30.1873 85.4916 29.5618 85.5296 29.3337L75.6657 27.6897ZM75.3515 29.5944C75.1718 30.6862 75.0355 31.6686 74.9557 32.5148L84.9115 33.454C84.9619 32.92 85.0599 32.1836 85.2188 31.2181L75.3515 29.5944ZM76.2985 36.4175C77.1736 37.344 78.251 37.9642 79.4058 38.2875L82.1021 28.6578C82.6057 28.7989 83.1363 29.0935 83.5687 29.5513L76.2985 36.4175ZM80.7539 38.4727C82.2518 38.4727 83.3068 37.8093 83.5444 37.6619C83.952 37.4091 84.2701 37.141 84.4657 36.9667C84.8709 36.6057 85.257 36.1887 85.5863 35.8136L78.07 29.2177C77.8393 29.4805 77.7665 29.5421 77.8136 29.5001C77.8302 29.4853 77.9945 29.3369 78.2735 29.1638C78.4174 29.0745 78.6735 28.9274 79.0221 28.7929C79.3494 28.6666 79.9587 28.4727 80.7539 28.4727V38.4727ZM85.5817 35.8188C86.3031 34.999 87.0265 34.0615 87.7521 33.0312L79.576 27.2735C78.9995 28.0921 78.499 28.7301 78.0746 29.2125L85.5817 35.8188ZM87.7521 33.0312C88.4911 31.9819 89.1415 30.9514 89.6774 29.9467L80.8539 25.2408C80.5564 25.7986 80.1391 26.4738 79.576 27.2735L87.7521 33.0312ZM90.2578 27.873C90.3574 26.0936 90.4929 24.483 90.6616 23.0364L80.729 21.8776C80.5332 23.5561 80.3822 25.37 80.2734 27.3145L90.2578 27.873ZM86.6759 17.5541L84.6251 17.144L82.664 26.9498L84.7147 27.3599L86.6759 17.5541ZM88.4836 20.7887C88.3497 20.2734 88.2811 19.9102 88.2502 19.6759L78.3357 20.9804C78.4351 21.7356 78.6009 22.5183 78.8054 23.305L88.4836 20.7887ZM88.2502 19.6759C88.2168 19.4215 88.1953 19.1137 88.1953 18.7461H78.1953C78.1953 19.4982 78.239 20.2451 78.3357 20.9804L88.2502 19.6759ZM88.1921 18.9246L88.2117 18.3777L78.218 18.0208L78.1985 18.5676L88.1921 18.9246ZM87.1524 21.2808C87.0895 21.3611 87.0682 21.3648 87.1405 21.3092C87.2137 21.253 87.3602 21.1534 87.6096 21.0253L83.0389 12.131C81.6911 12.8236 80.3287 13.7742 79.2773 15.1177L87.1524 21.2808ZM87.6096 21.0253C87.7414 20.9575 88.0119 20.8555 88.5469 20.8555V10.8555C86.6599 10.8555 84.7821 11.2352 83.0389 12.131L87.6096 21.0253ZM88.5469 20.8555C88.7596 20.8555 88.914 20.8689 89.0181 20.8839C89.1218 20.8987 89.1663 20.9137 89.1648 20.9132C89.1617 20.9122 89.1135 20.8955 89.0378 20.8499C89.0003 20.8274 88.9586 20.7992 88.9144 20.7647C88.8703 20.7302 88.8263 20.6914 88.7838 20.6488C88.7413 20.6062 88.7029 20.5622 88.6689 20.5183C88.635 20.4745 88.6074 20.4333 88.5855 20.3966C88.5636 20.3601 88.5486 20.3301 88.539 20.3088C88.5294 20.2877 88.5256 20.2762 88.5258 20.2766C88.5262 20.278 88.5418 20.3258 88.5571 20.4329C88.5724 20.5404 88.5859 20.6981 88.5859 20.9141H98.5859C98.5859 18.462 97.9725 15.7036 95.8685 13.5914C93.761 11.4757 91.0022 10.8555 88.5469 10.8555V20.8555ZM88.5859 20.9141C88.5859 21.7981 88.4298 23.2287 88.0028 25.3272L97.8019 27.3212C98.2864 24.9406 98.5859 22.7644 98.5859 20.9141H88.5859ZM88.0039 25.3216C87.5691 27.4457 87.0587 29.6002 86.4719 31.7851L96.1297 34.3789C96.7668 32.0066 97.3241 29.6558 97.8008 27.3268L88.0039 25.3216ZM93.2944 37.6674L95.5405 36.6908L91.5532 27.5201L89.3072 28.4967L93.2944 37.6674ZM89.8955 35.5213C89.8793 35.504 89.9445 35.568 90.051 35.7859L99.0349 31.3938C98.5685 30.4398 97.9696 29.5143 97.1982 28.6897L89.8955 35.5213ZM90.1118 35.9061C90.0718 35.8294 90.1117 35.8629 90.1359 36.0965L100.083 35.0675C99.9508 33.7907 99.6131 32.4961 98.9741 31.2736L90.1118 35.9061ZM90.5785 33.4676C90.6508 33.3126 90.7132 33.2123 90.7395 33.1719C90.7672 33.1291 90.7765 33.1198 90.7556 33.1462C90.7356 33.1714 90.6963 33.2188 90.6321 33.2897C90.5683 33.3601 90.4861 33.4468 90.3824 33.5504L97.4535 40.6215C98.1483 39.9267 99.0711 38.9161 99.6403 37.6965L90.5785 33.4676ZM90.4207 33.5126C90.2045 33.7242 89.8635 33.9874 89.3324 34.2686L94.0113 43.1064C95.2511 42.4501 96.4075 41.6456 97.4153 40.6593L90.4207 33.5126ZM89.3324 34.2686C89.1381 34.3714 89.0135 34.3906 88.8984 34.3906V44.3906C90.7104 44.3906 92.4348 43.9411 94.0113 43.1064L89.3324 34.2686ZM88.8984 34.3906C88.8437 34.3906 88.99 34.3821 89.2505 34.4818C89.5341 34.5904 89.8345 34.7831 90.0811 35.0516L82.7158 41.8156C84.4736 43.7297 86.7892 44.3906 88.8984 44.3906V34.3906ZM90.152 35.1305C90.2982 35.2966 90.4111 35.4943 90.4784 35.6884C90.542 35.872 90.5391 35.9772 90.5391 35.9531H80.5391C80.5391 37.9701 81.1447 40.032 82.6449 41.7367L90.152 35.1305ZM90.5391 35.9531C90.5391 36.0756 90.5324 36.1414 90.5346 36.115C90.5358 36.0996 90.5403 36.0516 90.5511 35.9627C90.573 35.7832 90.611 35.5168 90.6706 35.1477L80.7982 33.5554C80.681 34.2821 80.5391 35.2208 80.5391 35.9531H90.5391ZM90.6575 35.225C90.7236 34.8522 90.7789 34.564 90.8236 34.3505C90.8723 34.1179 90.8937 34.0454 90.8859 34.0719L81.2859 31.2719C81.11 31.875 80.9529 32.68 80.8113 33.4781L90.6575 35.225ZM87.616 27.9117L87.0691 27.736L84.009 37.2562L84.5559 37.432L87.616 27.9117ZM80.7314 31.1225C80.2134 32.9355 79.6355 33.7857 79.2883 34.1368L86.3992 41.1678C88.3436 39.2013 89.5626 36.6139 90.3467 33.8697L80.7314 31.1225ZM79.2683 34.1572C79.1725 34.2552 79.0997 34.3139 79.0533 34.3471C79.0079 34.3796 78.984 34.3905 78.9811 34.3917C78.9791 34.3927 78.984 34.3905 78.9908 34.3891C78.9972 34.3878 78.9883 34.3906 78.957 34.3906V44.3906C81.9173 44.3906 84.4607 43.151 86.4192 41.1475L79.2683 34.1572ZM78.957 34.3906C78.4389 34.3906 78.3078 34.3034 78.3919 34.3426C78.4386 34.3644 78.5156 34.4092 78.5993 34.4833C78.683 34.5575 78.7384 34.6301 78.7679 34.6775L70.279 39.9631C72.3156 43.234 75.7014 44.3906 78.957 44.3906V34.3906ZM78.779 34.6954C78.517 34.2706 78.2344 33.511 78.2344 32.1445H68.2344C68.2344 34.8927 68.8111 37.5836 70.2679 39.9452L78.779 34.6954ZM78.2344 32.1445C78.2344 28.3727 78.3621 25.3234 78.5999 22.957L68.6501 21.957C68.3671 24.773 68.2344 28.182 68.2344 32.1445H78.2344ZM74.3256 17.5064L72.2553 17.2134L70.8541 27.1147L72.9244 27.4077L74.3256 17.5064Z" fill="black" mask="url(#path-3-outside-2_730_2)"/>
</g>
<defs>
<filter id="filter0_d_730_2" x="16.5586" y="8.6875" width="237.176" height="122.133" filterUnits="userSpaceOnUse" color-interpolation-filters="sRGB">
<feFlood flood-opacity="0" result="BackgroundImageFix"/>
<feColorMatrix in="SourceAlpha" type="matrix" values="0 0 0 0 0 0 0 0 0 0 0 0 0 0 0 0 0 0 127 0" result="hardAlpha"/>
<feOffset dy="8"/>
<feGaussianBlur stdDeviation="2"/>
<feComposite in2="hardAlpha" operator="out"/>
<feColorMatrix type="matrix" values="0 0 0 0 0 0 0 0 0 0 0 0 0 0 0 0 0 0 0.25 0"/>
<feBlend mode="normal" in2="BackgroundImageFix" result="effect1_dropShadow_730_2"/>
<feBlend mode="normal" in="SourceGraphic" in2="effect1_dropShadow_730_2" result="shape"/>
</filter>
</defs>
</svg>
