<svg width="344" height="149" viewBox="0 0 344 149" fill="none" xmlns="http://www.w3.org/2000/svg">
<g filter="url(#filter0_d_730_2)">
<mask id="path-1-outside-1_730_2" maskUnits="userSpaceOnUse" x="57" y="52" width="228" height="72" fill="black">
<rect fill="white" x="57" y="52" width="228" height="72"/>
<path d="M63.5234 108.117C63.5234 105.747 64.0052 103.469 64.9688 101.281C65.4115 101.281 66.1016 101.372 67.0391 101.555C67.9766 101.711 68.9661 101.919 70.0078 102.18C69.8776 96.5807 69.8125 91.112 69.8125 85.7734C69.8125 80.0182 69.9167 75.1094 70.125 71.0469H70.0859L70.125 70.5781L63.7578 69.7578C63.3672 68.1693 63.1068 66.8542 62.9766 65.8125C62.8464 64.7448 62.7943 63.5208 62.8203 62.1406C63.6536 61.2031 64.8776 60.3828 66.4922 59.6797C68.1328 58.9505 69.8906 58.4036 71.7656 58.0391C73.6667 57.6484 75.3984 57.4531 76.9609 57.4531C79.9557 57.4531 82.2865 58.0521 83.9531 59.25C85.6458 60.4219 86.6094 62.2969 86.8438 64.875C86.9219 65.8906 86.9609 66.9974 86.9609 68.1953C86.9609 72.1536 86.6094 76.8411 85.9062 82.2578C85.2031 87.6745 84.2656 94.0026 83.0938 101.242L82.7812 103.273L92.7422 103.82L96.8047 90.8516C98.0286 90.7995 99.4219 90.8906 100.984 91.125C102.573 91.3594 103.94 91.6849 105.086 92.1016C105.555 93.3255 105.984 95.2786 106.375 97.9609C106.792 100.617 107 103.221 107 105.773C107 110.018 106.375 113 105.125 114.719C104.5 115.552 103.628 116.281 102.508 116.906C101.414 117.505 100.255 117.961 99.0312 118.273C97.8333 118.612 96.7526 118.781 95.7891 118.781C94.2526 118.781 92.4557 118.456 90.3984 117.805C88.3411 117.128 86.3229 116.281 84.3438 115.266C82.3646 114.224 80.737 113.182 79.4609 112.141C78.2891 114.172 76.9349 115.747 75.3984 116.867C73.862 117.987 71.9479 118.625 69.6562 118.781C68.5365 118.599 67.5078 118.013 66.5703 117.023C65.6328 116.034 64.8906 114.758 64.3438 113.195C63.7969 111.633 63.5234 109.94 63.5234 108.117ZM109.344 94.9141C109.344 90.2005 110.099 86.112 111.609 82.6484C113.12 79.1849 115.438 76.5026 118.562 74.6016C121.688 72.6745 125.607 71.7109 130.32 71.7109C135.529 71.7109 139.617 72.6875 142.586 74.6406C145.555 76.5677 147.625 79.25 148.797 82.6875C149.995 86.125 150.594 90.3307 150.594 95.3047C150.594 99.8099 149.799 103.833 148.211 107.375C146.648 110.891 144.279 113.677 141.102 115.734C137.951 117.766 134.083 118.781 129.5 118.781C122.417 118.781 117.286 116.607 114.109 112.258C110.932 107.883 109.344 102.102 109.344 94.9141ZM131.102 107.336C132.43 107.336 133.237 107.232 133.523 107.023C134.122 105.982 134.578 104.51 134.891 102.609C135.203 100.708 135.359 98.651 135.359 96.4375C135.359 94.4062 135.229 92.5052 134.969 90.7344C134.708 88.9375 134.344 87.5312 133.875 86.5156C133.589 86.1771 133.016 85.9297 132.156 85.7734C131.297 85.5911 130.359 85.5 129.344 85.5C128.016 85.5 127.104 85.6432 126.609 85.9297C125.307 88.1693 124.656 91.2812 124.656 95.2656C124.656 97.1406 124.799 99.0547 125.086 101.008C125.372 102.961 125.737 104.732 126.18 106.32C126.492 106.659 127.13 106.919 128.094 107.102C129.057 107.258 130.06 107.336 131.102 107.336ZM155.828 94.9141C155.828 90.2005 156.583 86.112 158.094 82.6484C159.604 79.1849 161.922 76.5026 165.047 74.6016C168.172 72.6745 172.091 71.7109 176.805 71.7109C182.013 71.7109 186.102 72.6875 189.07 74.6406C192.039 76.5677 194.109 79.25 195.281 82.6875C196.479 86.125 197.078 90.3307 197.078 95.3047C197.078 99.8099 196.284 103.833 194.695 107.375C193.133 110.891 190.763 113.677 187.586 115.734C184.435 117.766 180.568 118.781 175.984 118.781C168.901 118.781 163.771 116.607 160.594 112.258C157.417 107.883 155.828 102.102 155.828 94.9141ZM177.586 107.336C178.914 107.336 179.721 107.232 180.008 107.023C180.607 105.982 181.062 104.51 181.375 102.609C181.688 100.708 181.844 98.651 181.844 96.4375C181.844 94.4062 181.714 92.5052 181.453 90.7344C181.193 88.9375 180.828 87.5312 180.359 86.5156C180.073 86.1771 179.5 85.9297 178.641 85.7734C177.781 85.5911 176.844 85.5 175.828 85.5C174.5 85.5 173.589 85.6432 173.094 85.9297C171.792 88.1693 171.141 91.2812 171.141 95.2656C171.141 97.1406 171.284 99.0547 171.57 101.008C171.857 102.961 172.221 104.732 172.664 106.32C172.977 106.659 173.615 106.919 174.578 107.102C175.542 107.258 176.544 107.336 177.586 107.336ZM206.062 104.211C208.354 105.122 210.19 105.826 211.57 106.32C212.951 106.815 214.461 107.245 216.102 107.609C217.768 107.974 219.422 108.156 221.062 108.156C221.792 108.156 222.312 108.091 222.625 107.961C222.703 107.857 222.768 107.701 222.82 107.492C222.898 107.258 222.938 107.023 222.938 106.789C222.938 106.268 222.638 105.839 222.039 105.5C221.102 104.979 219.435 104.159 217.039 103.039C213.758 101.477 211.154 100.083 209.227 98.8594C207.326 97.6354 205.711 96.0078 204.383 93.9766C203.081 91.9453 202.43 89.3932 202.43 86.3203C202.43 81.9193 203.745 78.3906 206.375 75.7344C209.005 73.0521 213.172 71.7109 218.875 71.7109C225.672 71.7109 230.958 72.5964 234.734 74.3672C234.917 75.1224 235.008 76.0729 235.008 77.2188C235.008 79.4062 234.669 81.6458 233.992 83.9375C233.315 86.2031 232.43 87.8828 231.336 88.9766C229.852 88.4818 227.755 87.6875 225.047 86.5938C223.068 85.8125 221.492 85.2135 220.32 84.7969C219.174 84.3542 218.12 84.0417 217.156 83.8594C216.635 83.9896 216.219 84.3021 215.906 84.7969C215.594 85.2656 215.438 85.8255 215.438 86.4766C215.438 87.0495 215.607 87.5312 215.945 87.9219C216.284 88.3125 216.661 88.625 217.078 88.8594C217.521 89.0677 218.146 89.3542 218.953 89.7188C219.37 89.901 219.76 90.0703 220.125 90.2266C220.49 90.3568 220.828 90.487 221.141 90.6172C223.172 91.4766 224.773 92.1797 225.945 92.7266C227.117 93.2734 228.25 93.9245 229.344 94.6797C231.349 96.0599 232.924 97.6354 234.07 99.4062C235.216 101.177 235.789 103.117 235.789 105.227C235.789 108.143 234.956 110.669 233.289 112.805C231.648 114.914 229.539 116.451 226.961 117.414C225.607 117.909 224.122 118.26 222.508 118.469C220.919 118.703 219.057 118.82 216.922 118.82C214.396 118.82 211.792 118.339 209.109 117.375C206.453 116.385 204.422 114.745 203.016 112.453C203.042 110.865 203.25 109.484 203.641 108.312C204.057 107.115 204.865 105.747 206.062 104.211ZM240.125 95.3047C240.125 90.7995 240.88 86.776 242.391 83.2344C243.901 79.6927 246.232 76.8932 249.383 74.8359C252.56 72.7526 256.518 71.7109 261.258 71.7109C263.732 71.7109 266.206 72.0104 268.68 72.6094C271.154 73.1823 273.25 74.1458 274.969 75.5C276.557 76.776 277.703 78.4688 278.406 80.5781C279.135 82.6615 279.5 84.9792 279.5 87.5312C279.5 89.224 279.357 90.9557 279.07 92.7266C278.758 93.2474 278.146 93.9375 277.234 94.7969C276.323 95.6302 275.255 96.4505 274.031 97.2578C272.807 98.0651 271.622 98.6901 270.477 99.1328C269.383 99.2109 268.25 99.25 267.078 99.25C265.021 99.25 262.938 99.1589 260.828 98.9766C258.719 98.7943 256.87 98.5859 255.281 98.3516C255.49 100.565 256.167 102.492 257.312 104.133C258.458 105.773 260.281 106.594 262.781 106.594C263.016 106.594 263.393 106.568 263.914 106.516C265.503 106.359 267.352 105.943 269.461 105.266C271.596 104.562 273.719 103.755 275.828 102.844C276.818 103.833 277.547 104.823 278.016 105.812C278.484 106.802 278.81 108.221 278.992 110.07C278.185 111.008 276.87 112.154 275.047 113.508C273.25 114.862 271.049 116.086 268.445 117.18C265.841 118.247 263.12 118.781 260.281 118.781C256.01 118.781 252.352 117.753 249.305 115.695C246.284 113.612 243.992 110.799 242.43 107.258C240.893 103.69 240.125 99.7057 240.125 95.3047ZM265.281 86.3203C264.917 85.9297 264.305 85.6302 263.445 85.4219C262.586 85.1875 261.688 85.0703 260.75 85.0703C259.995 85.0703 259.227 85.1354 258.445 85.2656C257.69 85.3958 257.234 85.5391 257.078 85.6953C256.193 87.4401 255.633 89.4193 255.398 91.6328L265.828 90.6172L265.281 86.3203Z"/>
</mask>
<path d="M63.5234 108.117C63.5234 105.747 64.0052 103.469 64.9688 101.281C65.4115 101.281 66.1016 101.372 67.0391 101.555C67.9766 101.711 68.9661 101.919 70.0078 102.18C69.8776 96.5807 69.8125 91.112 69.8125 85.7734C69.8125 80.0182 69.9167 75.1094 70.125 71.0469H70.0859L70.125 70.5781L63.7578 69.7578C63.3672 68.1693 63.1068 66.8542 62.9766 65.8125C62.8464 64.7448 62.7943 63.5208 62.8203 62.1406C63.6536 61.2031 64.8776 60.3828 66.4922 59.6797C68.1328 58.9505 69.8906 58.4036 71.7656 58.0391C73.6667 57.6484 75.3984 57.4531 76.9609 57.4531C79.9557 57.4531 82.2865 58.0521 83.9531 59.25C85.6458 60.4219 86.6094 62.2969 86.8438 64.875C86.9219 65.8906 86.9609 66.9974 86.9609 68.1953C86.9609 72.1536 86.6094 76.8411 85.9062 82.2578C85.2031 87.6745 84.2656 94.0026 83.0938 101.242L82.7812 103.273L92.7422 103.82L96.8047 90.8516C98.0286 90.7995 99.4219 90.8906 100.984 91.125C102.573 91.3594 103.94 91.6849 105.086 92.1016C105.555 93.3255 105.984 95.2786 106.375 97.9609C106.792 100.617 107 103.221 107 105.773C107 110.018 106.375 113 105.125 114.719C104.5 115.552 103.628 116.281 102.508 116.906C101.414 117.505 100.255 117.961 99.0312 118.273C97.8333 118.612 96.7526 118.781 95.7891 118.781C94.2526 118.781 92.4557 118.456 90.3984 117.805C88.3411 117.128 86.3229 116.281 84.3438 115.266C82.3646 114.224 80.737 113.182 79.4609 112.141C78.2891 114.172 76.9349 115.747 75.3984 116.867C73.862 117.987 71.9479 118.625 69.6562 118.781C68.5365 118.599 67.5078 118.013 66.5703 117.023C65.6328 116.034 64.8906 114.758 64.3438 113.195C63.7969 111.633 63.5234 109.94 63.5234 108.117ZM109.344 94.9141C109.344 90.2005 110.099 86.112 111.609 82.6484C113.12 79.1849 115.438 76.5026 118.562 74.6016C121.688 72.6745 125.607 71.7109 130.32 71.7109C135.529 71.7109 139.617 72.6875 142.586 74.6406C145.555 76.5677 147.625 79.25 148.797 82.6875C149.995 86.125 150.594 90.3307 150.594 95.3047C150.594 99.8099 149.799 103.833 148.211 107.375C146.648 110.891 144.279 113.677 141.102 115.734C137.951 117.766 134.083 118.781 129.5 118.781C122.417 118.781 117.286 116.607 114.109 112.258C110.932 107.883 109.344 102.102 109.344 94.9141ZM131.102 107.336C132.43 107.336 133.237 107.232 133.523 107.023C134.122 105.982 134.578 104.51 134.891 102.609C135.203 100.708 135.359 98.651 135.359 96.4375C135.359 94.4062 135.229 92.5052 134.969 90.7344C134.708 88.9375 134.344 87.5312 133.875 86.5156C133.589 86.1771 133.016 85.9297 132.156 85.7734C131.297 85.5911 130.359 85.5 129.344 85.5C128.016 85.5 127.104 85.6432 126.609 85.9297C125.307 88.1693 124.656 91.2812 124.656 95.2656C124.656 97.1406 124.799 99.0547 125.086 101.008C125.372 102.961 125.737 104.732 126.18 106.32C126.492 106.659 127.13 106.919 128.094 107.102C129.057 107.258 130.06 107.336 131.102 107.336ZM155.828 94.9141C155.828 90.2005 156.583 86.112 158.094 82.6484C159.604 79.1849 161.922 76.5026 165.047 74.6016C168.172 72.6745 172.091 71.7109 176.805 71.7109C182.013 71.7109 186.102 72.6875 189.07 74.6406C192.039 76.5677 194.109 79.25 195.281 82.6875C196.479 86.125 197.078 90.3307 197.078 95.3047C197.078 99.8099 196.284 103.833 194.695 107.375C193.133 110.891 190.763 113.677 187.586 115.734C184.435 117.766 180.568 118.781 175.984 118.781C168.901 118.781 163.771 116.607 160.594 112.258C157.417 107.883 155.828 102.102 155.828 94.9141ZM177.586 107.336C178.914 107.336 179.721 107.232 180.008 107.023C180.607 105.982 181.062 104.51 181.375 102.609C181.688 100.708 181.844 98.651 181.844 96.4375C181.844 94.4062 181.714 92.5052 181.453 90.7344C181.193 88.9375 180.828 87.5312 180.359 86.5156C180.073 86.1771 179.5 85.9297 178.641 85.7734C177.781 85.5911 176.844 85.5 175.828 85.5C174.5 85.5 173.589 85.6432 173.094 85.9297C171.792 88.1693 171.141 91.2812 171.141 95.2656C171.141 97.1406 171.284 99.0547 171.57 101.008C171.857 102.961 172.221 104.732 172.664 106.32C172.977 106.659 173.615 106.919 174.578 107.102C175.542 107.258 176.544 107.336 177.586 107.336ZM206.062 104.211C208.354 105.122 210.19 105.826 211.57 106.32C212.951 106.815 214.461 107.245 216.102 107.609C217.768 107.974 219.422 108.156 221.062 108.156C221.792 108.156 222.312 108.091 222.625 107.961C222.703 107.857 222.768 107.701 222.82 107.492C222.898 107.258 222.938 107.023 222.938 106.789C222.938 106.268 222.638 105.839 222.039 105.5C221.102 104.979 219.435 104.159 217.039 103.039C213.758 101.477 211.154 100.083 209.227 98.8594C207.326 97.6354 205.711 96.0078 204.383 93.9766C203.081 91.9453 202.43 89.3932 202.43 86.3203C202.43 81.9193 203.745 78.3906 206.375 75.7344C209.005 73.0521 213.172 71.7109 218.875 71.7109C225.672 71.7109 230.958 72.5964 234.734 74.3672C234.917 75.1224 235.008 76.0729 235.008 77.2188C235.008 79.4062 234.669 81.6458 233.992 83.9375C233.315 86.2031 232.43 87.8828 231.336 88.9766C229.852 88.4818 227.755 87.6875 225.047 86.5938C223.068 85.8125 221.492 85.2135 220.32 84.7969C219.174 84.3542 218.12 84.0417 217.156 83.8594C216.635 83.9896 216.219 84.3021 215.906 84.7969C215.594 85.2656 215.438 85.8255 215.438 86.4766C215.438 87.0495 215.607 87.5312 215.945 87.9219C216.284 88.3125 216.661 88.625 217.078 88.8594C217.521 89.0677 218.146 89.3542 218.953 89.7188C219.37 89.901 219.76 90.0703 220.125 90.2266C220.49 90.3568 220.828 90.487 221.141 90.6172C223.172 91.4766 224.773 92.1797 225.945 92.7266C227.117 93.2734 228.25 93.9245 229.344 94.6797C231.349 96.0599 232.924 97.6354 234.07 99.4062C235.216 101.177 235.789 103.117 235.789 105.227C235.789 108.143 234.956 110.669 233.289 112.805C231.648 114.914 229.539 116.451 226.961 117.414C225.607 117.909 224.122 118.26 222.508 118.469C220.919 118.703 219.057 118.82 216.922 118.82C214.396 118.82 211.792 118.339 209.109 117.375C206.453 116.385 204.422 114.745 203.016 112.453C203.042 110.865 203.25 109.484 203.641 108.312C204.057 107.115 204.865 105.747 206.062 104.211ZM240.125 95.3047C240.125 90.7995 240.88 86.776 242.391 83.2344C243.901 79.6927 246.232 76.8932 249.383 74.8359C252.56 72.7526 256.518 71.7109 261.258 71.7109C263.732 71.7109 266.206 72.0104 268.68 72.6094C271.154 73.1823 273.25 74.1458 274.969 75.5C276.557 76.776 277.703 78.4688 278.406 80.5781C279.135 82.6615 279.5 84.9792 279.5 87.5312C279.5 89.224 279.357 90.9557 279.07 92.7266C278.758 93.2474 278.146 93.9375 277.234 94.7969C276.323 95.6302 275.255 96.4505 274.031 97.2578C272.807 98.0651 271.622 98.6901 270.477 99.1328C269.383 99.2109 268.25 99.25 267.078 99.25C265.021 99.25 262.938 99.1589 260.828 98.9766C258.719 98.7943 256.87 98.5859 255.281 98.3516C255.49 100.565 256.167 102.492 257.312 104.133C258.458 105.773 260.281 106.594 262.781 106.594C263.016 106.594 263.393 106.568 263.914 106.516C265.503 106.359 267.352 105.943 269.461 105.266C271.596 104.562 273.719 103.755 275.828 102.844C276.818 103.833 277.547 104.823 278.016 105.812C278.484 106.802 278.81 108.221 278.992 110.07C278.185 111.008 276.87 112.154 275.047 113.508C273.25 114.862 271.049 116.086 268.445 117.18C265.841 118.247 263.12 118.781 260.281 118.781C256.01 118.781 252.352 117.753 249.305 115.695C246.284 113.612 243.992 110.799 242.43 107.258C240.893 103.69 240.125 99.7057 240.125 95.3047ZM265.281 86.3203C264.917 85.9297 264.305 85.6302 263.445 85.4219C262.586 85.1875 261.688 85.0703 260.75 85.0703C259.995 85.0703 259.227 85.1354 258.445 85.2656C257.69 85.3958 257.234 85.5391 257.078 85.6953C256.193 87.4401 255.633 89.4193 255.398 91.6328L265.828 90.6172L265.281 86.3203Z" fill="white"/>
<path d="M64.9688 101.281V96.2812H61.7076L60.393 99.2657L64.9688 101.281ZM67.0391 101.555L66.0847 106.463L66.1507 106.476L66.2171 106.487L67.0391 101.555ZM70.0078 102.18L68.7951 107.03L75.159 108.621L75.0065 102.063L70.0078 102.18ZM70.125 71.0469L75.1184 71.3029L75.388 66.0469H70.125V71.0469ZM70.0859 71.0469L65.1032 70.6316L64.6519 76.0469H70.0859V71.0469ZM70.125 70.5781L75.1077 70.9934L75.5047 66.2299L70.7639 65.6191L70.125 70.5781ZM63.7578 69.7578L58.9025 70.9518L59.7206 74.279L63.1189 74.7168L63.7578 69.7578ZM62.9766 65.8125L58.0133 66.4178L58.0142 66.4252L58.0152 66.4327L62.9766 65.8125ZM62.8203 62.1406L59.0833 58.8188L57.856 60.1994L57.8212 62.0463L62.8203 62.1406ZM66.4922 59.6797L68.4885 64.2639L68.5057 64.2564L68.5229 64.2487L66.4922 59.6797ZM71.7656 58.0391L72.72 62.9471L72.746 62.9421L72.772 62.9367L71.7656 58.0391ZM83.9531 59.25L81.0349 63.3101L81.0708 63.3358L81.1071 63.361L83.9531 59.25ZM86.8438 64.875L91.829 64.4915L91.8264 64.4569L91.8232 64.4223L86.8438 64.875ZM83.0938 101.242L78.158 100.443L78.1549 100.463L78.1519 100.482L83.0938 101.242ZM82.7812 103.273L77.8394 102.513L77.0009 107.964L82.5072 108.266L82.7812 103.273ZM92.7422 103.82L92.4681 108.813L96.3511 109.026L97.5136 105.315L92.7422 103.82ZM96.8047 90.8516L96.5921 85.8561L93.0832 86.0054L92.0333 89.3569L96.8047 90.8516ZM100.984 91.125L100.243 96.0697L100.255 96.0715L100.984 91.125ZM105.086 92.1016L109.755 90.3133L108.939 88.1824L106.795 87.4026L105.086 92.1016ZM106.375 97.9609L101.427 98.6815L101.431 98.7087L101.435 98.7358L106.375 97.9609ZM105.125 114.719L109.125 117.719L109.147 117.689L109.169 117.66L105.125 114.719ZM102.508 116.906L104.909 121.292L104.927 121.282L104.945 121.272L102.508 116.906ZM99.0312 118.273L97.7943 113.429L97.7327 113.445L97.6715 113.462L99.0312 118.273ZM90.3984 117.805L88.8353 122.554L88.8626 122.563L88.8899 122.572L90.3984 117.805ZM84.3438 115.266L82.015 119.69L82.0379 119.702L82.061 119.714L84.3438 115.266ZM79.4609 112.141L82.6228 108.267L78.0682 104.549L75.13 109.642L79.4609 112.141ZM69.6562 118.781L68.8529 123.716L69.4215 123.809L69.9964 123.77L69.6562 118.781ZM68.5234 108.117C68.5234 106.448 68.8582 104.855 69.5445 103.297L60.393 99.2657C59.1522 102.083 58.5234 105.047 58.5234 108.117H68.5234ZM64.9688 106.281C64.8843 106.281 64.928 106.275 65.1637 106.307C65.3793 106.335 65.6817 106.384 66.0847 106.463L67.9934 96.6466C67.0159 96.4565 65.9248 96.2812 64.9688 96.2812V106.281ZM66.2171 106.487C67.0078 106.618 67.8663 106.798 68.7951 107.03L71.2205 97.329C70.066 97.0403 68.9453 96.8034 67.8611 96.6227L66.2171 106.487ZM75.0065 102.063C74.8771 96.5013 74.8125 91.0714 74.8125 85.7734H64.8125C64.8125 91.1526 64.8781 96.6601 65.0092 102.296L75.0065 102.063ZM74.8125 85.7734C74.8125 80.0718 74.9159 75.2534 75.1184 71.3029L65.1316 70.7908C64.9175 74.9654 64.8125 79.9647 64.8125 85.7734H74.8125ZM70.125 66.0469H70.0859V76.0469H70.125V66.0469ZM75.0687 71.4621L75.1077 70.9934L65.1423 70.1629L65.1032 70.6316L75.0687 71.4621ZM70.7639 65.6191L64.3967 64.7988L63.1189 74.7168L69.4861 75.5371L70.7639 65.6191ZM68.6132 68.5639C68.2465 67.0726 68.0346 65.9655 67.938 65.1923L58.0152 66.4327C58.1789 67.7428 58.4879 69.2659 58.9025 70.9518L68.6132 68.5639ZM67.9398 65.2072C67.8445 64.4258 67.7966 63.4433 67.8194 62.2349L57.8212 62.0463C57.7919 63.5984 57.8482 65.0638 58.0133 66.4178L67.9398 65.2072ZM66.5574 65.4624C66.7553 65.2398 67.288 64.7867 68.4885 64.2639L64.4959 55.0955C62.4672 55.979 60.552 57.1665 59.0833 58.8188L66.5574 65.4624ZM68.5229 64.2487C69.7974 63.6823 71.1919 63.2443 72.72 62.9471L70.8113 53.131C68.5894 53.563 66.4682 54.2188 64.4615 55.1106L68.5229 64.2487ZM72.772 62.9367C74.4179 62.5985 75.8061 62.4531 76.9609 62.4531V52.4531C74.9908 52.4531 72.9155 52.6983 70.7593 53.1414L72.772 62.9367ZM76.9609 62.4531C79.3682 62.4531 80.5281 62.9458 81.0349 63.3101L86.8713 55.1899C84.0448 53.1584 80.5433 52.4531 76.9609 52.4531V62.4531ZM81.1071 63.361C81.2781 63.4794 81.7265 63.8124 81.8643 65.3277L91.8232 64.4223C91.4922 60.7813 90.0136 57.3644 86.7992 55.139L81.1071 63.361ZM81.8585 65.2585C81.9253 66.1267 81.9609 67.1038 81.9609 68.1953H91.9609C91.9609 66.891 91.9185 65.6546 91.829 64.4915L81.8585 65.2585ZM81.9609 68.1953C81.9609 71.875 81.6329 76.3371 80.9479 81.6142L90.8646 82.9015C91.5859 77.3452 91.9609 72.4323 91.9609 68.1953H81.9609ZM80.9479 81.6142C80.2533 86.9649 79.3241 93.2391 78.158 100.443L88.0295 102.041C89.2071 94.7661 90.153 88.3841 90.8646 82.9015L80.9479 81.6142ZM78.1519 100.482L77.8394 102.513L87.7231 104.034L88.0356 102.002L78.1519 100.482ZM82.5072 108.266L92.4681 108.813L93.0163 98.8278L83.0553 98.281L82.5072 108.266ZM97.5136 105.315L101.576 92.3462L92.0333 89.3569L87.9708 102.326L97.5136 105.315ZM97.0173 95.847C97.8461 95.8118 98.9104 95.8698 100.243 96.0697L101.726 86.1803C99.9334 85.9114 98.2112 85.7872 96.5921 85.8561L97.0173 95.847ZM100.255 96.0715C101.608 96.2711 102.63 96.5288 103.377 96.8005L106.795 87.4026C105.25 86.841 103.538 86.4477 101.714 86.1785L100.255 96.0715ZM100.417 93.8898C100.677 94.5694 101.046 96.0633 101.427 98.6815L111.323 97.2404C110.923 94.494 110.432 92.0816 109.755 90.3133L100.417 93.8898ZM101.435 98.7358C101.814 101.149 102 103.494 102 105.773H112C112 102.948 111.769 100.085 111.315 97.1861L101.435 98.7358ZM102 105.773C102 109.841 101.34 111.422 101.081 111.778L109.169 117.66C111.41 114.578 112 110.196 112 105.773H102ZM101.125 111.719C101.005 111.879 100.717 112.179 100.071 112.54L104.945 121.272C106.538 120.383 107.995 119.225 109.125 117.719L101.125 111.719ZM100.106 112.521C99.3847 112.916 98.6177 113.219 97.7943 113.429L100.268 123.118C101.893 122.703 103.443 122.095 104.909 121.292L100.106 112.521ZM97.6715 113.462C96.7944 113.71 96.1816 113.781 95.7891 113.781V123.781C97.3236 123.781 98.8723 123.514 100.391 123.085L97.6715 113.462ZM95.7891 113.781C94.9249 113.781 93.6574 113.592 91.907 113.038L88.8899 122.572C91.2541 123.32 93.5803 123.781 95.7891 123.781V113.781ZM91.9615 113.055C90.1582 112.462 88.3803 111.717 86.6265 110.817L82.061 119.714C84.2656 120.845 86.5241 121.793 88.8353 122.554L91.9615 113.055ZM86.6725 110.841C84.8916 109.904 83.5672 109.038 82.6228 108.267L76.2991 116.014C77.9068 117.326 79.8376 118.544 82.015 119.69L86.6725 110.841ZM75.13 109.642C74.2279 111.206 73.3097 112.202 72.4535 112.826L78.3434 120.908C80.5601 119.292 82.3502 117.138 83.7919 114.639L75.13 109.642ZM72.4535 112.826C71.8239 113.285 70.8646 113.687 69.3161 113.793L69.9964 123.77C73.0312 123.563 75.9 122.689 78.3434 120.908L72.4535 112.826ZM70.4596 113.846C70.5129 113.855 70.5393 113.872 70.5197 113.86C70.4919 113.845 70.3806 113.775 70.2001 113.585L62.9405 120.462C64.4747 122.082 66.4479 123.325 68.8529 123.716L70.4596 113.846ZM70.2001 113.585C69.8402 113.205 69.4258 112.58 69.063 111.544L59.6245 114.847C60.3555 116.936 61.4254 118.863 62.9405 120.462L70.2001 113.585ZM69.063 111.544C68.7198 110.563 68.5234 109.434 68.5234 108.117H58.5234C58.5234 110.446 58.8739 112.703 59.6245 114.847L69.063 111.544ZM118.562 74.6016L121.161 78.8732L121.174 78.8654L121.187 78.8574L118.562 74.6016ZM142.586 74.6406L139.838 78.8177L139.851 78.8262L139.864 78.8345L142.586 74.6406ZM148.797 82.6875L144.064 84.3009L144.07 84.3169L144.075 84.3329L148.797 82.6875ZM148.211 107.375L143.649 105.329L143.645 105.337L143.642 105.344L148.211 107.375ZM141.102 115.734L143.811 119.937L143.819 119.931L141.102 115.734ZM114.109 112.258L110.064 115.196L110.068 115.202L110.072 115.207L114.109 112.258ZM133.523 107.023L136.464 111.067L137.327 110.44L137.858 109.516L133.523 107.023ZM134.969 90.7344L130.02 91.4515L130.022 91.4618L134.969 90.7344ZM133.875 86.5156L138.415 84.4203L138.13 83.8041L137.692 83.2859L133.875 86.5156ZM132.156 85.7734L131.119 90.6646L131.19 90.6797L131.262 90.6928L132.156 85.7734ZM126.609 85.9297L124.104 81.6026L122.955 82.2681L122.287 83.4166L126.609 85.9297ZM126.18 106.32L121.363 107.663L121.687 108.825L122.506 109.712L126.18 106.32ZM128.094 107.102L127.164 112.014L127.229 112.027L127.293 112.037L128.094 107.102ZM114.344 94.9141C114.344 90.7234 115.016 87.3448 116.193 84.6471L107.026 80.6498C105.182 84.8792 104.344 89.6777 104.344 94.9141H114.344ZM116.193 84.6471C117.306 82.0943 118.946 80.2205 121.161 78.8732L115.964 70.3299C111.929 72.7847 108.934 76.2755 107.026 80.6498L116.193 84.6471ZM121.187 78.8574C123.328 77.537 126.274 76.7109 130.32 76.7109V66.7109C124.939 66.7109 120.047 67.812 115.938 70.3457L121.187 78.8574ZM130.32 76.7109C134.982 76.7109 137.982 77.597 139.838 78.8177L145.334 70.4635C141.252 67.778 136.075 66.7109 130.32 66.7109V76.7109ZM139.864 78.8345C141.866 80.1341 143.244 81.8946 144.064 84.3009L153.529 81.0741C152.006 76.6054 149.244 73.0013 145.308 70.4467L139.864 78.8345ZM144.075 84.3329C145.035 87.0871 145.594 90.7001 145.594 95.3047H155.594C155.594 89.9614 154.954 85.1629 153.518 81.0421L144.075 84.3329ZM145.594 95.3047C145.594 99.2171 144.906 102.526 143.649 105.329L152.773 109.421C154.693 105.141 155.594 100.403 155.594 95.3047H145.594ZM143.642 105.344C142.466 107.989 140.733 110.016 138.384 111.537L143.819 119.931C147.825 117.338 150.83 113.792 152.78 109.406L143.642 105.344ZM138.393 111.532C136.213 112.937 133.337 113.781 129.5 113.781V123.781C134.829 123.781 139.688 122.594 143.811 119.937L138.393 111.532ZM129.5 113.781C123.462 113.781 120.099 111.98 118.147 109.308L110.072 115.207C114.474 121.233 121.372 123.781 129.5 123.781V113.781ZM118.155 109.32C115.774 106.041 114.344 101.39 114.344 94.9141H104.344C104.344 102.813 106.091 109.725 110.064 115.196L118.155 109.32ZM131.102 112.336C131.864 112.336 132.637 112.308 133.343 112.217C133.761 112.163 135.195 111.99 136.464 111.067L130.583 102.98C130.907 102.744 131.197 102.599 131.388 102.516C131.583 102.43 131.741 102.38 131.837 102.353C132.019 102.301 132.113 102.292 132.063 102.299C132.026 102.304 131.929 102.314 131.756 102.322C131.587 102.331 131.371 102.336 131.102 102.336V112.336ZM137.858 109.516C138.881 107.736 139.466 105.6 139.824 103.42L129.957 101.798C129.69 103.421 129.363 104.228 129.189 104.531L137.858 109.516ZM139.824 103.42C140.187 101.215 140.359 98.8836 140.359 96.4375H130.359C130.359 98.4185 130.219 100.201 129.957 101.798L139.824 103.42ZM140.359 96.4375C140.359 94.1946 140.216 92.0482 139.916 90.0069L130.022 91.4618C130.243 92.9622 130.359 94.6179 130.359 96.4375H140.359ZM139.917 90.0172C139.625 88.0009 139.171 86.0592 138.415 84.4203L129.335 88.6109C129.516 89.0033 129.792 89.8741 130.02 91.4515L139.917 90.0172ZM137.692 83.2859C136.211 81.5359 134.108 81.0464 133.051 80.8541L131.262 90.6928C131.454 90.7277 131.418 90.7399 131.248 90.6665C131.097 90.601 130.574 90.3549 130.058 89.7453L137.692 83.2859ZM133.194 80.8823C131.945 80.6174 130.655 80.5 129.344 80.5V90.5C130.063 90.5 130.648 90.5649 131.119 90.6646L133.194 80.8823ZM129.344 80.5C128.522 80.5 127.685 80.5428 126.888 80.668C126.151 80.7839 125.112 81.0191 124.104 81.6026L129.115 90.2568C128.968 90.3416 128.841 90.4009 128.745 90.4414C128.648 90.482 128.57 90.5079 128.52 90.5235C128.423 90.553 128.389 90.5549 128.44 90.5468C128.488 90.5392 128.587 90.5268 128.745 90.5167C128.901 90.5066 129.1 90.5 129.344 90.5V80.5ZM122.287 83.4166C120.364 86.7239 119.656 90.8341 119.656 95.2656H129.656C129.656 91.7284 130.251 89.6147 130.932 88.4428L122.287 83.4166ZM119.656 95.2656C119.656 97.3958 119.819 99.5526 120.139 101.733L130.033 100.282C129.78 98.5568 129.656 96.8854 129.656 95.2656H119.656ZM120.139 101.733C120.45 103.856 120.854 105.837 121.363 107.663L130.996 104.978C130.62 103.627 130.295 102.066 130.033 100.282L120.139 101.733ZM122.506 109.712C124.008 111.34 126.11 111.815 127.164 112.014L129.023 102.189C128.744 102.136 128.692 102.104 128.782 102.14C128.834 102.162 128.965 102.219 129.141 102.329C129.315 102.439 129.577 102.629 129.854 102.929L122.506 109.712ZM127.293 112.037C128.539 112.239 129.81 112.336 131.102 112.336V102.336C130.31 102.336 129.576 102.277 128.894 102.166L127.293 112.037ZM165.047 74.6016L167.645 78.8732L167.658 78.8654L167.671 78.8574L165.047 74.6016ZM189.07 74.6406L186.322 78.8177L186.335 78.8262L186.348 78.8345L189.07 74.6406ZM195.281 82.6875L190.549 84.3009L190.554 84.3169L190.56 84.3329L195.281 82.6875ZM194.695 107.375L190.133 105.329L190.13 105.337L190.126 105.344L194.695 107.375ZM187.586 115.734L190.295 119.937L190.304 119.931L187.586 115.734ZM160.594 112.258L156.548 115.196L156.552 115.202L156.556 115.207L160.594 112.258ZM180.008 107.023L182.949 111.067L183.811 110.44L184.342 109.516L180.008 107.023ZM181.453 90.7344L176.505 91.4515L176.506 91.4618L181.453 90.7344ZM180.359 86.5156L184.899 84.4203L184.615 83.8041L184.176 83.2859L180.359 86.5156ZM178.641 85.7734L177.603 90.6646L177.674 90.6797L177.746 90.6928L178.641 85.7734ZM173.094 85.9297L170.589 81.6026L169.439 82.2681L168.771 83.4166L173.094 85.9297ZM172.664 106.32L167.848 107.663L168.172 108.825L168.99 109.712L172.664 106.32ZM174.578 107.102L173.649 112.014L173.713 112.027L173.778 112.037L174.578 107.102ZM160.828 94.9141C160.828 90.7234 161.5 87.3448 162.677 84.6471L153.511 80.6498C151.666 84.8792 150.828 89.6777 150.828 94.9141H160.828ZM162.677 84.6471C163.79 82.0943 165.431 80.2205 167.645 78.8732L162.448 70.3299C158.413 72.7847 155.418 76.2755 153.511 80.6498L162.677 84.6471ZM167.671 78.8574C169.813 77.537 172.759 76.7109 176.805 76.7109V66.7109C171.423 66.7109 166.531 67.812 162.422 70.3457L167.671 78.8574ZM176.805 76.7109C181.466 76.7109 184.467 77.597 186.322 78.8177L191.818 70.4635C187.736 67.778 182.56 66.7109 176.805 66.7109V76.7109ZM186.348 78.8345C188.35 80.1341 189.728 81.8946 190.549 84.3009L200.014 81.0741C198.49 76.6054 195.728 73.0013 191.793 70.4467L186.348 78.8345ZM190.56 84.3329C191.52 87.0871 192.078 90.7001 192.078 95.3047H202.078C202.078 89.9614 201.439 85.1629 200.003 81.0421L190.56 84.3329ZM192.078 95.3047C192.078 99.2171 191.39 102.526 190.133 105.329L199.257 109.421C201.177 105.141 202.078 100.403 202.078 95.3047H192.078ZM190.126 105.344C188.951 107.989 187.217 110.016 184.868 111.537L190.304 119.931C194.309 117.338 197.315 113.792 199.264 109.406L190.126 105.344ZM184.877 111.532C182.697 112.937 179.822 113.781 175.984 113.781V123.781C181.314 123.781 186.173 122.594 190.295 119.937L184.877 111.532ZM175.984 113.781C169.946 113.781 166.583 111.98 164.631 109.308L156.556 115.207C160.958 121.233 167.856 123.781 175.984 123.781V113.781ZM164.64 109.32C162.258 106.041 160.828 101.39 160.828 94.9141H150.828C150.828 102.813 152.575 109.725 156.548 115.196L164.64 109.32ZM177.586 112.336C178.349 112.336 179.122 112.308 179.827 112.217C180.245 112.163 181.68 111.99 182.949 111.067L177.067 102.98C177.392 102.744 177.681 102.599 177.872 102.516C178.068 102.43 178.226 102.38 178.322 102.353C178.503 102.301 178.598 102.292 178.548 102.299C178.511 102.304 178.414 102.314 178.241 102.322C178.072 102.331 177.855 102.336 177.586 102.336V112.336ZM184.342 109.516C185.366 107.736 185.951 105.6 186.309 103.42L176.441 101.798C176.174 103.421 175.848 104.228 175.673 104.531L184.342 109.516ZM186.309 103.42C186.671 101.215 186.844 98.8836 186.844 96.4375H176.844C176.844 98.4185 176.704 100.201 176.441 101.798L186.309 103.42ZM186.844 96.4375C186.844 94.1946 186.7 92.0482 186.4 90.0069L176.506 91.4618C176.727 92.9622 176.844 94.6179 176.844 96.4375H186.844ZM186.401 90.0172C186.109 88.0009 185.656 86.0592 184.899 84.4203L175.82 88.6109C176.001 89.0033 176.276 89.8741 176.505 91.4515L186.401 90.0172ZM184.176 83.2859C182.696 81.5359 180.593 81.0464 179.535 80.8541L177.746 90.6928C177.938 90.7277 177.903 90.7399 177.733 90.6665C177.581 90.601 177.058 90.3549 176.542 89.7453L184.176 83.2859ZM179.678 80.8823C178.43 80.6174 177.14 80.5 175.828 80.5V90.5C176.548 90.5 177.133 90.5649 177.603 90.6646L179.678 80.8823ZM175.828 80.5C175.007 80.5 174.169 80.5428 173.372 80.668C172.635 80.7839 171.596 81.0191 170.589 81.6026L175.599 90.2568C175.453 90.3416 175.326 90.4009 175.229 90.4414C175.132 90.482 175.055 90.5079 175.004 90.5235C174.907 90.553 174.873 90.5549 174.925 90.5468C174.973 90.5392 175.071 90.5268 175.229 90.5167C175.386 90.5066 175.584 90.5 175.828 90.5V80.5ZM168.771 83.4166C166.848 86.7239 166.141 90.8341 166.141 95.2656H176.141C176.141 91.7284 176.735 89.6147 177.416 88.4428L168.771 83.4166ZM166.141 95.2656C166.141 97.3958 166.303 99.5526 166.623 101.733L176.517 100.282C176.264 98.5568 176.141 96.8854 176.141 95.2656H166.141ZM166.623 101.733C166.934 103.856 167.339 105.837 167.848 107.663L177.481 104.978C177.104 103.627 176.779 102.066 176.517 100.282L166.623 101.733ZM168.99 109.712C170.493 111.34 172.594 111.815 173.649 112.014L175.508 102.189C175.229 102.136 175.176 102.104 175.266 102.14C175.319 102.162 175.449 102.219 175.625 102.329C175.8 102.439 176.062 102.629 176.338 102.929L168.99 109.712ZM173.778 112.037C175.023 112.239 176.294 112.336 177.586 112.336V102.336C176.795 102.336 176.06 102.277 175.378 102.166L173.778 112.037ZM206.062 104.211L207.91 99.5649L204.425 98.1789L202.119 101.137L206.062 104.211ZM216.102 107.609L215.017 112.49L215.025 112.492L215.033 112.494L216.102 107.609ZM222.625 107.961L224.548 112.576L225.807 112.052L226.625 110.961L222.625 107.961ZM222.82 107.492L218.077 105.911L218.016 106.093L217.97 106.28L222.82 107.492ZM222.039 105.5L224.499 101.147L224.483 101.138L224.467 101.129L222.039 105.5ZM217.039 103.039L214.889 107.553L214.906 107.561L214.922 107.569L217.039 103.039ZM209.227 98.8594L206.52 103.063L206.533 103.072L206.546 103.08L209.227 98.8594ZM204.383 93.9766L200.173 96.6749L200.186 96.6939L200.198 96.7128L204.383 93.9766ZM206.375 75.7344L209.928 79.2524L209.936 79.2438L209.945 79.2351L206.375 75.7344ZM234.734 74.3672L239.595 73.194L239.031 70.8598L236.857 69.8403L234.734 74.3672ZM233.992 83.9375L238.783 85.3692L238.785 85.3617L238.787 85.3542L233.992 83.9375ZM231.336 88.9766L229.755 93.72L232.686 94.6972L234.871 92.5121L231.336 88.9766ZM225.047 86.5938L226.919 81.9575L226.901 81.9502L226.883 81.943L225.047 86.5938ZM220.32 84.7969L218.518 89.4609L218.581 89.4853L218.645 89.5079L220.32 84.7969ZM217.156 83.8594L218.086 78.9465L217.008 78.7426L215.944 79.0087L217.156 83.8594ZM215.906 84.7969L220.067 87.5704L220.101 87.519L220.134 87.4668L215.906 84.7969ZM217.078 88.8594L214.627 93.2173L214.785 93.3062L214.949 93.3835L217.078 88.8594ZM218.953 89.7188L216.895 94.2756L216.922 94.2877L216.949 94.2995L218.953 89.7188ZM220.125 90.2266L218.155 94.8223L218.298 94.8832L218.443 94.9353L220.125 90.2266ZM221.141 90.6172L223.089 86.0124L223.076 86.007L223.064 86.0018L221.141 90.6172ZM229.344 94.6797L226.503 98.7942L226.509 98.7983L229.344 94.6797ZM234.07 99.4062L229.872 102.123L234.07 99.4062ZM233.289 112.805L229.347 109.728L229.342 109.735L233.289 112.805ZM226.961 117.414L228.677 122.11L228.694 122.104L228.711 122.098L226.961 117.414ZM222.508 118.469L221.868 113.51L221.823 113.516L221.778 113.522L222.508 118.469ZM209.109 117.375L207.364 122.06L207.391 122.071L207.419 122.081L209.109 117.375ZM203.016 112.453L198.016 112.371L197.992 113.827L198.754 115.068L203.016 112.453ZM203.641 108.312L198.918 106.67L198.907 106.701L198.897 106.731L203.641 108.312ZM204.215 108.857C206.529 109.777 208.425 110.504 209.883 111.027L213.258 101.614C211.955 101.147 210.179 100.467 207.91 99.5649L204.215 108.857ZM209.883 111.027C211.486 111.602 213.201 112.087 215.017 112.49L217.186 102.728C215.721 102.403 214.415 102.028 213.258 101.614L209.883 111.027ZM215.033 112.494C217.037 112.932 219.049 113.156 221.062 113.156V103.156C219.795 103.156 218.5 103.016 217.17 102.725L215.033 112.494ZM221.062 113.156C221.865 113.156 223.252 113.116 224.548 112.576L220.702 103.346C220.933 103.249 221.114 103.201 221.211 103.178C221.312 103.155 221.372 103.147 221.38 103.146C221.389 103.145 221.368 103.148 221.31 103.151C221.253 103.154 221.172 103.156 221.062 103.156V113.156ZM226.625 110.961C227.28 110.088 227.549 109.194 227.671 108.705L217.97 106.28C217.989 106.202 218.032 106.047 218.117 105.843C218.199 105.645 218.354 105.323 218.625 104.961L226.625 110.961ZM227.564 109.073C227.803 108.357 227.938 107.589 227.938 106.789H217.938C217.938 106.458 217.994 106.159 218.077 105.911L227.564 109.073ZM227.938 106.789C227.938 103.888 226.09 102.046 224.499 101.147L219.579 109.853C219.422 109.764 219.002 109.496 218.611 108.935C218.18 108.316 217.938 107.557 217.938 106.789H227.938ZM224.467 101.129C223.36 100.514 221.549 99.6279 219.156 98.5094L214.922 107.569C217.32 108.69 218.843 109.444 219.611 109.871L224.467 101.129ZM219.189 98.5248C215.997 97.0049 213.594 95.7101 211.907 94.6387L206.546 103.08C208.713 104.457 211.519 105.948 214.889 107.553L219.189 98.5248ZM211.933 94.6554C210.665 93.8388 209.54 92.7277 208.568 91.2403L200.198 96.7128C201.882 99.2879 203.986 101.432 206.52 103.063L211.933 94.6554ZM208.592 91.2782C207.931 90.246 207.43 88.6962 207.43 86.3203H197.43C197.43 90.0903 198.231 93.6446 200.173 96.6749L208.592 91.2782ZM207.43 86.3203C207.43 82.9856 208.388 80.8079 209.928 79.2524L202.822 72.2163C199.102 75.9733 197.43 80.8529 197.43 86.3203H207.43ZM209.945 79.2351C211.244 77.9106 213.829 76.7109 218.875 76.7109V66.7109C212.515 66.7109 206.767 68.1936 202.805 72.2337L209.945 79.2351ZM218.875 76.7109C225.346 76.7109 229.79 77.5709 232.611 78.8941L236.857 69.8403C232.127 67.6218 225.998 66.7109 218.875 66.7109V76.7109ZM229.874 75.5404C229.931 75.7768 230.008 76.3002 230.008 77.2188H240.008C240.008 75.8456 239.902 74.468 239.595 73.194L229.874 75.5404ZM230.008 77.2188C230.008 78.8846 229.751 80.6469 229.197 82.5208L238.787 85.3542C239.588 82.6448 240.008 79.9279 240.008 77.2188H230.008ZM229.202 82.5058C228.647 84.3608 228.078 85.1634 227.8 85.441L234.871 92.5121C236.781 90.6023 237.983 88.0454 238.783 85.3692L229.202 82.5058ZM232.917 84.2331C231.581 83.7879 229.598 83.0395 226.919 81.9575L223.175 91.23C225.912 92.3355 228.122 93.1757 229.755 93.72L232.917 84.2331ZM226.883 81.943C224.882 81.1532 223.246 80.5304 221.995 80.0858L218.645 89.5079C219.739 89.8967 221.254 90.4718 223.211 91.2445L226.883 81.943ZM222.122 80.1329C220.761 79.607 219.41 79.1972 218.086 78.9465L216.227 88.7722C216.829 88.8862 217.588 89.1013 218.518 89.4609L222.122 80.1329ZM215.944 79.0087C214.057 79.4803 212.611 80.6516 211.679 82.1269L220.134 87.4668C220.005 87.6706 219.788 87.9404 219.453 88.1914C219.112 88.4474 218.735 88.6186 218.369 88.7101L215.944 79.0087ZM211.746 82.0234C210.805 83.4355 210.438 84.9961 210.438 86.4766H220.438C220.438 86.5517 220.428 86.7059 220.371 86.9124C220.312 87.1242 220.212 87.3519 220.067 87.5704L211.746 82.0234ZM210.438 86.4766C210.438 88.1126 210.953 89.7964 212.167 91.1965L219.724 84.6472C219.961 84.9212 220.155 85.2503 220.282 85.6101C220.406 85.9626 220.438 86.2667 220.438 86.4766H210.438ZM212.167 91.1965C212.852 91.9865 213.669 92.6788 214.627 93.2173L219.529 84.5015C219.588 84.5343 219.635 84.568 219.67 84.5972C219.705 84.6261 219.722 84.6454 219.724 84.6472L212.167 91.1965ZM214.949 93.3835C215.427 93.6084 216.08 93.9074 216.895 94.2756L221.011 85.1619C220.212 84.801 219.615 84.527 219.207 84.3353L214.949 93.3835ZM216.949 94.2995C217.376 94.4861 217.778 94.6605 218.155 94.8223L222.095 85.6308C221.743 85.4802 221.364 85.3159 220.957 85.138L216.949 94.2995ZM218.443 94.9353C218.738 95.0405 218.995 95.1398 219.218 95.2326L223.064 86.0018C222.661 85.8341 222.241 85.6731 221.807 85.5179L218.443 94.9353ZM219.192 95.222C221.201 96.0717 222.739 96.7479 223.831 97.2575L228.06 88.1956C226.808 87.6115 225.143 86.8814 223.089 86.0124L219.192 95.222ZM223.831 97.2575C224.742 97.6829 225.633 98.1934 226.503 98.7942L232.185 90.5652C230.867 89.6555 229.492 88.864 228.06 88.1956L223.831 97.2575ZM226.509 98.7983C228.055 99.8623 229.135 100.983 229.872 102.123L238.268 96.69C236.714 94.288 234.643 92.2575 232.179 90.561L226.509 98.7983ZM229.872 102.123C230.495 103.084 230.789 104.081 230.789 105.227H240.789C240.789 102.153 239.938 99.2701 238.268 96.69L229.872 102.123ZM230.789 105.227C230.789 107.12 230.274 108.541 229.347 109.728L237.231 115.881C239.637 112.798 240.789 109.167 240.789 105.227H230.789ZM229.342 109.735C228.288 111.091 226.949 112.081 225.211 112.73L228.711 122.098C232.13 120.82 235.009 118.737 237.236 115.874L229.342 109.735ZM225.245 112.718C224.28 113.07 223.162 113.343 221.868 113.51L223.148 123.428C225.083 123.178 226.934 122.747 228.677 122.11L225.245 112.718ZM221.778 113.522C220.495 113.712 218.887 113.82 216.922 113.82V123.82C219.227 123.82 221.344 123.695 223.238 123.415L221.778 113.522ZM216.922 113.82C215.041 113.82 213.009 113.463 210.8 112.669L207.419 122.081C210.575 123.214 213.751 123.82 216.922 123.82V113.82ZM210.855 112.69C209.184 112.067 208.066 111.124 207.277 109.838L198.754 115.068C200.777 118.366 203.722 120.704 207.364 122.06L210.855 112.69ZM208.015 112.535C208.035 111.318 208.193 110.466 208.384 109.894L198.897 106.731C198.307 108.503 198.048 110.411 198.016 112.371L208.015 112.535ZM208.363 109.955C208.531 109.473 208.984 108.596 210.006 107.285L202.119 101.137C200.745 102.899 199.584 104.756 198.918 106.67L208.363 109.955ZM249.383 74.8359L252.116 79.0226L252.125 79.0172L249.383 74.8359ZM268.68 72.6094L267.503 77.469L267.527 77.4748L267.552 77.4805L268.68 72.6094ZM274.969 75.5L278.1 71.6019L278.082 71.5871L278.063 71.5725L274.969 75.5ZM278.406 80.5781L273.663 82.1593L273.675 82.1947L273.687 82.2299L278.406 80.5781ZM279.07 92.7266L283.358 95.299L283.853 94.4744L284.006 93.525L279.07 92.7266ZM277.234 94.7969L280.608 98.487L280.637 98.4611L280.664 98.4348L277.234 94.7969ZM274.031 97.2578L271.278 93.0839L274.031 97.2578ZM270.477 99.1328L270.833 104.12L271.58 104.067L272.279 103.797L270.477 99.1328ZM255.281 98.3516L256.011 93.4051L249.706 92.4749L250.303 98.8201L255.281 98.3516ZM257.312 104.133L253.213 106.996L257.312 104.133ZM263.914 106.516L263.425 101.54L263.417 101.54L263.914 106.516ZM269.461 105.266L270.989 110.026L271.007 110.021L271.025 110.015L269.461 105.266ZM275.828 102.844L279.364 99.3082L276.962 96.9069L273.845 98.2539L275.828 102.844ZM278.992 110.07L282.781 113.333L284.178 111.71L283.968 109.58L278.992 110.07ZM275.047 113.508L272.065 109.494L272.051 109.504L272.038 109.515L275.047 113.508ZM268.445 117.18L270.342 121.806L270.362 121.798L270.381 121.79L268.445 117.18ZM249.305 115.695L246.466 119.811L246.486 119.825L246.507 119.839L249.305 115.695ZM242.43 107.258L237.837 109.235L237.846 109.256L237.855 109.276L242.43 107.258ZM265.281 86.3203L270.241 85.689L270.038 84.0884L268.937 82.9087L265.281 86.3203ZM263.445 85.4219L262.13 90.2457L262.198 90.2644L262.267 90.2811L263.445 85.4219ZM258.445 85.2656L257.623 80.3337L257.61 80.336L257.596 80.3383L258.445 85.2656ZM257.078 85.6953L253.543 82.1598L252.98 82.7227L252.619 83.4327L257.078 85.6953ZM255.398 91.6328L250.426 91.1063L249.781 97.2035L255.883 96.6093L255.398 91.6328ZM265.828 90.6172L266.313 95.5936L271.438 95.0945L270.788 89.9859L265.828 90.6172ZM245.125 95.3047C245.125 91.3604 245.785 88.0211 246.99 85.1958L237.791 81.2729C235.975 85.531 235.125 90.2386 235.125 95.3047H245.125ZM246.99 85.1958C248.122 82.5418 249.814 80.5259 252.116 79.0226L246.649 70.6493C242.65 73.2605 239.68 76.8437 237.791 81.2729L246.99 85.1958ZM252.125 79.0172C254.306 77.5865 257.251 76.7109 261.258 76.7109V66.7109C255.785 66.7109 250.813 67.9187 246.641 70.6547L252.125 79.0172ZM261.258 76.7109C263.324 76.7109 265.403 76.9606 267.503 77.469L269.856 67.7498C267.008 67.0602 264.139 66.7109 261.258 66.7109V76.7109ZM267.552 77.4805C269.423 77.9139 270.819 78.5963 271.874 79.4275L278.063 71.5725C275.681 69.6954 272.884 68.4507 269.808 67.7383L267.552 77.4805ZM271.837 79.3981C272.609 80.018 273.235 80.8746 273.663 82.1593L283.15 78.997C282.172 76.0629 280.505 73.534 278.1 71.6019L271.837 79.3981ZM273.687 82.2299C274.204 83.7066 274.5 85.4553 274.5 87.5312H284.5C284.5 84.503 284.067 81.6163 283.126 78.9264L273.687 82.2299ZM274.5 87.5312C274.5 88.9412 274.381 90.4057 274.134 91.9281L284.006 93.525C284.333 91.5058 284.5 89.5068 284.5 87.5312H274.5ZM274.783 90.1541C274.844 90.0515 274.831 90.0977 274.636 90.3173C274.457 90.5197 274.187 90.798 273.804 91.1589L280.664 98.4348C281.634 97.5204 282.673 96.4408 283.358 95.299L274.783 90.1541ZM273.861 91.1067C273.175 91.7336 272.322 92.3954 271.278 93.0839L276.784 101.432C278.188 100.506 279.471 99.5268 280.608 98.487L273.861 91.1067ZM271.278 93.0839C270.297 93.7309 269.43 94.1769 268.675 94.4688L272.279 103.797C273.815 103.203 275.317 102.399 276.784 101.432L271.278 93.0839ZM270.12 94.1455C269.153 94.2146 268.139 94.25 267.078 94.25V104.25C268.361 104.25 269.613 104.207 270.833 104.12L270.12 94.1455ZM267.078 94.25C265.169 94.25 263.229 94.1654 261.259 93.9951L260.398 103.958C262.646 104.152 264.873 104.25 267.078 104.25V94.25ZM261.259 93.9951C259.22 93.8189 257.475 93.6211 256.011 93.4051L254.551 103.298C256.265 103.551 258.218 103.77 260.398 103.958L261.259 93.9951ZM250.303 98.8201C250.583 101.797 251.519 104.57 253.213 106.996L261.412 101.27C260.814 100.414 260.396 99.3336 260.259 97.883L250.303 98.8201ZM253.213 106.996C255.529 110.311 259.105 111.594 262.781 111.594V101.594C262.067 101.594 261.717 101.476 261.591 101.419C261.503 101.38 261.468 101.351 261.412 101.27L253.213 106.996ZM262.781 111.594C263.285 111.594 263.876 111.544 264.412 111.491L263.417 101.54C263.189 101.563 263.019 101.578 262.896 101.586C262.762 101.595 262.736 101.594 262.781 101.594V111.594ZM264.404 111.492C266.451 111.29 268.662 110.773 270.989 110.026L267.933 100.505C266.041 101.112 264.554 101.429 263.425 101.54L264.404 111.492ZM271.025 110.015C273.305 109.264 275.568 108.403 277.811 107.434L273.845 98.2539C271.87 99.1073 269.887 99.8611 267.897 100.516L271.025 110.015ZM272.293 106.379C272.984 107.071 273.331 107.603 273.497 107.953L282.534 103.672C281.763 102.043 280.651 100.596 279.364 99.3082L272.293 106.379ZM273.497 107.953C273.606 108.184 273.857 108.943 274.016 110.561L283.968 109.58C283.763 107.5 283.362 105.42 282.534 103.672L273.497 107.953ZM275.203 106.808C274.759 107.324 273.794 108.21 272.065 109.494L278.028 117.522C279.946 116.097 281.611 114.691 282.781 113.333L275.203 106.808ZM272.038 109.515C270.643 110.566 268.824 111.598 266.509 112.57L270.381 121.79C273.275 120.574 275.857 119.158 278.056 117.501L272.038 109.515ZM266.549 112.553C264.552 113.372 262.475 113.781 260.281 113.781V123.781C263.765 123.781 267.131 123.123 270.342 121.806L266.549 112.553ZM260.281 113.781C256.842 113.781 254.196 112.965 252.103 111.551L246.507 119.839C250.507 122.54 255.179 123.781 260.281 123.781V113.781ZM252.143 111.579C249.927 110.05 248.215 107.983 247.004 105.24L237.855 109.276C239.77 113.616 242.641 117.173 246.466 119.811L252.143 111.579ZM247.022 105.28C245.788 102.415 245.125 99.1158 245.125 95.3047H235.125C235.125 100.296 235.998 104.965 237.837 109.235L247.022 105.28ZM268.937 82.9087C267.599 81.4752 265.872 80.8654 264.623 80.5626L262.267 90.2811C262.443 90.3237 262.45 90.3424 262.351 90.2938C262.253 90.246 261.957 90.0861 261.626 89.7319L268.937 82.9087ZM264.761 80.5981C263.451 80.2408 262.109 80.0703 260.75 80.0703V90.0703C261.266 90.0703 261.721 90.1342 262.13 90.2457L264.761 80.5981ZM260.75 80.0703C259.706 80.0703 258.663 80.1604 257.623 80.3337L259.267 90.1976C259.79 90.1105 260.283 90.0703 260.75 90.0703V80.0703ZM257.596 80.3383C257.113 80.4216 256.566 80.5347 256.038 80.7007C255.737 80.7953 254.546 81.1565 253.543 82.1598L260.614 89.2308C260.346 89.4988 260.094 89.6853 259.911 89.8066C259.724 89.9301 259.563 90.016 259.449 90.0717C259.231 90.1786 259.075 90.2286 259.036 90.2407C258.964 90.2635 259.023 90.2398 259.295 90.1929L257.596 80.3383ZM252.619 83.4327C251.423 85.7895 250.716 88.3701 250.426 91.1063L260.371 92.1593C260.55 90.4684 260.962 89.0907 261.537 87.958L252.619 83.4327ZM255.883 96.6093L266.313 95.5936L265.344 85.6407L254.914 86.6564L255.883 96.6093ZM270.788 89.9859L270.241 85.689L260.321 86.9516L260.868 91.2485L270.788 89.9859Z" fill="black" mask="url(#path-1-outside-1_730_2)"/>
<mask id="path-3-outside-2_730_2" maskUnits="userSpaceOnUse" x="15" y="3" width="86" height="42" fill="black">
<rect fill="white" x="15" y="3" width="86" height="42"/>
<path d="M30.9297 29.7812C30.2917 28.7917 29.5234 27.4635 28.625 25.7969C27.7396 24.1302 26.8672 22.3529 26.0078 20.4648C25.1615 18.5768 24.4974 16.8516 24.0156 15.2891L21.0469 14.8789C20.8516 14.0846 20.7214 13.4271 20.6562 12.9062C20.5911 12.3724 20.5651 11.7604 20.5781 11.0703C20.8385 10.7448 21.3073 10.3997 21.9844 10.0352C22.6484 9.65755 23.4167 9.34505 24.2891 9.09766C25.1615 8.85026 26.0208 8.72656 26.8672 8.72656C29.2891 8.72656 30.806 9.63802 31.418 11.4609C31.6654 12.0339 32.043 13.082 32.5508 14.6055C33.0716 16.1159 33.599 17.8216 34.1328 19.7227C34.6667 21.6237 35.0833 23.4141 35.3828 25.0938C36.1771 23.5052 36.9648 21.7474 37.7461 19.8203C38.5273 17.8932 39.0482 16.3698 39.3086 15.25H39.2695L36.8867 14.8398C36.6914 14.0456 36.5612 13.388 36.4961 12.8672C36.431 12.3333 36.4049 11.7214 36.418 11.0312C36.6784 10.7057 37.1406 10.3607 37.8047 9.99609C38.4818 9.61849 39.2565 9.30599 40.1289 9.05859C41.0013 8.8112 41.8607 8.6875 42.707 8.6875C45.207 8.6875 46.737 9.65104 47.2969 11.5781C47.4401 12.0599 47.5117 12.5352 47.5117 13.0039C47.5117 14.3971 46.9323 16.1615 45.7734 18.2969C44.6146 20.4323 43.2799 22.5091 41.7695 24.5273C40.2591 26.5456 38.9635 28.1406 37.8828 29.3125C37.6094 30.9922 37.362 32.3073 37.1406 33.2578L37.1797 33.2969L40.0703 32.0859C41.0859 32.9583 41.6784 34.1172 41.8477 35.5625C41.8477 35.6406 41.5352 36.0117 40.9102 36.6758C40.2982 37.3398 39.4974 37.9583 38.5078 38.5312C37.5182 39.0911 36.4049 39.3711 35.168 39.3711C33.8919 39.3711 32.8568 39.013 32.0625 38.2969C31.2682 37.5807 30.8776 36.3568 30.8906 34.625L30.9297 29.7812ZM48.4883 27.457C48.4883 25.1003 48.8659 23.056 49.6211 21.3242C50.3763 19.5924 51.5352 18.2513 53.0977 17.3008C54.6602 16.3372 56.6198 15.8555 58.9766 15.8555C61.5807 15.8555 63.625 16.3438 65.1094 17.3203C66.5938 18.2839 67.6289 19.625 68.2148 21.3438C68.8138 23.0625 69.1133 25.1654 69.1133 27.6523C69.1133 29.9049 68.7161 31.9167 67.9219 33.6875C67.1406 35.4453 65.9557 36.8385 64.3672 37.8672C62.7917 38.8828 60.8581 39.3906 58.5664 39.3906C55.0247 39.3906 52.4596 38.3034 50.8711 36.1289C49.2826 33.9414 48.4883 31.0508 48.4883 27.457ZM59.3672 33.668C60.0312 33.668 60.4349 33.6159 60.5781 33.5117C60.8776 32.9909 61.1055 32.2552 61.2617 31.3047C61.418 30.3542 61.4961 29.3255 61.4961 28.2188C61.4961 27.2031 61.431 26.2526 61.3008 25.3672C61.1706 24.4688 60.9883 23.7656 60.7539 23.2578C60.6107 23.0885 60.3242 22.9648 59.8945 22.8867C59.4648 22.7956 58.9961 22.75 58.4883 22.75C57.8242 22.75 57.3685 22.8216 57.1211 22.9648C56.4701 24.0846 56.1445 25.6406 56.1445 27.6328C56.1445 28.5703 56.2161 29.5273 56.3594 30.5039C56.5026 31.4805 56.6849 32.3659 56.9062 33.1602C57.0625 33.3294 57.3815 33.4596 57.8633 33.5508C58.3451 33.6289 58.8464 33.668 59.3672 33.668ZM71.5547 22.1641C71.3333 21.2135 71.1901 20.5169 71.125 20.0742C71.0599 19.6315 71.0273 18.9609 71.0273 18.0625C71.7956 17.3333 72.6224 16.7865 73.5078 16.4219C74.3932 16.0443 75.3893 15.8555 76.4961 15.8555C79.8555 15.8555 81.5352 17.5417 81.5352 20.9141C81.5352 21.8125 81.4505 22.8542 81.2812 24.0391C81.125 25.224 80.8971 26.7148 80.5977 28.5117C80.5586 28.7461 80.4544 29.3776 80.2852 30.4062C80.1159 31.4349 79.9987 32.2943 79.9336 32.9844C80.1549 33.2188 80.4284 33.3815 80.7539 33.4727C80.9102 33.4727 81.2682 33.1536 81.8281 32.5156C82.401 31.8646 83.013 31.0768 83.6641 30.1523C84.3151 29.2279 84.849 28.375 85.2656 27.5938C85.3698 25.7318 85.513 24.0195 85.6953 22.457L83.6445 22.0469C83.4753 21.3958 83.3581 20.8229 83.293 20.3281C83.2279 19.8333 83.1953 19.306 83.1953 18.7461L83.2148 18.1992C83.6836 17.6003 84.3867 17.0599 85.3242 16.5781C86.2617 16.0964 87.3359 15.8555 88.5469 15.8555C91.9062 15.8555 93.5859 17.5417 93.5859 20.9141C93.5859 22.2812 93.3581 24.0846 92.9023 26.3242C92.4466 28.5508 91.9128 30.8034 91.3008 33.082L93.5469 32.1055C93.9245 32.5091 94.2565 33.0039 94.543 33.5898C94.8424 34.1628 95.0312 34.8268 95.1094 35.582C94.9271 35.9727 94.5299 36.474 93.918 37.0859C93.306 37.6849 92.5573 38.2188 91.6719 38.6875C90.7865 39.1562 89.862 39.3906 88.8984 39.3906C87.8177 39.3906 86.9844 39.0716 86.3984 38.4336C85.8255 37.7826 85.5391 36.9557 85.5391 35.9531C85.5391 35.6927 85.6042 35.1589 85.7344 34.3516C85.8776 33.5443 85.9948 32.9844 86.0859 32.6719L85.5391 32.4961C84.888 34.7747 83.9896 36.4935 82.8438 37.6523C81.7109 38.8112 80.4154 39.3906 78.957 39.3906C76.8607 39.3906 75.3828 38.7005 74.5234 37.3203C73.6641 35.9271 73.2344 34.2018 73.2344 32.1445C73.2344 28.2773 73.3646 25.0482 73.625 22.457L71.5547 22.1641Z"/>
</mask>
<path d="M30.9297 29.7812C30.2917 28.7917 29.5234 27.4635 28.625 25.7969C27.7396 24.1302 26.8672 22.3529 26.0078 20.4648C25.1615 18.5768 24.4974 16.8516 24.0156 15.2891L21.0469 14.8789C20.8516 14.0846 20.7214 13.4271 20.6562 12.9062C20.5911 12.3724 20.5651 11.7604 20.5781 11.0703C20.8385 10.7448 21.3073 10.3997 21.9844 10.0352C22.6484 9.65755 23.4167 9.34505 24.2891 9.09766C25.1615 8.85026 26.0208 8.72656 26.8672 8.72656C29.2891 8.72656 30.806 9.63802 31.418 11.4609C31.6654 12.0339 32.043 13.082 32.5508 14.6055C33.0716 16.1159 33.599 17.8216 34.1328 19.7227C34.6667 21.6237 35.0833 23.4141 35.3828 25.0938C36.1771 23.5052 36.9648 21.7474 37.7461 19.8203C38.5273 17.8932 39.0482 16.3698 39.3086 15.25H39.2695L36.8867 14.8398C36.6914 14.0456 36.5612 13.388 36.4961 12.8672C36.431 12.3333 36.4049 11.7214 36.418 11.0312C36.6784 10.7057 37.1406 10.3607 37.8047 9.99609C38.4818 9.61849 39.2565 9.30599 40.1289 9.05859C41.0013 8.8112 41.8607 8.6875 42.707 8.6875C45.207 8.6875 46.737 9.65104 47.2969 11.5781C47.4401 12.0599 47.5117 12.5352 47.5117 13.0039C47.5117 14.3971 46.9323 16.1615 45.7734 18.2969C44.6146 20.4323 43.2799 22.5091 41.7695 24.5273C40.2591 26.5456 38.9635 28.1406 37.8828 29.3125C37.6094 30.9922 37.362 32.3073 37.1406 33.2578L37.1797 33.2969L40.0703 32.0859C41.0859 32.9583 41.6784 34.1172 41.8477 35.5625C41.8477 35.6406 41.5352 36.0117 40.9102 36.6758C40.2982 37.3398 39.4974 37.9583 38.5078 38.5312C37.5182 39.0911 36.4049 39.3711 35.168 39.3711C33.8919 39.3711 32.8568 39.013 32.0625 38.2969C31.2682 37.5807 30.8776 36.3568 30.8906 34.625L30.9297 29.7812ZM48.4883 27.457C48.4883 25.1003 48.8659 23.056 49.6211 21.3242C50.3763 19.5924 51.5352 18.2513 53.0977 17.3008C54.6602 16.3372 56.6198 15.8555 58.9766 15.8555C61.5807 15.8555 63.625 16.3438 65.1094 17.3203C66.5938 18.2839 67.6289 19.625 68.2148 21.3438C68.8138 23.0625 69.1133 25.1654 69.1133 27.6523C69.1133 29.9049 68.7161 31.9167 67.9219 33.6875C67.1406 35.4453 65.9557 36.8385 64.3672 37.8672C62.7917 38.8828 60.8581 39.3906 58.5664 39.3906C55.0247 39.3906 52.4596 38.3034 50.8711 36.1289C49.2826 33.9414 48.4883 31.0508 48.4883 27.457ZM59.3672 33.668C60.0312 33.668 60.4349 33.6159 60.5781 33.5117C60.8776 32.9909 61.1055 32.2552 61.2617 31.3047C61.418 30.3542 61.4961 29.3255 61.4961 28.2188C61.4961 27.2031 61.431 26.2526 61.3008 25.3672C61.1706 24.4688 60.9883 23.7656 60.7539 23.2578C60.6107 23.0885 60.3242 22.9648 59.8945 22.8867C59.4648 22.7956 58.9961 22.75 58.4883 22.75C57.8242 22.75 57.3685 22.8216 57.1211 22.9648C56.4701 24.0846 56.1445 25.6406 56.1445 27.6328C56.1445 28.5703 56.2161 29.5273 56.3594 30.5039C56.5026 31.4805 56.6849 32.3659 56.9062 33.1602C57.0625 33.3294 57.3815 33.4596 57.8633 33.5508C58.3451 33.6289 58.8464 33.668 59.3672 33.668ZM71.5547 22.1641C71.3333 21.2135 71.1901 20.5169 71.125 20.0742C71.0599 19.6315 71.0273 18.9609 71.0273 18.0625C71.7956 17.3333 72.6224 16.7865 73.5078 16.4219C74.3932 16.0443 75.3893 15.8555 76.4961 15.8555C79.8555 15.8555 81.5352 17.5417 81.5352 20.9141C81.5352 21.8125 81.4505 22.8542 81.2812 24.0391C81.125 25.224 80.8971 26.7148 80.5977 28.5117C80.5586 28.7461 80.4544 29.3776 80.2852 30.4062C80.1159 31.4349 79.9987 32.2943 79.9336 32.9844C80.1549 33.2188 80.4284 33.3815 80.7539 33.4727C80.9102 33.4727 81.2682 33.1536 81.8281 32.5156C82.401 31.8646 83.013 31.0768 83.6641 30.1523C84.3151 29.2279 84.849 28.375 85.2656 27.5938C85.3698 25.7318 85.513 24.0195 85.6953 22.457L83.6445 22.0469C83.4753 21.3958 83.3581 20.8229 83.293 20.3281C83.2279 19.8333 83.1953 19.306 83.1953 18.7461L83.2148 18.1992C83.6836 17.6003 84.3867 17.0599 85.3242 16.5781C86.2617 16.0964 87.3359 15.8555 88.5469 15.8555C91.9062 15.8555 93.5859 17.5417 93.5859 20.9141C93.5859 22.2812 93.3581 24.0846 92.9023 26.3242C92.4466 28.5508 91.9128 30.8034 91.3008 33.082L93.5469 32.1055C93.9245 32.5091 94.2565 33.0039 94.543 33.5898C94.8424 34.1628 95.0312 34.8268 95.1094 35.582C94.9271 35.9727 94.5299 36.474 93.918 37.0859C93.306 37.6849 92.5573 38.2188 91.6719 38.6875C90.7865 39.1562 89.862 39.3906 88.8984 39.3906C87.8177 39.3906 86.9844 39.0716 86.3984 38.4336C85.8255 37.7826 85.5391 36.9557 85.5391 35.9531C85.5391 35.6927 85.6042 35.1589 85.7344 34.3516C85.8776 33.5443 85.9948 32.9844 86.0859 32.6719L85.5391 32.4961C84.888 34.7747 83.9896 36.4935 82.8438 37.6523C81.7109 38.8112 80.4154 39.3906 78.957 39.3906C76.8607 39.3906 75.3828 38.7005 74.5234 37.3203C73.6641 35.9271 73.2344 34.2018 73.2344 32.1445C73.2344 28.2773 73.3646 25.0482 73.625 22.457L71.5547 22.1641Z" fill="white"/>
<path d="M30.9297 29.7812L35.9295 29.8216L35.9416 28.3276L35.132 27.0719L30.9297 29.7812ZM28.625 25.7969L24.2094 28.1427L24.2165 28.1561L24.2237 28.1694L28.625 25.7969ZM26.0078 20.4648L21.4453 22.5101L21.4511 22.5232L21.4571 22.5362L26.0078 20.4648ZM24.0156 15.2891L28.7937 13.8158L27.8552 10.772L24.6999 10.3361L24.0156 15.2891ZM21.0469 14.8789L16.1915 16.0728L17.0017 19.3675L20.3626 19.8319L21.0469 14.8789ZM20.6562 12.9062L15.693 13.5115L15.6939 13.519L15.6949 13.5264L20.6562 12.9062ZM20.5781 11.0703L16.6738 7.94684L15.6111 9.27518L15.579 10.976L20.5781 11.0703ZM21.9844 10.0352L24.3549 14.4375L24.4057 14.4101L24.4559 14.3816L21.9844 10.0352ZM31.418 11.4609L26.6779 13.0522L26.7446 13.2508L26.8277 13.4431L31.418 11.4609ZM32.5508 14.6055L27.8074 16.1866L27.8155 16.2111L27.8239 16.2354L32.5508 14.6055ZM35.3828 25.0938L30.4604 25.9714L33.1084 40.8229L39.8549 27.3298L35.3828 25.0938ZM39.3086 15.25L44.1786 16.3826L45.6048 10.25H39.3086V15.25ZM39.2695 15.25L38.4213 20.1775L38.8423 20.25H39.2695V15.25ZM36.8867 14.8398L32.0314 16.0338L32.8129 19.2121L36.0385 19.7674L36.8867 14.8398ZM36.4961 12.8672L31.5329 13.4725L31.5338 13.4799L31.5347 13.4874L36.4961 12.8672ZM36.418 11.0312L32.5136 7.90777L31.4509 9.23612L31.4189 10.9369L36.418 11.0312ZM37.8047 9.99609L40.211 14.379L40.2255 14.371L40.24 14.3629L37.8047 9.99609ZM47.2969 11.5781L42.4954 12.9731L42.4998 12.9881L42.5042 13.003L47.2969 11.5781ZM45.7734 18.2969L41.3788 15.912L45.7734 18.2969ZM41.7695 24.5273L45.7726 27.5232L41.7695 24.5273ZM37.8828 29.3125L34.2072 25.9228L33.1891 27.0268L32.9478 28.5091L37.8828 29.3125ZM37.1406 33.2578L32.2709 32.1238L31.6409 34.8292L33.6051 36.7933L37.1406 33.2578ZM37.1797 33.2969L33.6442 36.8324L36.0168 39.205L39.1116 37.9086L37.1797 33.2969ZM40.0703 32.0859L43.3283 28.2931L40.9862 26.2813L38.1384 27.4742L40.0703 32.0859ZM41.8477 35.5625H46.8477V35.2707L46.8137 34.9809L41.8477 35.5625ZM40.9102 36.6758L37.2692 33.249L37.2512 33.2681L37.2334 33.2874L40.9102 36.6758ZM38.5078 38.5312L40.97 42.883L40.9916 42.8708L41.013 42.8584L38.5078 38.5312ZM30.8906 34.625L25.8908 34.5847L25.8908 34.5874L30.8906 34.625ZM35.132 27.0719C34.5938 26.2371 33.8951 25.036 33.0263 23.4243L24.2237 28.1694C25.1518 29.8911 25.9895 31.3462 26.7274 32.4906L35.132 27.0719ZM33.0406 23.4511C32.2074 21.8828 31.3798 20.1976 30.5586 18.3935L21.4571 22.5362C22.3546 24.5081 23.2717 26.3776 24.2094 28.1427L33.0406 23.4511ZM30.5704 18.4196C29.7867 16.6714 29.202 15.1403 28.7937 13.8158L19.2376 16.7623C19.7927 18.5628 20.5362 20.4823 21.4453 22.5101L30.5704 18.4196ZM24.6999 10.3361L21.7312 9.92595L20.3626 19.8319L23.3313 20.242L24.6999 10.3361ZM25.9022 13.685C25.7308 12.988 25.6492 12.5385 25.6176 12.2861L15.6949 13.5264C15.7935 14.3157 15.9723 15.1813 16.1915 16.0728L25.9022 13.685ZM25.6195 12.301C25.5893 12.0534 25.5675 11.6828 25.5772 11.1646L15.579 10.976C15.5628 11.838 15.593 12.6914 15.693 13.5115L25.6195 12.301ZM24.4825 14.1938C24.3625 14.3438 24.2594 14.4455 24.1971 14.5028C24.1337 14.5611 24.0937 14.5907 24.0891 14.5941C24.0837 14.5981 24.1012 14.5849 24.1482 14.5557C24.1947 14.527 24.2624 14.4873 24.3549 14.4375L19.6139 5.6328C18.7603 6.09243 17.5729 6.82288 16.6738 7.94684L24.4825 14.1938ZM24.4559 14.3816C24.713 14.2354 25.0975 14.0655 25.6532 13.908L22.9249 4.28734C21.7358 4.62456 20.5839 5.0797 19.5129 5.68871L24.4559 14.3816ZM25.6532 13.908C26.1134 13.7775 26.5138 13.7266 26.8672 13.7266V3.72656C25.5278 3.72656 24.2095 3.92305 22.9249 4.28734L25.6532 13.908ZM26.8672 13.7266C27.4923 13.7266 27.5011 13.8492 27.2461 13.696C27.1093 13.6138 26.9642 13.4906 26.8441 13.3363C26.7278 13.1869 26.6849 13.0729 26.6779 13.0522L36.158 9.86965C35.5089 7.93626 34.2651 6.24707 32.3965 5.12432C30.6245 4.05964 28.664 3.72656 26.8672 3.72656V13.7266ZM26.8277 13.4431C26.9793 13.7942 27.2961 14.6529 27.8074 16.1866L37.2942 13.0243C36.7898 11.5112 36.3515 10.2735 36.0083 9.47876L26.8277 13.4431ZM27.8239 16.2354C28.3067 17.6356 28.8056 19.2462 29.319 21.0745L38.9466 18.3708C38.3923 16.3971 37.8365 14.5961 37.2776 12.9755L27.8239 16.2354ZM29.319 21.0745C29.8157 22.843 30.1934 24.4739 30.4604 25.9714L40.3052 24.2161C39.9732 22.3542 39.5177 20.4044 38.9466 18.3708L29.319 21.0745ZM39.8549 27.3298C40.7166 25.6065 41.5574 23.7273 42.3798 21.6988L33.1124 17.9418C32.3723 19.7675 31.6376 21.4039 30.9107 22.8577L39.8549 27.3298ZM42.3798 21.6988C43.1943 19.6898 43.8297 17.8828 44.1786 16.3826L34.4386 14.1174C34.2666 14.8568 33.8604 16.0966 33.1124 17.9418L42.3798 21.6988ZM39.3086 10.25H39.2695V20.25H39.3086V10.25ZM40.1177 10.3225L37.7349 9.91231L36.0385 19.7674L38.4213 20.1775L40.1177 10.3225ZM41.7421 13.6459C41.5707 12.9489 41.489 12.4994 41.4575 12.247L31.5347 13.4874C31.6334 14.2766 31.8121 15.1422 32.0314 16.0338L41.7421 13.6459ZM41.4593 12.2619C41.4291 12.0144 41.4073 11.6438 41.4171 11.1256L31.4189 10.9369C31.4026 11.7989 31.4328 12.6523 31.5329 13.4725L41.4593 12.2619ZM40.3223 14.1547C40.2084 14.2971 40.1111 14.3939 40.0521 14.4486C39.9922 14.5041 39.9547 14.5322 39.9509 14.5351C39.9464 14.5385 39.964 14.5251 40.0098 14.4962C40.0552 14.4676 40.1211 14.4283 40.211 14.379L35.3984 5.6132C34.5512 6.07831 33.3954 6.80552 32.5136 7.90777L40.3223 14.1547ZM40.24 14.3629C40.527 14.2029 40.9324 14.0279 41.493 13.8689L38.7648 4.24827C37.5806 4.5841 36.4365 5.03412 35.3693 5.62927L40.24 14.3629ZM41.493 13.8689C41.9532 13.7384 42.3537 13.6875 42.707 13.6875V3.6875C41.3677 3.6875 40.0494 3.88398 38.7648 4.24827L41.493 13.8689ZM42.707 13.6875C43.3612 13.6875 43.348 13.8193 43.0649 13.641C42.9136 13.5457 42.7621 13.4075 42.6431 13.2429C42.5879 13.1666 42.5505 13.0994 42.5266 13.0491C42.503 12.9996 42.495 12.9717 42.4954 12.9731L52.0983 10.1831C51.5174 8.18366 50.3105 6.38628 48.394 5.17929C46.5811 4.03752 44.5528 3.6875 42.707 3.6875V13.6875ZM42.5042 13.003C42.5126 13.0312 42.5142 13.0433 42.5138 13.0409C42.5137 13.0399 42.5131 13.0359 42.5126 13.0293C42.5121 13.0227 42.5117 13.0142 42.5117 13.0039H52.5117C52.5117 12.0191 52.3604 11.0642 52.0896 10.1533L42.5042 13.003ZM42.5117 13.0039C42.5117 13.1559 42.3961 14.0375 41.3788 15.912L50.168 20.6817C51.4684 18.2855 52.5117 15.6384 52.5117 13.0039H42.5117ZM41.3788 15.912C40.3398 17.8267 39.1371 19.6999 37.7664 21.5315L45.7726 27.5232C47.4227 25.3183 48.8894 23.0378 50.168 20.6817L41.3788 15.912ZM37.7664 21.5315C36.307 23.4816 35.1257 24.9268 34.2072 25.9228L41.5584 32.7022C42.8013 31.3544 44.2112 29.6095 45.7726 27.5232L37.7664 21.5315ZM32.9478 28.5091C32.6813 30.1462 32.4548 31.334 32.2709 32.1238L42.0103 34.3919C42.2691 33.2805 42.5375 31.8381 42.8178 30.1159L32.9478 28.5091ZM33.6051 36.7933L33.6442 36.8324L40.7152 29.7613L40.6762 29.7223L33.6051 36.7933ZM39.1116 37.9086L42.0022 36.6976L38.1384 27.4742L35.2478 28.6852L39.1116 37.9086ZM36.8124 35.8788C36.8321 35.8958 36.8362 35.9022 36.8325 35.8975C36.831 35.8957 36.8291 35.8931 36.8272 35.8901C36.8253 35.8872 36.8244 35.8853 36.8244 35.8854C36.8244 35.8854 36.8262 35.8888 36.8291 35.8963C36.8321 35.9038 36.8368 35.9167 36.8424 35.9359C36.8536 35.974 36.8695 36.0411 36.8816 36.1441L46.8137 34.9809C46.5122 32.4066 45.3826 30.0577 43.3283 28.2931L36.8124 35.8788ZM36.8477 35.5625C36.8477 34.8037 37.0228 34.2275 37.1107 33.9693C37.2127 33.6697 37.323 33.442 37.3899 33.3123C37.522 33.0564 37.6442 32.8787 37.6845 32.8207C37.7753 32.6903 37.8309 32.6287 37.7887 32.6787C37.7225 32.7574 37.563 32.9367 37.2692 33.249L44.5512 40.1026C44.8823 39.7508 45.1916 39.4125 45.4378 39.1201C45.5519 38.9846 45.7247 38.7741 45.8936 38.5313C45.973 38.4172 46.1245 38.1925 46.2761 37.8987C46.3171 37.8194 46.8477 36.8719 46.8477 35.5625H36.8477ZM37.2334 33.2874C37.0392 33.4981 36.6669 33.8196 36.0026 34.2041L41.013 42.8584C42.3279 42.0971 43.5572 41.1816 44.5869 40.0642L37.2334 33.2874ZM36.0456 34.1795C35.8722 34.2776 35.6201 34.3711 35.168 34.3711V44.3711C37.1898 44.3711 39.1642 43.9047 40.97 42.883L36.0456 34.1795ZM35.168 34.3711C34.9964 34.3711 34.9822 34.3472 35.0691 34.3773C35.1121 34.3921 35.17 34.417 35.2351 34.4552C35.3005 34.4936 35.3601 34.5378 35.4107 34.5834L28.7143 42.0103C30.5986 43.7093 32.9074 44.3711 35.168 44.3711V34.3711ZM35.4107 34.5834C35.592 34.747 35.7222 34.9153 35.8096 35.0585C35.8946 35.1977 35.9288 35.2956 35.9371 35.3216C35.9449 35.346 35.9309 35.31 35.9162 35.195C35.9016 35.0804 35.8887 34.9062 35.8905 34.6626L25.8908 34.5874C25.8735 36.8849 26.3529 39.8812 28.7143 42.0103L35.4107 34.5834ZM35.8905 34.6653L35.9295 29.8216L25.9299 29.7409L25.8908 34.5847L35.8905 34.6653ZM53.0977 17.3008L55.6963 21.5725L55.7092 21.5646L55.7221 21.5566L53.0977 17.3008ZM65.1094 17.3203L62.3613 21.4974L62.3741 21.5058L62.387 21.5142L65.1094 17.3203ZM68.2148 21.3438L63.4823 22.9571L63.4878 22.9731L63.4933 22.9891L68.2148 21.3438ZM67.9219 33.6875L63.3598 31.6413L63.3563 31.649L63.3528 31.6568L67.9219 33.6875ZM64.3672 37.8672L67.0762 42.0697L67.0849 42.0641L64.3672 37.8672ZM50.8711 36.1289L46.8253 39.0669L46.8295 39.0726L46.8337 39.0784L50.8711 36.1289ZM60.5781 33.5117L63.519 37.5554L64.3812 36.9283L64.9127 36.0041L60.5781 33.5117ZM61.3008 25.3672L56.3525 26.0843L56.354 26.0947L61.3008 25.3672ZM60.7539 23.2578L65.2937 21.1625L65.0093 20.5462L64.5708 20.0281L60.7539 23.2578ZM59.8945 22.8867L58.857 27.7779L58.9284 27.793L59.0001 27.8061L59.8945 22.8867ZM57.1211 22.9648L54.6159 18.6377L53.4663 19.3033L52.7986 20.4517L57.1211 22.9648ZM56.9062 33.1602L52.0898 34.5024L52.4137 35.6649L53.2322 36.5516L56.9062 33.1602ZM57.8633 33.5508L56.9338 38.4636L56.9982 38.4758L57.0629 38.4863L57.8633 33.5508ZM53.4883 27.457C53.4883 25.6231 53.783 24.2888 54.2042 23.3229L45.0379 19.3255C43.9487 21.8232 43.4883 24.5774 43.4883 27.457H53.4883ZM54.2042 23.3229C54.5623 22.5019 55.044 21.9692 55.6963 21.5725L50.4991 13.0291C48.0263 14.5334 46.1903 16.683 45.0379 19.3255L54.2042 23.3229ZM55.7221 21.5566C56.3008 21.1997 57.2875 20.8555 58.9766 20.8555V10.8555C55.9521 10.8555 53.0195 11.4747 50.4732 13.0449L55.7221 21.5566ZM58.9766 20.8555C61.034 20.8555 61.9902 21.2533 62.3613 21.4974L67.8575 13.1432C65.2598 11.4342 62.1275 10.8555 58.9766 10.8555V20.8555ZM62.387 21.5142C62.9047 21.8503 63.2479 22.2696 63.4823 22.9571L72.9474 19.7304C72.0099 16.9804 70.2828 14.7174 67.8317 13.1264L62.387 21.5142ZM63.4933 22.9891C63.8542 24.0246 64.1133 25.5347 64.1133 27.6523H74.1133C74.1133 24.796 73.7734 22.1004 72.9364 19.6984L63.4933 22.9891ZM64.1133 27.6523C64.1133 29.3121 63.8226 30.6093 63.3598 31.6413L72.484 35.7337C73.6097 33.2241 74.1133 30.4978 74.1133 27.6523H64.1133ZM63.3528 31.6568C62.9586 32.5437 62.4098 33.178 61.6495 33.6703L67.0849 42.0641C69.5017 40.4991 71.3226 38.3469 72.4909 35.7182L63.3528 31.6568ZM61.6581 33.6647C61.0537 34.0543 60.1122 34.3906 58.5664 34.3906V44.3906C61.604 44.3906 64.5296 43.7113 67.0762 42.0697L61.6581 33.6647ZM58.5664 34.3906C56.0699 34.3906 55.2721 33.6771 54.9085 33.1794L46.8337 39.0784C49.6472 42.9297 53.9796 44.3906 58.5664 44.3906V34.3906ZM54.9169 33.1909C54.1241 32.0993 53.4883 30.3395 53.4883 27.457H43.4883C43.4883 31.762 44.441 35.7836 46.8253 39.0669L54.9169 33.1909ZM59.3672 38.668C59.7978 38.668 60.3039 38.6528 60.8078 38.5878C61.0241 38.5599 62.3216 38.4262 63.519 37.5554L57.6373 29.468C57.98 29.2188 58.2916 29.0623 58.5081 28.9676C58.7301 28.8704 58.9182 28.8096 59.0483 28.7725C59.2984 28.701 59.4772 28.6766 59.5281 28.67C59.6284 28.6571 59.6006 28.668 59.3672 28.668V38.668ZM64.9127 36.0041C65.6365 34.7451 65.9935 33.3447 66.1955 32.1157L56.3279 30.4937C56.2782 30.7962 56.2293 30.9873 56.1975 31.09C56.1639 31.1983 56.1661 31.1542 56.2436 31.0194L64.9127 36.0041ZM66.1955 32.1157C66.4018 30.861 66.4961 29.558 66.4961 28.2188H56.4961C56.4961 29.093 56.4342 29.8473 56.3279 30.4937L66.1955 32.1157ZM66.4961 28.2188C66.4961 26.9915 66.4176 25.7956 66.2476 24.6397L56.354 26.0947C56.4444 26.7096 56.4961 27.4147 56.4961 28.2188H66.4961ZM66.2491 24.65C66.0871 23.5322 65.8157 22.2935 65.2937 21.1625L56.2141 25.3531C56.1758 25.2702 56.1893 25.2775 56.2264 25.4208C56.262 25.5581 56.3075 25.7736 56.3525 26.0843L66.2491 24.65ZM64.5708 20.0281C63.2333 18.4474 61.417 18.0816 60.789 17.9674L59.0001 27.8061C58.9773 27.8019 58.7627 27.7637 58.4495 27.6284C58.1547 27.5011 57.5243 27.1817 56.937 26.4875L64.5708 20.0281ZM60.9321 17.9955C60.1133 17.8219 59.292 17.75 58.4883 17.75V27.75C58.7002 27.75 58.8164 27.7693 58.857 27.7779L60.9321 17.9955ZM58.4883 17.75C57.9989 17.75 57.4414 17.7749 56.8722 17.8643C56.3629 17.9444 55.5 18.1259 54.6159 18.6377L59.6263 27.292C59.2805 27.4922 58.9854 27.598 58.8068 27.6526C58.6223 27.709 58.4869 27.7333 58.4246 27.7431C58.3112 27.7609 58.3136 27.75 58.4883 27.75V17.75ZM52.7986 20.4517C51.5268 22.6392 51.1445 25.1934 51.1445 27.6328H61.1445C61.1445 26.0878 61.4133 25.5301 61.4436 25.4779L52.7986 20.4517ZM51.1445 27.6328C51.1445 28.8255 51.2357 30.0252 51.4123 31.2295L61.3064 29.7783C61.1966 29.0295 61.1445 28.3151 61.1445 27.6328H51.1445ZM51.4123 31.2295C51.5803 32.375 51.8023 33.4707 52.0898 34.5024L61.7227 31.8179C61.5675 31.261 61.4249 30.5859 61.3064 29.7783L51.4123 31.2295ZM53.2322 36.5516C54.5788 38.0103 56.3611 38.3553 56.9338 38.4636L58.7927 28.6379C58.7548 28.6308 58.9025 28.6536 59.1522 28.7555C59.3641 28.842 59.9772 29.1154 60.5803 29.7688L53.2322 36.5516ZM57.0629 38.4863C57.8263 38.6101 58.5961 38.668 59.3672 38.668V28.668C59.0967 28.668 58.8638 28.6477 58.6636 28.6153L57.0629 38.4863ZM71.5547 22.1641L66.685 23.2981L67.462 26.6347L70.8541 27.1147L71.5547 22.1641ZM71.0273 18.0625L67.5852 14.436L66.0273 15.9146V18.0625H71.0273ZM73.5078 16.4219L75.4116 21.0453L75.4405 21.0334L75.4692 21.0211L73.5078 16.4219ZM81.2812 24.0391L76.3315 23.332L76.3277 23.3586L76.3242 23.3854L81.2812 24.0391ZM80.5977 28.5117L75.6657 27.6897L75.6657 27.6897L80.5977 28.5117ZM80.2852 30.4062L85.2188 31.2181L80.2852 30.4062ZM79.9336 32.9844L74.9557 32.5148L74.7429 34.7704L76.2985 36.4175L79.9336 32.9844ZM80.7539 33.4727L79.4058 38.2875L80.0671 38.4727H80.7539V33.4727ZM81.8281 32.5156L78.0746 29.2125L78.07 29.2177L81.8281 32.5156ZM85.2656 27.5938L89.6774 29.9467L90.1962 28.9739L90.2578 27.873L85.2656 27.5938ZM85.6953 22.457L90.6616 23.0364L91.1958 18.4581L86.6759 17.5541L85.6953 22.457ZM83.6445 22.0469L78.8054 23.305L79.5934 26.3357L82.664 26.9498L83.6445 22.0469ZM83.1953 18.7461L78.1985 18.5676L78.1953 18.6568V18.7461H83.1953ZM83.2148 18.1992L79.2773 15.1177L78.276 16.3971L78.218 18.0208L83.2148 18.1992ZM92.9023 26.3242L97.8008 27.3268L97.8019 27.3212L92.9023 26.3242ZM91.3008 33.082L86.4719 31.7851L83.7812 41.8035L93.2944 37.6674L91.3008 33.082ZM93.5469 32.1055L97.1982 28.6897L94.7883 26.1136L91.5532 27.5201L93.5469 32.1055ZM94.543 33.5898L90.051 35.7859L90.0806 35.8464L90.1118 35.9061L94.543 33.5898ZM95.1094 35.582L99.6403 37.6965L100.225 36.4432L100.083 35.0675L95.1094 35.582ZM93.918 37.0859L97.4153 40.6593L97.4345 40.6405L97.4535 40.6215L93.918 37.0859ZM86.3984 38.4336L82.6449 41.7367L82.6799 41.7766L82.7158 41.8156L86.3984 38.4336ZM85.7344 34.3516L80.8113 33.4781L80.8044 33.5167L80.7982 33.5554L85.7344 34.3516ZM86.0859 32.6719L90.8859 34.0719L92.2484 29.4007L87.616 27.9117L86.0859 32.6719ZM85.5391 32.4961L87.0691 27.736L82.1507 26.155L80.7314 31.1225L85.5391 32.4961ZM82.8438 37.6523L79.2883 34.1368L79.2783 34.147L79.2683 34.1572L82.8438 37.6523ZM74.5234 37.3203L70.2679 39.9452L70.2734 39.9542L70.279 39.9631L74.5234 37.3203ZM73.625 22.457L78.5999 22.957L79.0801 18.1792L74.3256 17.5064L73.625 22.457ZM76.4244 21.03C76.2067 20.0954 76.1047 19.5703 76.0718 19.3467L66.1782 20.8017C66.2755 21.4636 66.4599 22.3316 66.685 23.2981L76.4244 21.03ZM76.0718 19.3467C76.0727 19.3527 76.0688 19.3272 76.0631 19.2625C76.0576 19.1994 76.0515 19.112 76.0459 18.9968C76.0346 18.764 76.0273 18.456 76.0273 18.0625H66.0273C66.0273 19.0132 66.0578 19.9832 66.1782 20.8017L76.0718 19.3467ZM74.4695 21.689C74.8381 21.3391 75.1534 21.1516 75.4116 21.0453L71.6041 11.7985C70.0914 12.4214 68.753 13.3275 67.5852 14.436L74.4695 21.689ZM75.4692 21.0211C75.6485 20.9446 75.9632 20.8555 76.4961 20.8555V10.8555C74.8154 10.8555 73.1379 11.1439 71.5464 11.8227L75.4692 21.0211ZM76.4961 20.8555C76.7088 20.8555 76.8632 20.8689 76.9673 20.8839C77.0711 20.8987 77.1156 20.9137 77.114 20.9132C77.1109 20.9122 77.0628 20.8955 76.987 20.8499C76.9495 20.8274 76.9078 20.7992 76.8637 20.7647C76.8195 20.7302 76.7755 20.6914 76.733 20.6488C76.6906 20.6062 76.6522 20.5622 76.6181 20.5183C76.5842 20.4745 76.5566 20.4333 76.5347 20.3966C76.5129 20.3601 76.4979 20.3301 76.4882 20.3088C76.4786 20.2877 76.4749 20.2762 76.475 20.2766C76.4755 20.278 76.491 20.3258 76.5063 20.4329C76.5216 20.5404 76.5352 20.6981 76.5352 20.9141H86.5352C86.5352 18.462 85.9218 15.7036 83.8178 13.5914C81.7102 11.4757 78.9514 10.8555 76.4961 10.8555V20.8555ZM76.5352 20.9141C76.5352 21.5131 76.4776 22.3095 76.3315 23.332L86.231 24.7462C86.4235 23.3988 86.5352 22.1119 86.5352 20.9141H76.5352ZM76.3242 23.3854C76.1781 24.4931 75.9601 25.9231 75.6657 27.6897L85.5296 29.3337C85.8342 27.5065 86.0719 25.9548 86.2383 24.6927L76.3242 23.3854ZM75.6657 27.6897C75.6256 27.9304 75.5204 28.5679 75.3515 29.5944L85.2188 31.2181C85.3884 30.1873 85.4916 29.5618 85.5296 29.3337L75.6657 27.6897ZM75.3515 29.5944C75.1718 30.6862 75.0355 31.6686 74.9557 32.5148L84.9115 33.454C84.9619 32.92 85.0599 32.1836 85.2188 31.2181L75.3515 29.5944ZM76.2985 36.4175C77.1736 37.344 78.251 37.9642 79.4058 38.2875L82.1021 28.6578C82.6057 28.7989 83.1363 29.0935 83.5687 29.5513L76.2985 36.4175ZM80.7539 38.4727C82.2518 38.4727 83.3068 37.8093 83.5444 37.6619C83.952 37.4091 84.2701 37.141 84.4657 36.9667C84.8709 36.6057 85.257 36.1887 85.5863 35.8136L78.07 29.2177C77.8393 29.4805 77.7665 29.5421 77.8136 29.5001C77.8302 29.4853 77.9945 29.3369 78.2735 29.1638C78.4174 29.0745 78.6735 28.9274 79.0221 28.7929C79.3494 28.6666 79.9587 28.4727 80.7539 28.4727V38.4727ZM85.5817 35.8188C86.3031 34.999 87.0265 34.0615 87.7521 33.0312L79.576 27.2735C78.9995 28.0921 78.499 28.7301 78.0746 29.2125L85.5817 35.8188ZM87.7521 33.0312C88.4911 31.9819 89.1415 30.9514 89.6774 29.9467L80.8539 25.2408C80.5564 25.7986 80.1391 26.4738 79.576 27.2735L87.7521 33.0312ZM90.2578 27.873C90.3574 26.0936 90.4929 24.483 90.6616 23.0364L80.729 21.8776C80.5332 23.5561 80.3822 25.37 80.2734 27.3145L90.2578 27.873ZM86.6759 17.5541L84.6251 17.144L82.664 26.9498L84.7147 27.3599L86.6759 17.5541ZM88.4836 20.7887C88.3497 20.2734 88.2811 19.9102 88.2502 19.6759L78.3357 20.9804C78.4351 21.7356 78.6009 22.5183 78.8054 23.305L88.4836 20.7887ZM88.2502 19.6759C88.2168 19.4215 88.1953 19.1137 88.1953 18.7461H78.1953C78.1953 19.4982 78.239 20.2451 78.3357 20.9804L88.2502 19.6759ZM88.1921 18.9246L88.2117 18.3777L78.218 18.0208L78.1985 18.5676L88.1921 18.9246ZM87.1524 21.2808C87.0895 21.3611 87.0682 21.3648 87.1405 21.3092C87.2137 21.253 87.3602 21.1534 87.6096 21.0253L83.0389 12.131C81.6911 12.8236 80.3287 13.7742 79.2773 15.1177L87.1524 21.2808ZM87.6096 21.0253C87.7414 20.9575 88.0119 20.8555 88.5469 20.8555V10.8555C86.6599 10.8555 84.7821 11.2352 83.0389 12.131L87.6096 21.0253ZM88.5469 20.8555C88.7596 20.8555 88.914 20.8689 89.0181 20.8839C89.1218 20.8987 89.1663 20.9137 89.1648 20.9132C89.1617 20.9122 89.1135 20.8955 89.0378 20.8499C89.0003 20.8274 88.9586 20.7992 88.9144 20.7647C88.8703 20.7302 88.8263 20.6914 88.7838 20.6488C88.7413 20.6062 88.7029 20.5622 88.6689 20.5183C88.635 20.4745 88.6074 20.4333 88.5855 20.3966C88.5636 20.3601 88.5486 20.3301 88.539 20.3088C88.5294 20.2877 88.5256 20.2762 88.5258 20.2766C88.5262 20.278 88.5418 20.3258 88.5571 20.4329C88.5724 20.5404 88.5859 20.6981 88.5859 20.9141H98.5859C98.5859 18.462 97.9725 15.7036 95.8685 13.5914C93.761 11.4757 91.0022 10.8555 88.5469 10.8555V20.8555ZM88.5859 20.9141C88.5859 21.7981 88.4298 23.2287 88.0028 25.3272L97.8019 27.3212C98.2864 24.9406 98.5859 22.7644 98.5859 20.9141H88.5859ZM88.0039 25.3216C87.5691 27.4457 87.0587 29.6002 86.4719 31.7851L96.1297 34.3789C96.7668 32.0066 97.3241 29.6558 97.8008 27.3268L88.0039 25.3216ZM93.2944 37.6674L95.5405 36.6908L91.5532 27.5201L89.3072 28.4967L93.2944 37.6674ZM89.8955 35.5213C89.8793 35.504 89.9445 35.568 90.051 35.7859L99.0349 31.3938C98.5685 30.4398 97.9696 29.5143 97.1982 28.6897L89.8955 35.5213ZM90.1118 35.9061C90.0718 35.8294 90.1117 35.8629 90.1359 36.0965L100.083 35.0675C99.9508 33.7907 99.6131 32.4961 98.9741 31.2736L90.1118 35.9061ZM90.5785 33.4676C90.6508 33.3126 90.7132 33.2123 90.7395 33.1719C90.7672 33.1291 90.7765 33.1198 90.7556 33.1462C90.7356 33.1714 90.6963 33.2188 90.6321 33.2897C90.5683 33.3601 90.4861 33.4468 90.3824 33.5504L97.4535 40.6215C98.1483 39.9267 99.0711 38.9161 99.6403 37.6965L90.5785 33.4676ZM90.4207 33.5126C90.2045 33.7242 89.8635 33.9874 89.3324 34.2686L94.0113 43.1064C95.2511 42.4501 96.4075 41.6456 97.4153 40.6593L90.4207 33.5126ZM89.3324 34.2686C89.1381 34.3714 89.0135 34.3906 88.8984 34.3906V44.3906C90.7104 44.3906 92.4348 43.9411 94.0113 43.1064L89.3324 34.2686ZM88.8984 34.3906C88.8437 34.3906 88.99 34.3821 89.2505 34.4818C89.5341 34.5904 89.8345 34.7831 90.0811 35.0516L82.7158 41.8156C84.4736 43.7297 86.7892 44.3906 88.8984 44.3906V34.3906ZM90.152 35.1305C90.2982 35.2966 90.4111 35.4943 90.4784 35.6884C90.542 35.872 90.5391 35.9772 90.5391 35.9531H80.5391C80.5391 37.9701 81.1447 40.032 82.6449 41.7367L90.152 35.1305ZM90.5391 35.9531C90.5391 36.0756 90.5324 36.1414 90.5346 36.115C90.5358 36.0996 90.5403 36.0516 90.5511 35.9627C90.573 35.7832 90.611 35.5168 90.6706 35.1477L80.7982 33.5554C80.681 34.2821 80.5391 35.2208 80.5391 35.9531H90.5391ZM90.6575 35.225C90.7236 34.8522 90.7789 34.564 90.8236 34.3505C90.8723 34.1179 90.8937 34.0454 90.8859 34.0719L81.2859 31.2719C81.11 31.875 80.9529 32.68 80.8113 33.4781L90.6575 35.225ZM87.616 27.9117L87.0691 27.736L84.009 37.2562L84.5559 37.432L87.616 27.9117ZM80.7314 31.1225C80.2134 32.9355 79.6355 33.7857 79.2883 34.1368L86.3992 41.1678C88.3436 39.2013 89.5626 36.6139 90.3467 33.8697L80.7314 31.1225ZM79.2683 34.1572C79.1725 34.2552 79.0997 34.3139 79.0533 34.3471C79.0079 34.3796 78.984 34.3905 78.9811 34.3917C78.9791 34.3927 78.984 34.3905 78.9908 34.3891C78.9972 34.3878 78.9883 34.3906 78.957 34.3906V44.3906C81.9173 44.3906 84.4607 43.151 86.4192 41.1475L79.2683 34.1572ZM78.957 34.3906C78.4389 34.3906 78.3078 34.3034 78.3919 34.3426C78.4386 34.3644 78.5156 34.4092 78.5993 34.4833C78.683 34.5575 78.7384 34.6301 78.7679 34.6775L70.279 39.9631C72.3156 43.234 75.7014 44.3906 78.957 44.3906V34.3906ZM78.779 34.6954C78.517 34.2706 78.2344 33.511 78.2344 32.1445H68.2344C68.2344 34.8927 68.8111 37.5836 70.2679 39.9452L78.779 34.6954ZM78.2344 32.1445C78.2344 28.3727 78.3621 25.3234 78.5999 22.957L68.6501 21.957C68.3671 24.773 68.2344 28.182 68.2344 32.1445H78.2344ZM74.3256 17.5064L72.2553 17.2134L70.8541 27.1147L72.9244 27.4077L74.3256 17.5064Z" fill="black" mask="url(#path-3-outside-2_730_2)"/>
</g>
<defs>
<filter id="filter0_d_730_2" x="16.5586" y="8.6875" width="266.941" height="122.133" filterUnits="userSpaceOnUse" color-interpolation-filters="sRGB">
<feFlood flood-opacity="0" result="BackgroundImageFix"/>
<feColorMatrix in="SourceAlpha" type="matrix" values="0 0 0 0 0 0 0 0 0 0 0 0 0 0 0 0 0 0 127 0" result="hardAlpha"/>
<feOffset dy="8"/>
<feGaussianBlur stdDeviation="2"/>
<feComposite in2="hardAlpha" operator="out"/>
<feColorMatrix type="matrix" values="0 0 0 0 0 0 0 0 0 0 0 0 0 0 0 0 0 0 0.25 0"/>
<feBlend mode="normal" in2="BackgroundImageFix" result="effect1_dropShadow_730_2"/>
<feBlend mode="normal" in="SourceGraphic" in2="effect1_dropShadow_730_2" result="shape"/>
</filter>
</defs>
</svg>
